{"glyphs":{"0":{"ha":554,"x_min":33,"x_max":547,"o":"m 226 -17 q 119 10 165 -17 q 53 94 74 36 q 46 243 33 151 l 94 592 q 183 774 111 715 q 349 832 254 832 q 494 773 440 832 q 531 592 547 714 l 481 243 q 431 92 468 150 q 342 9 394 35 q 226 -17 289 -17 m 235 49 q 320 86 283 49 q 367 194 357 124 l 426 618 q 410 726 436 689 q 336 764 383 764 q 253 726 290 764 q 204 618 215 689 l 146 194 q 163 86 136 124 q 235 49 189 49 z "},"1":{"ha":354,"x_min":79,"x_max":342,"o":"m 118 0 l 213 676 l 79 676 l 88 739 l 149 739 q 208 760 186 742 q 250 821 231 778 l 342 821 l 225 0 l 118 0 z "},"2":{"ha":528,"x_min":3,"x_max":532,"o":"m 3 0 q 15 80 10 40 q 26 160 21 119 q 61 272 36 231 q 129 341 86 314 q 232 396 172 368 q 312 440 275 414 q 374 502 349 465 q 407 590 400 539 l 410 611 q 399 709 418 672 q 324 746 379 746 q 239 711 271 746 q 196 604 207 676 l 188 539 l 79 539 l 92 629 q 169 777 107 729 q 336 825 232 825 q 459 801 415 825 q 517 729 503 778 q 521 606 532 681 q 489 494 513 543 q 427 409 465 446 q 335 344 389 372 q 256 306 293 326 q 192 259 219 286 q 153 190 165 232 q 138 142 144 167 q 126 89 131 117 l 454 89 l 440 0 l 3 0 z "},"3":{"ha":540,"x_min":17,"x_max":539,"o":"m 218 -10 q 94 16 139 -10 q 33 88 49 42 q 25 193 17 133 l 38 279 l 146 279 l 136 214 q 149 108 128 146 q 228 68 171 69 q 313 103 279 68 q 356 197 347 139 l 367 275 q 342 361 375 332 q 243 392 308 390 l 167 392 l 175 457 l 254 457 q 313 467 285 457 q 361 497 340 478 q 391 534 381 514 q 404 578 401 554 l 411 628 q 399 713 418 678 q 324 747 379 747 q 235 710 265 747 q 197 613 206 672 l 193 568 l 83 568 l 90 633 q 164 775 104 725 q 335 825 224 825 q 494 778 450 825 q 526 640 539 731 l 519 593 q 467 478 510 521 q 363 421 424 435 q 457 367 428 413 q 475 250 486 321 l 467 193 q 431 85 458 131 q 351 15 403 39 q 218 -10 300 -10 z "},"4":{"ha":511,"x_min":-7,"x_max":475,"o":"m 251 0 l 275 164 l -7 164 l 6 249 l 375 821 l 475 821 l 393 238 l 475 238 l 464 164 l 382 164 l 358 0 l 251 0 m 93 238 l 285 238 l 339 621 l 93 238 z "},"5":{"ha":547,"x_min":22,"x_max":540,"o":"m 226 -11 q 103 7 150 -11 q 39 73 56 25 q 35 210 22 121 l 42 263 l 150 263 l 144 219 q 154 103 132 136 q 238 69 176 69 q 326 108 296 69 q 368 224 357 146 l 385 346 q 385 415 390 383 q 360 465 381 447 q 293 483 339 483 q 217 460 250 483 q 169 396 183 436 l 64 396 l 124 821 l 540 821 l 528 740 l 219 740 l 183 489 q 246 538 207 519 q 342 557 285 557 q 474 516 433 557 q 499 369 514 475 l 476 214 q 430 74 464 122 q 344 7 396 25 q 226 -11 292 -11 z "},"6":{"ha":551,"x_min":31,"x_max":544,"o":"m 225 -14 q 106 13 150 -14 q 46 88 61 39 q 40 203 31 138 l 99 626 q 181 775 114 724 q 346 826 247 826 q 496 779 447 826 q 529 631 544 732 l 521 578 l 414 578 l 424 644 q 409 730 432 703 q 338 757 386 757 q 251 724 285 757 q 208 640 217 692 l 181 440 q 252 495 208 476 q 342 514 296 514 q 463 469 418 514 q 497 346 508 425 l 476 192 q 437 85 467 132 q 354 13 407 39 q 225 -14 301 -14 m 236 53 q 322 83 286 53 q 367 178 357 114 l 388 331 q 367 415 396 388 q 290 443 338 442 q 210 416 244 443 q 167 343 175 389 l 144 178 q 160 85 135 117 q 236 53 186 54 z "},"7":{"ha":426,"x_min":14,"x_max":463,"o":"m 14 0 l 344 743 l 72 743 l 82 821 l 463 821 l 450 740 l 121 0 l 14 0 z "},"8":{"ha":542,"x_min":24,"x_max":536,"o":"m 224 -11 q 101 15 146 -11 q 40 87 56 40 q 32 194 24 133 l 39 244 q 59 322 44 286 q 99 382 74 357 q 145 413 117 399 q 213 431 174 426 q 156 447 176 435 q 121 476 136 458 q 97 536 100 500 q 99 614 93 572 l 103 643 q 138 744 111 703 q 213 805 164 785 q 340 825 263 825 q 463 805 419 825 q 521 744 506 785 q 528 643 536 703 l 524 614 q 498 528 517 565 q 447 466 479 490 q 365 431 414 442 q 433 407 408 425 q 468 363 457 389 q 481 307 479 338 q 476 243 482 276 l 469 193 q 435 92 463 138 q 356 17 407 46 q 224 -11 304 -11 m 231 54 q 316 85 282 54 q 357 169 350 115 l 371 269 q 355 351 379 321 q 278 383 331 382 q 192 351 225 383 q 150 268 158 318 l 136 169 q 153 87 131 118 q 231 54 176 56 m 289 468 q 369 501 333 468 q 413 589 404 533 l 419 646 q 407 729 426 694 q 331 764 388 764 q 244 728 274 764 q 208 647 215 693 l 201 590 q 219 501 193 533 q 289 468 246 468 z "},"9":{"ha":550,"x_min":24,"x_max":538,"o":"m 222 -14 q 72 33 121 -14 q 38 182 24 81 l 47 244 l 154 244 l 143 168 q 158 83 135 110 q 231 56 181 56 q 317 88 282 56 q 360 172 351 121 l 389 378 q 317 324 360 342 q 226 306 275 306 q 139 326 176 306 q 84 390 101 347 q 75 499 67 433 l 92 621 q 131 728 100 682 q 215 800 161 774 q 342 826 268 826 q 463 800 418 826 q 522 725 507 774 q 528 610 538 676 l 468 186 q 388 38 454 89 q 222 -14 321 -14 m 278 375 q 359 403 324 375 q 401 476 394 431 l 424 635 q 407 728 432 697 q 331 760 382 758 q 246 729 282 760 q 201 635 210 699 l 181 488 q 202 403 172 431 q 278 375 232 376 z "},"\r":{"ha":833,"x_min":0,"x_max":0,"o":""}," ":{"ha":250,"x_min":0,"x_max":0,"o":""}," ":{"ha":250,"x_min":0,"x_max":0,"o":""},"A":{"ha":522,"x_min":-35,"x_max":451,"o":"m -35 0 l 253 821 l 399 821 l 451 0 l 333 0 l 321 181 l 142 181 l 79 0 l -35 0 m 153 236 l 326 236 l 306 704 l 153 236 z "},"А":{"ha":522,"x_min":-35,"x_max":451,"o":"m -35 0 l 253 821 l 399 821 l 451 0 l 333 0 l 321 181 l 142 181 l 79 0 l -35 0 m 153 236 l 326 236 l 306 704 l 153 236 z "},"Æ":{"ha":760,"x_min":-43,"x_max":758,"o":"m -43 0 l 344 821 l 758 821 l 747 744 l 482 744 l 447 469 l 679 469 l 667 386 l 436 386 l 397 75 l 669 75 l 657 0 l 269 0 l 294 181 l 156 181 l 71 0 l -43 0 m 172 236 l 308 236 l 379 682 l 383 704 l 376 685 l 172 236 z "},"Á":{"ha":522,"x_min":-35,"x_max":481,"o":"m -35 0 l 253 821 l 399 821 l 451 0 l 333 0 l 321 181 l 142 181 l 79 0 l -35 0 m 153 236 l 326 236 l 306 704 l 153 236 m 250 881 l 376 1000 l 481 1000 l 315 881 l 250 881 z "},"Ă":{"ha":522,"x_min":-35,"x_max":496,"o":"m -35 0 l 253 821 l 399 821 l 451 0 l 333 0 l 321 181 l 142 181 l 79 0 l -35 0 m 153 236 l 326 236 l 306 704 l 153 236 m 333 872 q 266 885 292 872 q 228 918 240 899 q 213 960 215 938 q 211 1000 210 982 l 272 1000 q 291 944 271 963 q 343 926 311 926 q 401 944 376 926 q 436 1000 426 961 l 497 1000 q 472 940 492 969 q 419 892 453 911 q 333 872 386 872 z "},"Ắ":{"ha":522,"x_min":-35,"x_max":465,"o":"m -35 0 l 253 821 l 399 821 l 451 0 l 333 0 l 321 181 l 142 181 l 79 0 l -35 0 m 153 236 l 326 236 l 306 704 l 153 236 m 333 872 q 268 888 289 872 q 243 926 247 904 q 240 968 239 949 l 300 968 q 310 935 297 946 q 342 924 322 924 q 378 934 363 924 q 397 968 393 944 l 458 968 q 422 901 453 931 q 333 872 392 872 m 301 990 l 364 1088 l 467 1088 l 368 990 l 301 990 z "},"Ặ":{"ha":522,"x_min":-35,"x_max":496,"o":"m -35 0 l 253 821 l 399 821 l 451 0 l 333 0 l 321 181 l 142 181 l 79 0 l -35 0 m 153 236 l 326 236 l 306 704 l 153 236 m 203 -157 q 166 -142 181 -157 q 151 -107 151 -128 q 166 -74 151 -87 q 203 -60 181 -60 q 238 -74 224 -60 q 253 -107 253 -87 q 238 -142 253 -128 q 203 -157 224 -157 m 333 872 q 266 885 292 872 q 228 918 240 899 q 213 960 215 938 q 211 1000 210 982 l 272 1000 q 291 944 271 963 q 343 926 311 926 q 401 944 376 926 q 436 1000 426 961 l 497 1000 q 472 940 492 969 q 419 892 453 911 q 333 872 386 872 z "},"Ằ":{"ha":522,"x_min":-35,"x_max":457,"o":"m -35 0 l 253 821 l 399 821 l 451 0 l 333 0 l 321 181 l 142 181 l 79 0 l -35 0 m 153 236 l 326 236 l 306 704 l 153 236 m 333 872 q 268 888 289 872 q 242 926 247 904 q 240 968 238 949 l 300 968 q 310 935 297 946 q 342 924 322 924 q 378 934 363 924 q 397 968 393 944 l 457 968 q 422 901 451 931 q 333 872 392 872 m 331 990 l 253 1088 l 354 1088 l 397 990 l 331 990 z "},"Ẳ":{"ha":522,"x_min":-35,"x_max":457,"o":"m -35 0 l 253 821 l 399 821 l 451 0 l 333 0 l 321 181 l 142 181 l 79 0 l -35 0 m 153 236 l 326 236 l 306 704 l 153 236 m 333 872 q 268 888 289 872 q 243 926 247 904 q 240 968 239 949 l 300 968 q 310 935 297 946 q 342 924 322 924 q 378 934 363 924 q 397 968 393 944 l 458 968 q 422 901 453 931 q 333 872 392 872 m 324 982 l 326 1001 q 338 1022 328 1017 q 358 1033 349 1028 q 369 1051 368 1039 l 371 1058 q 369 1074 371 1067 q 356 1081 367 1081 q 336 1060 340 1081 l 288 1068 q 367 1121 300 1121 q 419 1103 404 1121 q 433 1056 433 1086 l 433 1053 q 423 1024 431 1032 q 406 1014 415 1017 q 390 1008 397 1011 q 383 996 383 1006 l 382 982 l 324 982 z "},"Ẵ":{"ha":522,"x_min":-35,"x_max":476,"o":"m -35 0 l 253 821 l 399 821 l 451 0 l 333 0 l 321 181 l 142 181 l 79 0 l -35 0 m 153 236 l 326 236 l 306 704 l 153 236 m 333 872 q 268 888 289 872 q 242 926 247 904 q 240 968 238 949 l 300 968 q 310 935 297 946 q 342 924 322 924 q 378 934 363 924 q 397 968 393 944 l 457 968 q 422 901 451 931 q 333 872 392 872 m 399 993 q 372 999 383 993 q 347 1013 361 1004 q 331 1024 340 1018 q 308 1029 321 1029 q 286 1019 294 1029 q 274 994 278 1008 l 243 994 q 269 1054 249 1031 q 315 1078 289 1078 q 343 1072 331 1078 q 368 1060 356 1067 q 388 1049 378 1053 q 406 1044 397 1044 q 428 1053 419 1044 q 440 1076 436 1063 l 476 1076 q 446 1015 469 1036 q 399 993 422 993 z "},"Ǎ":{"ha":522,"x_min":-35,"x_max":514,"o":"m -35 0 l 253 821 l 399 821 l 451 0 l 333 0 l 321 181 l 142 181 l 79 0 l -35 0 m 153 236 l 326 236 l 306 704 l 153 236 m 300 875 l 193 1003 l 264 1003 l 342 925 l 443 1003 l 513 1003 l 367 875 l 300 875 z "},"Â":{"ha":522,"x_min":-35,"x_max":496,"o":"m -35 0 l 253 821 l 399 821 l 451 0 l 333 0 l 321 181 l 142 181 l 79 0 l -35 0 m 153 236 l 326 236 l 306 704 l 153 236 m 175 875 l 321 1003 l 388 1003 l 496 875 l 426 875 l 347 953 l 247 875 l 175 875 z "},"Ấ":{"ha":522,"x_min":-35,"x_max":618,"o":"m -35 0 l 253 821 l 399 821 l 451 0 l 333 0 l 321 181 l 142 181 l 79 0 l -35 0 m 153 236 l 326 236 l 306 704 l 153 236 m 214 869 l 319 971 l 381 971 l 457 869 l 393 869 l 344 924 l 281 869 l 214 869 m 454 929 l 517 1026 l 618 1026 l 519 929 l 454 929 z "},"Ậ":{"ha":522,"x_min":-35,"x_max":496,"o":"m -35 0 l 253 821 l 399 821 l 451 0 l 333 0 l 321 181 l 142 181 l 79 0 l -35 0 m 153 236 l 326 236 l 306 704 l 153 236 m 203 -157 q 166 -142 181 -157 q 151 -107 151 -128 q 166 -74 151 -87 q 203 -60 181 -60 q 238 -74 224 -60 q 253 -107 253 -87 q 238 -142 253 -128 q 203 -157 224 -157 m 175 875 l 321 1003 l 388 1003 l 496 875 l 426 875 l 347 953 l 247 875 l 175 875 z "},"Ầ":{"ha":522,"x_min":-35,"x_max":550,"o":"m -35 0 l 253 821 l 399 821 l 451 0 l 333 0 l 321 181 l 142 181 l 79 0 l -35 0 m 153 236 l 326 236 l 306 704 l 153 236 m 214 869 l 319 971 l 381 971 l 457 869 l 393 869 l 344 924 l 281 869 l 214 869 m 483 929 l 406 1026 l 508 1026 l 550 929 l 483 929 z "},"Ẩ":{"ha":522,"x_min":-35,"x_max":586,"o":"m -35 0 l 253 821 l 399 821 l 451 0 l 333 0 l 321 181 l 142 181 l 79 0 l -35 0 m 153 236 l 326 236 l 306 704 l 153 236 m 214 869 l 319 971 l 381 971 l 457 869 l 393 869 l 344 924 l 281 869 l 214 869 m 476 921 l 479 942 q 492 961 482 956 q 512 972 501 967 q 522 990 522 978 l 524 999 q 523 1013 525 1006 q 510 1021 521 1021 q 488 1000 493 1021 l 440 1008 q 467 1047 447 1033 q 518 1060 486 1060 q 572 1043 557 1060 q 583 996 586 1026 l 583 992 q 574 963 581 971 q 558 953 567 956 q 542 947 549 950 q 535 935 536 944 l 533 921 l 476 921 z "},"Ẫ":{"ha":522,"x_min":-35,"x_max":474,"o":"m -35 0 l 253 821 l 399 821 l 451 0 l 333 0 l 321 181 l 142 181 l 79 0 l -35 0 m 153 236 l 326 236 l 306 704 l 153 236 m 214 869 l 319 971 l 381 971 l 457 869 l 393 869 l 344 924 l 281 869 l 214 869 m 394 992 q 369 997 381 992 q 347 1011 358 1003 q 327 1022 338 1017 q 304 1028 317 1028 q 285 1019 293 1028 q 272 993 276 1010 l 240 993 q 266 1055 246 1032 q 314 1078 286 1078 q 340 1072 328 1078 q 364 1058 351 1065 q 384 1048 375 1053 q 404 1043 393 1043 q 426 1051 417 1043 q 439 1074 435 1060 l 474 1074 q 456 1030 468 1049 q 427 1001 443 1011 q 394 992 411 992 z "},"Ä":{"ha":522,"x_min":-35,"x_max":467,"o":"m -35 0 l 253 821 l 399 821 l 451 0 l 333 0 l 321 181 l 142 181 l 79 0 l -35 0 m 153 236 l 326 236 l 306 704 l 153 236 m 272 889 q 237 903 251 889 q 222 939 222 918 q 237 973 222 960 q 272 986 251 986 q 309 973 294 986 q 324 939 324 960 q 309 903 324 918 q 272 889 294 889 m 417 889 q 380 903 394 889 q 365 939 365 918 q 380 973 365 960 q 417 986 394 986 q 452 973 438 986 q 467 939 467 960 q 452 903 467 918 q 417 889 438 889 z "},"Ạ":{"ha":522,"x_min":-35,"x_max":451,"o":"m -35 0 l 253 821 l 399 821 l 451 0 l 333 0 l 321 181 l 142 181 l 79 0 l -35 0 m 153 236 l 326 236 l 306 704 l 153 236 m 203 -157 q 166 -142 181 -157 q 151 -107 151 -128 q 166 -74 151 -87 q 203 -60 181 -60 q 238 -74 224 -60 q 253 -107 253 -87 q 238 -142 253 -128 q 203 -157 224 -157 z "},"À":{"ha":522,"x_min":-35,"x_max":451,"o":"m -35 0 l 253 821 l 399 821 l 451 0 l 333 0 l 321 181 l 142 181 l 79 0 l -35 0 m 153 236 l 326 236 l 306 704 l 153 236 m 329 881 l 186 997 l 292 997 l 400 881 l 329 881 z "},"Ả":{"ha":522,"x_min":-35,"x_max":451,"o":"m -35 0 l 253 821 l 399 821 l 451 0 l 333 0 l 321 181 l 142 181 l 79 0 l -35 0 m 153 236 l 326 236 l 306 704 l 153 236 m 306 858 l 308 888 q 326 915 311 907 q 357 930 342 922 q 374 957 372 938 l 374 967 q 370 993 375 981 q 346 1006 365 1006 q 310 974 318 1006 l 258 982 q 292 1031 268 1014 q 357 1047 315 1047 q 422 1025 403 1047 q 436 963 440 1003 l 436 958 q 423 920 433 932 q 399 904 413 908 q 376 895 386 900 q 365 878 367 890 l 364 858 l 306 858 z "},"Ā":{"ha":522,"x_min":-35,"x_max":481,"o":"m -35 0 l 253 821 l 399 821 l 451 0 l 333 0 l 321 181 l 142 181 l 79 0 l -35 0 m 153 236 l 326 236 l 306 704 l 153 236 m 208 901 l 215 958 l 481 958 l 474 901 l 208 901 z "},"Ą":{"ha":522,"x_min":-35,"x_max":451,"o":"m -35 0 l 253 821 l 399 821 l 451 0 l 333 0 l 321 181 l 142 181 l 79 0 l -35 0 m 153 236 l 326 236 l 306 704 l 153 236 m 369 -192 q 301 -167 326 -192 q 281 -108 275 -143 q 319 -39 286 -69 q 392 1 353 -8 l 440 0 q 379 -42 401 -15 q 354 -94 357 -68 q 366 -135 350 -121 q 399 -149 382 -149 q 420 -146 411 -149 q 435 -140 429 -143 l 444 -174 q 417 -185 435 -178 q 369 -192 399 -192 z "},"Å":{"ha":522,"x_min":-35,"x_max":467,"o":"m -35 0 l 253 821 l 399 821 l 451 0 l 333 0 l 321 181 l 142 181 l 79 0 l -35 0 m 153 236 l 326 236 l 306 704 l 153 236 m 332 856 q 256 887 283 856 q 235 961 229 918 q 278 1037 242 1006 q 363 1068 314 1068 q 440 1037 413 1068 q 461 961 467 1006 q 417 887 454 918 q 332 856 379 856 m 339 903 q 388 919 368 903 q 410 961 407 936 q 399 1005 414 989 q 356 1021 383 1021 q 309 1005 328 1021 q 286 961 290 989 q 297 919 283 936 q 339 903 311 903 z "},"Ã":{"ha":522,"x_min":-35,"x_max":497,"o":"m -35 0 l 253 821 l 399 821 l 451 0 l 333 0 l 321 181 l 142 181 l 79 0 l -35 0 m 153 236 l 326 236 l 306 704 l 153 236 m 397 888 q 365 894 378 888 q 333 913 351 901 q 308 929 322 921 q 278 938 294 938 q 248 925 261 938 q 229 889 235 913 l 192 889 q 225 962 200 933 q 286 990 250 990 q 323 983 307 990 q 354 964 339 975 q 380 949 368 956 q 406 943 392 943 q 437 954 425 943 q 456 988 449 965 l 497 988 q 459 915 488 942 q 397 888 431 888 z "},"B":{"ha":569,"x_min":31,"x_max":557,"o":"m 31 0 l 146 821 l 410 821 q 519 787 481 821 q 547 683 557 753 l 533 586 q 513 517 528 547 q 475 469 497 488 q 426 444 453 451 q 381 436 400 438 l 381 438 q 431 431 407 438 q 472 408 456 425 q 499 358 490 389 q 500 286 507 328 l 485 169 q 447 63 475 100 q 377 13 419 26 q 279 0 335 0 l 31 0 m 146 60 l 265 60 q 317 68 294 60 q 356 102 340 76 q 376 176 371 128 l 393 285 q 375 369 403 349 q 301 390 347 390 l 193 390 l 146 60 m 203 460 l 310 460 q 390 488 360 460 q 428 574 419 517 l 442 665 q 427 737 449 714 q 371 760 406 760 l 244 760 l 203 460 z "},"Б":{"ha":536,"x_min":31,"x_max":525,"o":"m 31 0 l 147 821 l 525 821 l 514 743 l 242 743 l 222 604 l 357 604 q 445 588 411 604 q 492 533 479 571 q 496 433 506 496 l 464 207 q 440 106 456 146 q 399 42 424 65 q 339 10 374 19 q 258 0 304 0 l 31 0 m 246 58 q 307 74 285 58 q 340 117 329 89 q 354 179 351 144 l 389 421 q 391 478 394 451 q 370 522 388 506 q 310 538 353 538 l 213 538 l 146 58 l 246 58 z "},"C":{"ha":556,"x_min":33,"x_max":549,"o":"m 232 -17 q 122 -2 168 -17 q 55 58 76 13 q 47 196 33 104 l 111 649 q 156 765 122 725 q 240 818 189 804 q 353 832 290 832 q 462 817 417 832 q 528 764 507 803 q 538 649 549 725 l 517 499 l 410 499 l 431 651 q 428 726 439 701 q 395 758 418 750 q 342 765 372 765 q 286 758 311 765 q 245 726 261 750 q 221 651 229 701 l 153 163 q 156 88 146 113 q 188 56 165 64 q 242 49 211 49 q 297 56 272 49 q 339 88 322 64 q 363 163 356 113 l 381 296 l 488 296 l 474 196 q 428 58 461 103 q 346 -2 396 13 q 232 -17 296 -17 z "},"Ć":{"ha":556,"x_min":33,"x_max":549,"o":"m 232 -17 q 122 -2 168 -17 q 55 58 76 13 q 47 196 33 104 l 111 649 q 156 765 122 725 q 240 818 189 804 q 353 832 290 832 q 462 817 417 832 q 528 764 507 803 q 538 649 549 725 l 517 499 l 410 499 l 431 651 q 428 726 439 701 q 395 758 418 750 q 342 765 372 765 q 286 758 311 765 q 245 726 261 750 q 221 651 229 701 l 153 163 q 156 88 146 113 q 188 56 165 64 q 242 49 211 49 q 297 56 272 49 q 339 88 322 64 q 363 163 356 113 l 381 296 l 488 296 l 474 196 q 428 58 461 103 q 346 -2 396 13 q 232 -17 296 -17 m 265 881 l 392 1000 l 496 1000 l 331 881 l 265 881 z "},"Č":{"ha":556,"x_min":33,"x_max":549,"o":"m 232 -17 q 122 -2 168 -17 q 55 58 76 13 q 47 196 33 104 l 111 649 q 156 765 122 725 q 240 818 189 804 q 353 832 290 832 q 462 817 417 832 q 528 764 507 803 q 538 649 549 725 l 517 499 l 410 499 l 431 651 q 428 726 439 701 q 395 758 418 750 q 342 765 372 765 q 286 758 311 765 q 245 726 261 750 q 221 651 229 701 l 153 163 q 156 88 146 113 q 188 56 165 64 q 242 49 211 49 q 297 56 272 49 q 339 88 322 64 q 363 163 356 113 l 381 296 l 488 296 l 474 196 q 428 58 461 103 q 346 -2 396 13 q 232 -17 296 -17 m 317 875 l 210 1003 l 281 1003 l 358 925 l 460 1003 l 529 1003 l 383 875 l 317 875 z "},"Ç":{"ha":556,"x_min":33,"x_max":549,"o":"m 232 -17 q 122 -2 168 -17 q 55 58 76 13 q 47 196 33 104 l 111 649 q 156 765 122 725 q 240 818 189 804 q 353 832 290 832 q 462 817 417 832 q 528 764 507 803 q 538 649 549 725 l 517 499 l 410 499 l 431 651 q 428 726 439 701 q 395 758 418 750 q 342 765 372 765 q 286 758 311 765 q 245 726 261 750 q 221 651 229 701 l 153 163 q 156 88 146 113 q 188 56 165 64 q 242 49 211 49 q 297 56 272 49 q 339 88 322 64 q 363 163 356 113 l 381 296 l 488 296 l 474 196 q 428 58 461 103 q 346 -2 396 13 q 232 -17 296 -17 m 193 -204 q 151 -197 169 -204 q 124 -183 133 -189 l 144 -146 q 167 -157 151 -151 q 194 -162 182 -162 q 235 -151 221 -162 q 251 -122 250 -139 q 217 -86 257 -86 q 198 -90 207 -86 q 181 -99 189 -93 l 151 -81 l 207 0 l 251 0 l 204 -68 l 197 -64 q 220 -56 207 -58 q 246 -53 233 -53 q 300 -74 283 -53 q 313 -121 317 -96 q 276 -181 308 -157 q 193 -204 244 -204 z "},"Ċ":{"ha":556,"x_min":33,"x_max":549,"o":"m 232 -17 q 122 -2 168 -17 q 55 58 76 13 q 47 196 33 104 l 111 649 q 156 765 122 725 q 240 818 189 804 q 353 832 290 832 q 462 817 417 832 q 528 764 507 803 q 538 649 549 725 l 517 499 l 410 499 l 431 651 q 428 726 439 701 q 395 758 418 750 q 342 765 372 765 q 286 758 311 765 q 245 726 261 750 q 221 651 229 701 l 153 163 q 156 88 146 113 q 188 56 165 64 q 242 49 211 49 q 297 56 272 49 q 339 88 322 64 q 363 163 356 113 l 381 296 l 488 296 l 474 196 q 428 58 461 103 q 346 -2 396 13 q 232 -17 296 -17 m 371 885 q 329 901 347 885 q 311 943 311 918 q 329 984 311 967 q 372 1001 347 1001 q 415 984 397 1001 q 432 943 432 967 q 415 901 433 918 q 371 885 396 885 z "},"Ч":{"ha":533,"x_min":46,"x_max":521,"o":"m 297 0 l 331 229 q 272 201 311 215 q 190 188 233 188 q 88 210 119 188 q 51 276 56 233 q 53 372 46 318 l 117 821 l 222 821 l 158 371 q 166 289 151 317 q 238 261 181 261 q 305 274 281 261 q 339 294 329 288 l 414 821 l 521 821 l 404 0 l 297 0 z "},"D":{"ha":575,"x_min":31,"x_max":560,"o":"m 31 0 l 147 821 l 404 821 q 495 805 460 821 q 545 753 531 789 q 551 657 560 717 l 485 178 q 446 69 475 108 q 374 15 417 31 q 274 0 331 0 l 31 0 m 151 58 l 268 58 q 338 82 310 58 q 376 171 367 106 l 443 644 q 429 733 451 710 q 365 757 407 757 l 249 757 l 151 58 z "},"Ď":{"ha":575,"x_min":31,"x_max":560,"o":"m 31 0 l 147 821 l 404 821 q 495 805 460 821 q 545 753 531 789 q 551 657 560 717 l 485 178 q 446 69 475 108 q 374 15 417 31 q 274 0 331 0 l 31 0 m 151 58 l 268 58 q 338 82 310 58 q 376 171 367 106 l 443 644 q 429 733 451 710 q 365 757 407 757 l 249 757 l 151 58 m 326 875 l 219 1003 l 290 1003 l 368 925 l 469 1003 l 539 1003 l 393 875 l 326 875 z "},"Đ":{"ha":608,"x_min":17,"x_max":581,"o":"m 39 0 l 156 821 l 425 821 q 515 805 479 821 q 565 753 550 789 q 571 657 581 717 l 504 178 q 467 69 496 108 q 394 15 438 31 q 294 0 350 0 l 39 0 m 17 368 l 25 435 l 286 435 l 278 368 l 17 368 m 158 58 l 282 58 q 357 82 328 58 q 396 171 386 106 l 463 644 q 449 733 472 710 q 379 757 426 757 l 256 757 l 158 58 z "},"Д":{"ha":774,"x_min":-35,"x_max":699,"o":"m -35 -151 l -3 69 l 65 69 q 121 101 96 72 q 160 189 146 131 q 189 315 174 249 q 219 449 204 381 q 249 583 235 517 q 276 710 264 650 q 299 821 289 771 l 676 821 l 572 69 l 699 69 l 667 -151 l 576 -151 l 596 -18 l 75 -18 l 56 -151 l -35 -151 m 213 69 l 465 69 l 560 743 l 388 743 l 272 204 q 251 128 264 168 q 213 69 238 89 z "},"Δ":{"ha":742,"x_min":29,"x_max":667,"o":"m 29 0 l 342 813 l 454 813 l 667 0 l 29 0 m 168 86 l 539 86 l 378 679 l 168 86 z "},"Ђ":{"ha":624,"x_min":71,"x_max":589,"o":"m 107 0 l 213 743 l 71 743 l 82 821 l 474 821 l 463 743 l 319 743 l 288 517 q 344 564 304 542 q 442 586 385 586 q 535 567 501 586 q 578 510 568 549 q 581 411 589 471 l 556 235 q 524 108 544 156 q 476 38 504 61 q 412 7 447 14 q 336 0 376 0 q 312 3 325 0 q 290 8 299 6 l 299 60 q 313 59 306 60 q 325 58 319 58 q 408 96 379 58 q 446 210 436 133 l 474 404 q 465 490 481 461 q 390 518 450 518 q 317 497 343 518 q 279 453 290 475 l 215 0 l 107 0 z "},"Ѕ":{"ha":526,"x_min":18,"x_max":524,"o":"m 224 -10 q 101 12 149 -10 q 36 86 54 33 q 32 232 18 139 l 39 279 l 149 279 l 140 225 q 140 124 132 160 q 169 75 147 89 q 225 61 192 61 q 302 92 268 61 q 347 206 336 124 q 342 295 357 265 q 294 343 328 325 q 208 383 261 361 q 136 429 167 403 q 93 498 106 456 q 89 604 81 540 q 127 727 100 679 q 203 799 154 775 q 329 822 253 822 q 476 774 429 822 q 511 638 524 726 l 499 544 q 445 544 472 544 q 393 544 418 544 l 401 608 q 391 706 411 674 q 319 738 371 738 q 236 706 264 738 q 199 607 208 674 q 206 528 192 557 q 250 482 221 499 q 318 450 279 465 q 412 401 376 426 q 460 335 447 375 q 461 219 472 294 q 415 84 450 135 q 331 12 381 33 q 224 -10 281 -10 z "},"Џ":{"ha":571,"x_min":31,"x_max":558,"o":"m 182 -137 l 200 0 l 31 0 l 146 821 l 258 821 l 154 76 l 343 76 l 447 821 l 558 821 l 443 0 l 272 0 l 254 -137 l 182 -137 z "},"E":{"ha":474,"x_min":31,"x_max":508,"o":"m 31 0 l 147 821 l 508 821 l 496 744 l 247 744 l 208 469 l 411 469 l 399 386 l 197 386 l 154 75 l 403 75 l 392 0 l 31 0 z "},"É":{"ha":474,"x_min":31,"x_max":508,"o":"m 31 0 l 147 821 l 508 821 l 496 744 l 247 744 l 208 469 l 411 469 l 399 386 l 197 386 l 154 75 l 403 75 l 392 0 l 31 0 m 246 881 l 372 1000 l 476 1000 l 311 881 l 246 881 z "},"Ě":{"ha":474,"x_min":31,"x_max":510,"o":"m 31 0 l 147 821 l 508 821 l 496 744 l 247 744 l 208 469 l 411 469 l 399 386 l 197 386 l 154 75 l 403 75 l 392 0 l 31 0 m 297 875 l 190 1003 l 261 1003 l 339 925 l 440 1003 l 510 1003 l 364 875 l 297 875 z "},"Ê":{"ha":474,"x_min":31,"x_max":508,"o":"m 31 0 l 147 821 l 508 821 l 496 744 l 247 744 l 208 469 l 411 469 l 399 386 l 197 386 l 154 75 l 403 75 l 392 0 l 31 0 m 171 875 l 317 1003 l 383 1003 l 492 875 l 422 875 l 343 953 l 243 875 l 171 875 z "},"Ế":{"ha":474,"x_min":31,"x_max":614,"o":"m 31 0 l 147 821 l 508 821 l 496 744 l 247 744 l 208 469 l 411 469 l 399 386 l 197 386 l 154 75 l 403 75 l 392 0 l 31 0 m 210 869 l 315 971 l 376 971 l 453 869 l 389 869 l 340 924 l 276 869 l 210 869 m 450 929 l 513 1026 l 614 1026 l 515 929 l 450 929 z "},"Ệ":{"ha":474,"x_min":31,"x_max":508,"o":"m 31 0 l 147 821 l 508 821 l 496 744 l 247 744 l 208 469 l 411 469 l 399 386 l 197 386 l 154 75 l 403 75 l 392 0 l 31 0 m 174 -157 q 137 -142 151 -157 q 122 -107 122 -128 q 137 -74 122 -87 q 174 -60 151 -60 q 209 -74 194 -60 q 224 -107 224 -87 q 209 -142 224 -128 q 174 -157 194 -157 m 171 875 l 317 1003 l 383 1003 l 492 875 l 422 875 l 343 953 l 243 875 l 171 875 z "},"Ề":{"ha":474,"x_min":31,"x_max":546,"o":"m 31 0 l 147 821 l 508 821 l 496 744 l 247 744 l 208 469 l 411 469 l 399 386 l 197 386 l 154 75 l 403 75 l 392 0 l 31 0 m 210 869 l 315 971 l 376 971 l 453 869 l 389 869 l 340 924 l 276 869 l 210 869 m 479 929 l 401 1026 l 504 1026 l 546 929 l 479 929 z "},"Ể":{"ha":474,"x_min":31,"x_max":582,"o":"m 31 0 l 147 821 l 508 821 l 496 744 l 247 744 l 208 469 l 411 469 l 399 386 l 197 386 l 154 75 l 403 75 l 392 0 l 31 0 m 210 869 l 315 971 l 376 971 l 453 869 l 389 869 l 340 924 l 276 869 l 210 869 m 472 921 l 475 942 q 488 961 478 956 q 508 972 497 967 q 518 990 518 978 l 519 999 q 519 1013 521 1006 q 506 1021 517 1021 q 483 1000 489 1021 l 436 1008 q 463 1047 443 1033 q 514 1060 482 1060 q 567 1043 553 1060 q 579 996 582 1026 l 579 992 q 569 963 576 971 q 553 953 563 956 q 538 947 544 950 q 531 935 532 944 l 529 921 l 472 921 z "},"Ễ":{"ha":474,"x_min":31,"x_max":508,"o":"m 31 0 l 147 821 l 508 821 l 496 744 l 247 744 l 208 469 l 411 469 l 399 386 l 197 386 l 154 75 l 403 75 l 392 0 l 31 0 m 210 869 l 315 971 l 376 971 l 453 869 l 389 869 l 340 924 l 276 869 l 210 869 m 390 992 q 365 997 376 992 q 343 1011 354 1003 q 323 1022 333 1017 q 300 1028 313 1028 q 281 1019 289 1028 q 268 993 272 1010 l 236 993 q 262 1055 242 1032 q 310 1078 282 1078 q 335 1072 324 1078 q 360 1058 347 1065 q 380 1048 371 1053 q 400 1043 389 1043 q 422 1051 413 1043 q 435 1074 431 1060 l 469 1074 q 451 1030 464 1049 q 423 1001 439 1011 q 390 992 407 992 z "},"Ë":{"ha":474,"x_min":31,"x_max":508,"o":"m 31 0 l 147 821 l 508 821 l 496 744 l 247 744 l 208 469 l 411 469 l 399 386 l 197 386 l 154 75 l 403 75 l 392 0 l 31 0 m 268 889 q 233 903 247 889 q 218 939 218 918 q 233 973 218 960 q 268 986 247 986 q 305 973 290 986 q 319 939 319 960 q 305 903 319 918 q 268 889 290 889 m 413 889 q 376 903 390 889 q 361 939 361 918 q 376 973 361 960 q 413 986 390 986 q 448 973 433 986 q 463 939 463 960 q 448 903 463 918 q 413 889 433 889 z "},"Ė":{"ha":474,"x_min":31,"x_max":508,"o":"m 31 0 l 147 821 l 508 821 l 496 744 l 247 744 l 208 469 l 411 469 l 399 386 l 197 386 l 154 75 l 403 75 l 392 0 l 31 0 m 351 885 q 310 901 328 885 q 292 943 292 918 q 310 984 292 967 q 353 1001 328 1001 q 395 984 378 1001 q 413 943 413 967 q 395 901 414 918 q 351 885 376 885 z "},"Ẹ":{"ha":474,"x_min":31,"x_max":508,"o":"m 31 0 l 147 821 l 508 821 l 496 744 l 247 744 l 208 469 l 411 469 l 399 386 l 197 386 l 154 75 l 403 75 l 392 0 l 31 0 m 174 -157 q 137 -142 151 -157 q 122 -107 122 -128 q 137 -74 122 -87 q 174 -60 151 -60 q 209 -74 194 -60 q 224 -107 224 -87 q 209 -142 224 -128 q 174 -157 194 -157 z "},"Ф":{"ha":685,"x_min":29,"x_max":674,"o":"m 239 -22 l 254 92 l 218 92 q 74 135 118 92 q 43 278 29 178 l 82 551 q 144 680 93 636 q 293 724 196 724 l 343 724 l 357 821 l 464 821 l 450 724 l 496 724 q 633 682 593 724 q 661 549 674 640 l 624 281 q 552 132 610 172 q 394 92 494 92 l 361 92 l 344 -22 l 239 -22 m 240 151 l 263 151 l 335 660 l 313 660 q 228 631 260 660 q 188 539 197 603 l 150 272 q 164 180 140 208 q 240 151 188 151 m 388 151 q 474 177 442 151 q 515 272 506 203 l 553 538 q 538 633 564 607 q 458 660 513 660 l 442 660 l 369 151 l 388 151 z "},"È":{"ha":474,"x_min":31,"x_max":508,"o":"m 31 0 l 147 821 l 508 821 l 496 744 l 247 744 l 208 469 l 411 469 l 399 386 l 197 386 l 154 75 l 403 75 l 392 0 l 31 0 m 325 881 l 182 997 l 288 997 l 396 881 l 325 881 z "},"Ẻ":{"ha":474,"x_min":31,"x_max":508,"o":"m 31 0 l 147 821 l 508 821 l 496 744 l 247 744 l 208 469 l 411 469 l 399 386 l 197 386 l 154 75 l 403 75 l 392 0 l 31 0 m 301 858 l 304 888 q 322 915 307 907 q 353 930 338 922 q 369 957 368 938 l 369 967 q 366 993 371 981 q 342 1006 361 1006 q 306 974 314 1006 l 254 982 q 288 1031 264 1014 q 353 1047 311 1047 q 417 1025 399 1047 q 432 963 436 1003 l 432 958 q 419 920 429 932 q 395 904 408 908 q 372 895 382 900 q 361 878 363 890 l 360 858 l 301 858 z "},"Л":{"ha":613,"x_min":-39,"x_max":599,"o":"m -39 0 l -29 58 q 20 85 -3 58 q 54 163 43 113 l 193 821 l 599 821 l 482 0 l 375 0 l 479 743 l 288 743 l 157 133 q 146 91 153 114 q 126 49 139 68 q 89 15 113 29 q 26 0 65 1 l -39 0 z "},"М":{"ha":740,"x_min":31,"x_max":726,"o":"m 31 0 l 147 821 l 278 821 l 349 190 l 600 821 l 726 821 l 610 0 l 515 0 l 607 650 l 358 0 l 283 0 l 218 650 l 126 0 l 31 0 z "},"Ē":{"ha":474,"x_min":31,"x_max":508,"o":"m 31 0 l 147 821 l 508 821 l 496 744 l 247 744 l 208 469 l 411 469 l 399 386 l 197 386 l 154 75 l 403 75 l 392 0 l 31 0 m 204 901 l 211 958 l 476 958 l 469 901 l 204 901 z "},"Н":{"ha":586,"x_min":31,"x_max":574,"o":"m 31 0 l 147 821 l 254 821 l 204 468 l 417 468 l 467 821 l 574 821 l 457 0 l 350 0 l 406 388 l 193 388 l 138 0 l 31 0 z "},"Ŋ":{"ha":583,"x_min":31,"x_max":571,"o":"m 260 -246 q 231 -246 249 -246 q 201 -244 214 -246 l 213 -168 l 257 -169 q 319 -153 300 -169 q 346 -89 339 -137 l 358 1 l 210 576 l 126 0 l 31 0 l 147 821 l 242 821 l 390 218 l 475 821 l 571 821 l 446 -57 q 418 -170 438 -129 q 361 -228 399 -211 q 260 -246 324 -246 z "},"Ę":{"ha":474,"x_min":31,"x_max":508,"o":"m 31 0 l 147 821 l 508 821 l 496 744 l 247 744 l 208 469 l 411 469 l 399 386 l 197 386 l 154 75 l 403 75 l 392 0 l 31 0 m 311 -178 q 242 -153 268 -178 q 222 -94 217 -129 q 261 -25 228 -56 q 333 15 294 6 l 382 14 q 321 -28 343 -1 q 296 -81 299 -54 q 308 -121 292 -107 q 340 -135 324 -135 q 362 -132 353 -135 q 376 -126 371 -129 l 386 -160 q 358 -171 376 -164 q 311 -178 340 -178 z "},"Р":{"ha":538,"x_min":31,"x_max":561,"o":"m 31 0 l 147 821 l 413 821 q 524 787 486 821 q 551 683 561 753 l 531 535 q 504 443 524 486 q 444 374 485 400 q 332 347 403 347 l 192 347 l 143 0 l 31 0 m 200 410 l 306 410 q 385 443 356 410 q 425 549 415 476 l 438 640 q 428 731 447 703 q 375 760 410 760 l 250 760 l 200 410 z "},"Э":{"ha":558,"x_min":26,"x_max":544,"o":"m 225 -17 q 115 -2 161 -17 q 47 58 68 13 q 40 197 26 103 l 50 268 l 158 268 l 143 160 q 147 89 136 113 q 181 58 157 65 q 233 50 204 50 q 289 58 265 50 q 330 89 313 65 q 354 160 347 113 l 383 369 l 178 369 l 188 443 l 393 443 l 422 650 q 419 721 429 697 q 388 753 410 744 q 335 761 367 761 q 278 754 303 761 q 236 724 253 747 q 213 653 219 701 l 194 522 l 86 522 l 103 647 q 147 763 115 722 q 229 817 179 803 q 343 832 279 832 q 453 817 407 832 q 522 763 500 803 q 533 647 544 724 l 469 196 q 423 58 457 104 q 338 -2 389 13 q 225 -17 288 -17 z "},"С":{"ha":556,"x_min":33,"x_max":549,"o":"m 232 -17 q 122 -2 168 -17 q 55 58 76 13 q 47 196 33 104 l 111 649 q 156 765 122 725 q 240 818 189 804 q 353 832 290 832 q 462 817 417 832 q 528 764 507 803 q 538 649 549 725 l 517 499 l 410 499 l 431 651 q 428 726 439 701 q 395 758 418 750 q 342 765 372 765 q 286 758 311 765 q 245 726 261 750 q 221 651 229 701 l 153 163 q 156 88 146 113 q 188 56 165 64 q 242 49 211 49 q 297 56 272 49 q 339 88 322 64 q 363 163 356 113 l 381 296 l 488 296 l 474 196 q 428 58 461 103 q 346 -2 396 13 q 232 -17 296 -17 z "},"Ð":{"ha":608,"x_min":17,"x_max":581,"o":"m 39 0 l 156 821 l 425 821 q 515 805 479 821 q 565 753 550 789 q 571 657 581 717 l 504 178 q 467 69 496 108 q 394 15 438 31 q 294 0 350 0 l 39 0 m 17 368 l 25 435 l 286 435 l 278 368 l 17 368 m 158 58 l 282 58 q 357 82 328 58 q 396 171 386 106 l 463 644 q 449 733 472 710 q 379 757 426 757 l 256 757 l 158 58 z "},"Ẽ":{"ha":474,"x_min":31,"x_max":508,"o":"m 31 0 l 147 821 l 508 821 l 496 744 l 247 744 l 208 469 l 411 469 l 399 386 l 197 386 l 154 75 l 403 75 l 392 0 l 31 0 m 393 888 q 360 894 374 888 q 329 913 347 901 q 304 929 318 921 q 274 938 290 938 q 244 925 257 938 q 225 889 231 913 l 188 889 q 221 962 196 933 q 282 990 246 990 q 319 983 303 990 q 350 964 335 975 q 376 949 364 956 q 401 943 388 943 q 433 954 421 943 q 451 988 444 965 l 493 988 q 455 915 483 942 q 393 888 426 888 z "},"F":{"ha":464,"x_min":31,"x_max":508,"o":"m 31 0 l 147 821 l 508 821 l 496 744 l 247 744 l 208 469 l 411 469 l 399 386 l 197 386 l 143 0 l 31 0 z "},"G":{"ha":558,"x_min":33,"x_max":549,"o":"m 200 -15 q 112 -1 151 -15 q 53 55 72 13 q 44 183 33 97 l 111 649 q 153 763 121 724 q 237 817 186 803 q 350 832 288 832 q 458 817 413 832 q 526 763 504 801 q 538 649 549 724 l 522 540 l 418 540 l 433 651 q 430 724 440 700 q 397 756 419 749 q 342 764 374 764 q 284 756 310 764 q 241 724 258 749 q 217 651 224 700 l 149 163 q 151 88 142 113 q 185 56 161 64 q 240 49 208 49 q 322 78 288 49 q 364 163 357 107 l 389 331 l 293 331 l 301 394 l 501 394 l 446 0 l 367 0 l 371 75 q 360 59 365 67 q 349 46 354 51 q 291 2 326 19 q 200 -15 256 -15 z "},"Ğ":{"ha":558,"x_min":33,"x_max":549,"o":"m 200 -15 q 112 -1 151 -15 q 53 55 72 13 q 44 183 33 97 l 111 649 q 153 763 121 724 q 237 817 186 803 q 350 832 288 832 q 458 817 413 832 q 526 763 504 801 q 538 649 549 724 l 522 540 l 418 540 l 433 651 q 430 724 440 700 q 397 756 419 749 q 342 764 374 764 q 284 756 310 764 q 241 724 258 749 q 217 651 224 700 l 149 163 q 151 88 142 113 q 185 56 161 64 q 240 49 208 49 q 322 78 288 49 q 364 163 357 107 l 389 331 l 293 331 l 301 394 l 501 394 l 446 0 l 367 0 l 371 75 q 360 59 365 67 q 349 46 354 51 q 291 2 326 19 q 200 -15 256 -15 m 350 872 q 283 885 308 872 q 244 918 257 899 q 229 960 232 938 q 228 1000 226 982 l 289 1000 q 308 944 288 963 q 360 926 328 926 q 418 944 393 926 q 453 1000 443 961 l 514 1000 q 489 940 508 969 q 436 892 469 911 q 350 872 403 872 z "},"Ģ":{"ha":558,"x_min":33,"x_max":549,"o":"m 200 -15 q 112 -1 151 -15 q 53 55 72 13 q 44 183 33 97 l 111 649 q 153 763 121 724 q 237 817 186 803 q 350 832 288 832 q 458 817 413 832 q 526 763 504 801 q 538 649 549 724 l 522 540 l 418 540 l 433 651 q 430 724 440 700 q 397 756 419 749 q 342 764 374 764 q 284 756 310 764 q 241 724 258 749 q 217 651 224 700 l 149 163 q 151 88 142 113 q 185 56 161 64 q 240 49 208 49 q 322 78 288 49 q 364 163 357 107 l 389 331 l 293 331 l 301 394 l 501 394 l 446 0 l 367 0 l 371 75 q 360 59 365 67 q 349 46 354 51 q 291 2 326 19 q 200 -15 256 -15 m 139 -229 q 176 -174 163 -197 q 190 -137 190 -150 q 184 -124 190 -129 q 172 -110 178 -118 q 167 -87 167 -101 q 183 -59 168 -72 q 221 -46 199 -46 q 256 -58 243 -46 q 268 -92 269 -71 q 253 -132 267 -107 q 222 -183 240 -157 q 183 -229 203 -208 l 139 -229 z "},"Ġ":{"ha":558,"x_min":33,"x_max":549,"o":"m 200 -15 q 112 -1 151 -15 q 53 55 72 13 q 44 183 33 97 l 111 649 q 153 763 121 724 q 237 817 186 803 q 350 832 288 832 q 458 817 413 832 q 526 763 504 801 q 538 649 549 724 l 522 540 l 418 540 l 433 651 q 430 724 440 700 q 397 756 419 749 q 342 764 374 764 q 284 756 310 764 q 241 724 258 749 q 217 651 224 700 l 149 163 q 151 88 142 113 q 185 56 161 64 q 240 49 208 49 q 322 78 288 49 q 364 163 357 107 l 389 331 l 293 331 l 301 394 l 501 394 l 446 0 l 367 0 l 371 75 q 360 59 365 67 q 349 46 354 51 q 291 2 326 19 q 200 -15 256 -15 m 372 885 q 331 901 349 885 q 313 943 313 918 q 331 984 313 967 q 374 1001 349 1001 q 416 984 399 1001 q 433 943 433 967 q 416 901 435 918 q 372 885 397 885 z "},"Г":{"ha":474,"x_min":31,"x_max":511,"o":"m 31 0 l 147 821 l 511 821 l 499 743 l 247 743 l 143 0 l 31 0 z "},"ẞ":{"ha":1085,"x_min":35,"x_max":1047,"o":"m 729 -10 q 622 12 665 -10 q 560 86 578 33 q 556 232 543 139 q 559 256 557 238 q 563 279 561 275 l 672 279 q 669 252 671 271 q 664 225 667 233 q 663 124 656 160 q 692 75 671 89 q 743 61 713 61 q 825 92 790 61 q 871 206 860 124 q 866 295 881 265 q 818 343 851 325 q 732 383 785 361 q 660 429 690 403 q 617 498 629 456 q 613 604 604 540 q 651 727 624 679 q 727 799 678 775 q 853 822 776 822 q 1000 774 953 822 q 1035 638 1047 726 l 1022 544 q 969 544 996 544 q 917 544 942 544 l 925 608 q 915 706 935 674 q 843 738 894 738 q 760 706 788 738 q 722 607 732 674 q 731 526 715 556 q 777 480 747 496 q 842 450 807 464 q 935 401 900 426 q 983 335 971 375 q 985 219 996 294 q 897 41 967 92 q 729 -10 828 -10 m 222 -10 q 114 12 157 -10 q 53 86 71 33 q 49 232 35 139 q 51 256 49 238 q 56 279 54 275 l 165 279 q 162 252 164 271 q 157 225 160 233 q 156 124 149 160 q 185 75 164 89 q 236 61 206 61 q 318 92 283 61 q 364 206 353 124 q 358 295 372 265 q 311 343 344 325 q 225 383 278 361 q 152 429 182 403 q 110 498 122 456 q 106 604 97 540 q 144 727 117 679 q 219 799 171 775 q 346 822 268 822 q 493 774 446 822 q 528 638 540 726 l 515 544 q 462 544 488 544 q 408 544 436 544 l 418 608 q 407 706 428 674 q 336 738 386 738 q 253 706 281 738 q 215 607 225 674 q 224 526 208 556 q 269 480 239 496 q 333 450 299 464 q 428 401 393 426 q 476 335 464 375 q 478 219 489 294 q 390 41 460 92 q 222 -10 321 -10 z "},"Ѓ":{"ha":474,"x_min":31,"x_max":511,"o":"m 31 0 l 147 821 l 511 821 l 499 743 l 247 743 l 143 0 l 31 0 m 254 881 l 381 1000 l 485 1000 l 319 881 l 254 881 z "},"H":{"ha":586,"x_min":31,"x_max":574,"o":"m 31 0 l 147 821 l 254 821 l 204 468 l 417 468 l 467 821 l 574 821 l 457 0 l 350 0 l 406 388 l 193 388 l 138 0 l 31 0 z "},"Х":{"ha":463,"x_min":-29,"x_max":508,"o":"m -29 0 l 160 419 l 99 821 l 204 821 l 251 494 l 397 821 l 508 821 l 325 418 l 389 0 l 282 0 l 229 326 l 85 0 l -29 0 z "},"Ъ":{"ha":556,"x_min":39,"x_max":513,"o":"m 39 0 l 144 743 l 57 743 l 69 821 l 261 821 l 231 604 l 364 604 q 453 588 419 604 q 500 533 488 571 q 504 433 513 496 l 472 207 q 447 106 464 146 q 406 42 431 65 q 346 10 381 19 q 267 0 311 0 l 39 0 m 154 58 l 254 58 q 316 75 294 58 q 349 126 338 92 q 367 211 361 160 q 381 310 374 257 q 394 408 389 363 q 399 474 400 446 q 380 520 397 503 q 318 538 363 538 l 221 538 q 188 298 206 419 q 154 58 171 176 z "},"Ħ":{"ha":585,"x_min":31,"x_max":596,"o":"m 40 654 l 53 707 l 596 707 l 583 654 l 40 654 m 31 0 l 147 821 l 254 821 l 204 468 l 417 468 l 467 821 l 574 821 l 457 0 l 350 0 l 406 388 l 193 388 l 138 0 l 31 0 z "},"I":{"ha":267,"x_min":31,"x_max":254,"o":"m 31 0 l 147 821 l 254 821 l 138 0 l 31 0 z "},"І":{"ha":267,"x_min":31,"x_max":254,"o":"m 31 0 l 147 821 l 254 821 l 138 0 l 31 0 z "},"Я":{"ha":575,"x_min":-15,"x_max":561,"o":"m 447 0 l 336 0 l 388 371 l 300 371 q 261 358 278 371 q 233 322 244 344 q 210 275 221 300 l 101 0 l -15 0 l 106 282 q 155 368 131 340 q 226 399 179 396 l 228 399 q 120 442 156 401 q 94 553 85 482 l 114 683 q 172 787 124 753 q 292 821 219 821 l 561 821 l 447 0 m 397 446 l 443 760 l 314 760 q 252 738 279 760 q 218 665 225 715 l 203 557 q 216 471 193 496 q 290 446 239 446 l 397 446 z "},"Í":{"ha":267,"x_min":31,"x_max":353,"o":"m 31 0 l 147 821 l 254 821 l 138 0 l 31 0 m 122 881 l 249 1000 l 353 1000 l 188 881 l 122 881 z "},"Ǐ":{"ha":267,"x_min":31,"x_max":386,"o":"m 31 0 l 147 821 l 254 821 l 138 0 l 31 0 m 174 875 l 67 1003 l 138 1003 l 215 925 l 317 1003 l 386 1003 l 240 875 l 174 875 z "},"Î":{"ha":267,"x_min":31,"x_max":369,"o":"m 31 0 l 147 821 l 254 821 l 138 0 l 31 0 m 47 875 l 193 1003 l 260 1003 l 368 875 l 299 875 l 219 953 l 119 875 l 47 875 z "},"Ï":{"ha":267,"x_min":31,"x_max":339,"o":"m 31 0 l 147 821 l 254 821 l 138 0 l 31 0 m 146 889 q 110 903 125 889 q 96 939 96 918 q 110 973 96 960 q 146 986 125 986 q 183 973 168 986 q 197 939 197 960 q 183 903 197 918 q 146 889 168 889 m 290 889 q 253 903 268 889 q 239 939 239 918 q 253 973 239 960 q 290 986 268 986 q 326 973 311 986 q 340 939 340 960 q 326 903 340 918 q 290 889 311 889 z "},"İ":{"ha":267,"x_min":31,"x_max":290,"o":"m 31 0 l 147 821 l 254 821 l 138 0 l 31 0 m 228 885 q 186 901 204 885 q 168 943 168 918 q 186 984 168 967 q 229 1001 204 1001 q 272 984 254 1001 q 289 943 289 967 q 272 901 290 918 q 228 885 253 885 z "},"Ị":{"ha":267,"x_min":19,"x_max":254,"o":"m 31 0 l 147 821 l 254 821 l 138 0 l 31 0 m 71 -157 q 34 -142 49 -157 q 19 -107 19 -128 q 34 -74 19 -87 q 71 -60 49 -60 q 106 -74 92 -60 q 121 -107 121 -87 q 106 -142 121 -128 q 71 -157 92 -157 z "},"Е":{"ha":474,"x_min":31,"x_max":508,"o":"m 31 0 l 147 821 l 508 821 l 496 744 l 247 744 l 208 469 l 411 469 l 399 386 l 197 386 l 154 75 l 403 75 l 392 0 l 31 0 z "},"Ѐ":{"ha":474,"x_min":31,"x_max":508,"o":"m 31 0 l 147 821 l 508 821 l 496 744 l 247 744 l 208 469 l 411 469 l 399 386 l 197 386 l 154 75 l 403 75 l 392 0 l 31 0 m 328 881 l 185 997 l 290 997 l 399 881 l 328 881 z "},"Ì":{"ha":267,"x_min":31,"x_max":274,"o":"m 31 0 l 147 821 l 254 821 l 138 0 l 31 0 m 203 881 l 60 997 l 165 997 l 274 881 l 203 881 z "},"Ỉ":{"ha":267,"x_min":31,"x_max":313,"o":"m 31 0 l 147 821 l 254 821 l 138 0 l 31 0 m 178 858 l 181 888 q 199 915 183 907 q 229 930 214 922 q 246 957 244 938 l 246 967 q 242 993 247 981 q 218 1006 238 1006 q 182 974 190 1006 l 131 982 q 164 1031 140 1014 q 229 1047 188 1047 q 294 1025 275 1047 q 308 963 313 1003 l 308 958 q 295 920 306 932 q 272 904 285 908 q 249 895 258 900 q 238 878 239 890 l 236 858 l 178 858 z "},"И":{"ha":586,"x_min":31,"x_max":574,"o":"m 31 0 l 147 821 l 243 821 l 158 218 l 478 821 l 574 821 l 457 0 l 360 0 l 443 578 l 128 0 l 31 0 z "},"Ѝ":{"ha":586,"x_min":31,"x_max":574,"o":"m 31 0 l 147 821 l 243 821 l 158 218 l 478 821 l 574 821 l 457 0 l 360 0 l 443 578 l 128 0 l 31 0 m 369 881 l 226 997 l 332 997 l 440 881 l 369 881 z "},"Й":{"ha":586,"x_min":31,"x_max":574,"o":"m 31 0 l 147 821 l 243 821 l 158 218 l 478 821 l 574 821 l 457 0 l 360 0 l 443 578 l 128 0 l 31 0 m 374 872 q 306 885 332 872 q 268 918 281 899 q 253 960 256 938 q 251 1000 250 982 l 313 1000 q 331 944 311 963 q 383 926 351 926 q 442 944 417 926 q 476 1000 467 961 l 538 1000 q 513 940 532 969 q 460 892 493 911 q 374 872 426 872 z "},"Ī":{"ha":267,"x_min":31,"x_max":353,"o":"m 31 0 l 147 821 l 254 821 l 138 0 l 31 0 m 81 901 l 88 958 l 353 958 l 346 901 l 81 901 z "},"Ё":{"ha":474,"x_min":31,"x_max":508,"o":"m 31 0 l 147 821 l 508 821 l 496 744 l 247 744 l 208 469 l 411 469 l 399 386 l 197 386 l 154 75 l 403 75 l 392 0 l 31 0 m 271 889 q 235 903 250 889 q 221 939 221 918 q 235 973 221 960 q 271 986 250 986 q 308 973 293 986 q 322 939 322 960 q 308 903 322 918 q 271 889 293 889 m 415 889 q 378 903 393 889 q 364 939 364 918 q 378 973 364 960 q 415 986 393 986 q 451 973 436 986 q 465 939 465 960 q 451 903 465 918 q 415 889 436 889 z "},"Į":{"ha":267,"x_min":-37,"x_max":254,"o":"m 31 0 l 147 821 l 254 821 l 138 0 l 31 0 m 57 -192 q -12 -167 14 -192 q -32 -108 -37 -143 q 7 -39 -26 -69 q 79 1 40 -8 l 128 0 q 67 -42 89 -15 q 42 -94 44 -68 q 53 -135 38 -121 q 86 -149 69 -149 q 108 -146 99 -149 q 122 -140 117 -143 l 132 -174 q 104 -185 122 -178 q 57 -192 86 -192 z "},"Ĩ":{"ha":267,"x_min":31,"x_max":369,"o":"m 31 0 l 147 821 l 254 821 l 138 0 l 31 0 m 269 888 q 237 894 250 888 q 206 913 224 901 q 181 929 194 921 q 150 938 167 938 q 120 925 133 938 q 101 889 107 913 l 64 889 q 97 962 72 933 q 158 990 122 990 q 195 983 179 990 q 226 964 211 975 q 252 949 240 956 q 278 943 264 943 q 309 954 297 943 q 328 988 321 965 l 369 988 q 331 915 360 942 q 269 888 303 888 z "},"Ю":{"ha":857,"x_min":31,"x_max":842,"o":"m 524 -17 q 414 -2 461 -17 q 346 58 367 13 q 338 197 325 104 l 364 388 l 193 388 l 139 0 l 31 0 l 146 821 l 254 821 l 206 468 l 376 468 l 400 647 q 444 765 411 725 q 529 818 478 804 q 644 832 581 832 q 753 817 708 832 q 820 763 799 803 q 831 647 842 724 l 768 197 q 721 58 754 104 q 638 -2 688 13 q 524 -17 588 -17 m 533 49 q 589 56 564 49 q 631 88 614 64 q 654 158 647 111 l 724 654 q 719 726 731 703 q 686 756 708 749 q 633 764 664 764 q 579 756 604 764 q 538 726 554 749 q 514 654 521 703 l 443 158 q 448 88 438 111 q 481 56 458 64 q 533 49 503 49 z "},"J":{"ha":310,"x_min":-42,"x_max":303,"o":"m 17 -1 q -12 -1 4 -1 q -42 0 -29 -1 l -32 76 l 13 75 q 75 90 56 74 q 101 154 94 107 l 194 821 l 303 821 l 214 186 q 183 74 204 115 q 123 15 163 32 q 17 -1 83 -1 z "},"Ј":{"ha":310,"x_min":-42,"x_max":303,"o":"m 17 -1 q -12 -1 4 -1 q -42 0 -29 -1 l -32 76 l 13 75 q 75 90 56 74 q 101 154 94 107 l 194 821 l 303 821 l 214 186 q 183 74 204 115 q 123 15 163 32 q 17 -1 83 -1 z "},"K":{"ha":533,"x_min":31,"x_max":579,"o":"m 351 0 l 214 426 l 463 821 l 579 821 l 321 425 l 469 0 l 351 0 m 31 0 l 147 821 l 254 821 l 138 0 l 31 0 z "},"К":{"ha":557,"x_min":31,"x_max":603,"o":"m 31 0 l 147 821 l 254 821 l 203 453 l 254 453 l 485 821 l 603 821 l 350 425 l 492 0 l 372 0 l 249 379 l 192 379 l 138 0 l 31 0 z "},"Ķ":{"ha":533,"x_min":31,"x_max":579,"o":"m 351 0 l 214 426 l 463 821 l 579 821 l 321 425 l 469 0 l 351 0 m 31 0 l 147 821 l 254 821 l 138 0 l 31 0 m 151 -229 q 189 -174 175 -197 q 203 -137 203 -150 q 197 -124 203 -129 q 185 -110 190 -118 q 179 -87 179 -101 q 196 -59 181 -72 q 233 -46 211 -46 q 269 -58 256 -46 q 281 -92 282 -71 q 266 -132 279 -107 q 234 -183 253 -157 q 196 -229 215 -208 l 151 -229 z "},"Ќ":{"ha":557,"x_min":31,"x_max":603,"o":"m 31 0 l 147 821 l 254 821 l 203 453 l 254 453 l 485 821 l 603 821 l 350 425 l 492 0 l 372 0 l 249 379 l 192 379 l 138 0 l 31 0 m 293 881 l 419 1000 l 524 1000 l 358 881 l 293 881 z "},"L":{"ha":414,"x_min":31,"x_max":367,"o":"m 31 0 l 147 821 l 254 821 l 149 75 l 367 75 l 354 0 l 31 0 z "},"Ĺ":{"ha":414,"x_min":31,"x_max":396,"o":"m 31 0 l 147 821 l 254 821 l 149 75 l 367 75 l 354 0 l 31 0 m 165 881 l 292 1000 l 396 1000 l 231 881 l 165 881 z "},"Ľ":{"ha":456,"x_min":31,"x_max":494,"o":"m 31 0 l 147 821 l 254 821 l 149 75 l 367 75 l 354 0 l 31 0 m 374 654 l 426 842 l 494 842 l 414 654 l 374 654 z "},"Ļ":{"ha":414,"x_min":31,"x_max":367,"o":"m 31 0 l 147 821 l 254 821 l 149 75 l 367 75 l 354 0 l 31 0 m 100 -229 q 138 -174 124 -197 q 151 -137 151 -150 q 145 -124 151 -129 q 133 -110 139 -118 q 128 -87 128 -101 q 144 -59 129 -72 q 182 -46 160 -46 q 217 -58 204 -46 q 229 -92 231 -71 q 215 -132 228 -107 q 183 -183 201 -157 q 144 -229 164 -208 l 100 -229 z "},"Љ":{"ha":892,"x_min":-39,"x_max":849,"o":"m -39 0 l -29 58 q 20 85 -3 58 q 54 163 43 113 l 193 821 l 599 821 l 482 0 l 375 0 l 479 743 l 288 743 l 157 133 q 146 91 153 114 q 126 49 139 68 q 89 15 113 29 q 26 0 65 1 l -39 0 m 492 58 l 592 58 q 653 75 632 58 q 687 126 675 92 q 706 211 699 160 q 719 310 711 257 q 732 410 726 363 q 736 474 738 446 q 717 520 735 503 q 656 538 699 538 l 557 538 q 525 298 542 419 q 492 58 508 176 m 375 0 l 490 819 l 596 819 l 567 604 l 700 604 q 788 588 754 604 q 835 533 822 571 q 839 433 849 496 l 807 207 q 783 106 799 146 q 742 42 767 65 q 682 10 717 19 q 601 0 647 0 l 375 0 z "},"Ł":{"ha":507,"x_min":19,"x_max":408,"o":"m 74 0 l 108 235 l 19 197 l 28 251 l 115 289 l 189 818 l 296 818 l 228 336 l 361 393 l 354 340 l 221 282 l 190 75 l 408 75 l 397 0 l 74 0 z "},"M":{"ha":740,"x_min":31,"x_max":726,"o":"m 31 0 l 147 821 l 278 821 l 349 190 l 600 821 l 726 821 l 610 0 l 515 0 l 607 650 l 358 0 l 283 0 l 218 650 l 126 0 l 31 0 z "},"N":{"ha":583,"x_min":31,"x_max":571,"o":"m 31 0 l 147 821 l 242 821 l 390 218 l 475 821 l 571 821 l 454 0 l 358 0 l 210 576 l 126 0 l 31 0 z "},"Ń":{"ha":583,"x_min":31,"x_max":571,"o":"m 31 0 l 147 821 l 242 821 l 390 218 l 475 821 l 571 821 l 454 0 l 358 0 l 210 576 l 126 0 l 31 0 m 281 881 l 407 1000 l 511 1000 l 346 881 l 281 881 z "},"Ň":{"ha":583,"x_min":31,"x_max":571,"o":"m 31 0 l 147 821 l 242 821 l 390 218 l 475 821 l 571 821 l 454 0 l 358 0 l 210 576 l 126 0 l 31 0 m 332 875 l 225 1003 l 296 1003 l 374 925 l 475 1003 l 544 1003 l 399 875 l 332 875 z "},"Ņ":{"ha":583,"x_min":31,"x_max":571,"o":"m 31 0 l 147 821 l 242 821 l 390 218 l 475 821 l 571 821 l 454 0 l 358 0 l 210 576 l 126 0 l 31 0 m 153 -229 q 190 -174 176 -197 q 204 -137 204 -150 q 198 -124 204 -129 q 186 -110 192 -118 q 181 -87 181 -101 q 197 -59 182 -72 q 235 -46 213 -46 q 270 -58 257 -46 q 282 -92 283 -71 q 267 -132 281 -107 q 235 -183 254 -157 q 197 -229 217 -208 l 153 -229 z "},"Њ":{"ha":857,"x_min":31,"x_max":826,"o":"m 31 0 l 147 821 l 254 821 l 204 468 l 417 468 l 468 821 l 576 821 l 546 604 l 678 604 q 767 588 733 604 q 814 533 801 571 q 817 433 826 496 l 785 207 q 760 106 776 146 q 719 42 744 65 q 660 10 694 19 q 579 0 625 0 l 351 0 l 406 386 l 193 386 l 138 0 l 31 0 m 468 60 l 568 60 q 629 76 607 60 q 663 126 651 92 q 679 208 674 160 l 706 392 q 711 471 713 439 q 692 520 710 503 q 632 538 675 538 l 535 538 l 468 60 z "},"Ñ":{"ha":583,"x_min":31,"x_max":571,"o":"m 31 0 l 147 821 l 242 821 l 390 218 l 475 821 l 571 821 l 454 0 l 358 0 l 210 576 l 126 0 l 31 0 m 431 901 q 398 908 411 901 q 367 926 385 915 q 342 943 356 935 q 311 951 328 951 q 281 939 294 951 q 263 903 268 926 l 225 903 q 258 976 233 947 q 319 1004 283 1004 q 356 997 340 1004 q 388 978 372 989 q 413 963 401 969 q 439 957 425 957 q 470 968 458 957 q 489 1001 482 979 l 531 1001 q 492 928 521 956 q 431 901 464 901 z "},"O":{"ha":568,"x_min":33,"x_max":554,"o":"m 232 -17 q 122 -2 168 -17 q 54 58 75 13 q 47 196 33 104 l 111 649 q 156 765 122 725 q 240 818 189 804 q 353 832 290 832 q 463 817 417 832 q 532 764 510 803 q 543 649 554 725 l 479 196 q 432 58 467 103 q 347 -2 397 13 q 232 -17 296 -17 m 242 49 q 299 56 272 49 q 343 88 325 64 q 368 163 361 113 l 436 651 q 431 724 443 700 q 396 756 419 749 q 342 764 372 764 q 285 756 311 764 q 240 724 258 749 q 215 651 222 700 l 147 163 q 152 88 140 113 q 188 56 164 64 q 242 49 211 49 z "},"О":{"ha":568,"x_min":33,"x_max":554,"o":"m 232 -17 q 122 -2 168 -17 q 54 58 75 13 q 47 196 33 104 l 111 649 q 156 765 122 725 q 240 818 189 804 q 353 832 290 832 q 463 817 417 832 q 532 764 510 803 q 543 649 554 725 l 479 196 q 432 58 467 103 q 347 -2 397 13 q 232 -17 296 -17 m 242 49 q 299 56 272 49 q 343 88 325 64 q 368 163 361 113 l 436 651 q 431 724 443 700 q 396 756 419 749 q 342 764 372 764 q 285 756 311 764 q 240 724 258 749 q 215 651 222 700 l 147 163 q 152 88 140 113 q 188 56 164 64 q 242 49 211 49 z "},"Œ":{"ha":793,"x_min":33,"x_max":828,"o":"m 229 -17 q 121 -2 167 -17 q 54 58 75 13 q 47 196 33 104 l 110 649 q 154 765 121 725 q 238 818 188 804 q 350 832 288 832 q 453 817 410 832 q 517 764 497 803 q 528 649 538 725 l 463 196 q 417 58 450 103 q 337 -2 385 13 q 229 -17 289 -17 m 239 49 q 297 57 271 49 q 339 90 322 65 q 363 163 356 114 l 431 651 q 428 723 439 699 q 394 756 417 747 q 339 764 371 764 q 283 756 308 764 q 240 723 257 747 q 215 651 222 699 l 147 163 q 151 90 140 114 q 184 57 161 65 q 239 49 207 49 m 340 0 l 456 821 l 828 821 l 817 744 l 551 744 l 513 469 l 731 469 l 718 386 l 500 386 l 457 75 l 722 75 l 713 0 l 340 0 z "},"Ó":{"ha":568,"x_min":33,"x_max":554,"o":"m 232 -17 q 122 -2 168 -17 q 54 58 75 13 q 47 196 33 104 l 111 649 q 156 765 122 725 q 240 818 189 804 q 353 832 290 832 q 463 817 417 832 q 532 764 510 803 q 543 649 554 725 l 479 196 q 432 58 467 103 q 347 -2 397 13 q 232 -17 296 -17 m 242 49 q 299 56 272 49 q 343 88 325 64 q 368 163 361 113 l 436 651 q 431 724 443 700 q 396 756 419 749 q 342 764 372 764 q 285 756 311 764 q 240 724 258 749 q 215 651 222 700 l 147 163 q 152 88 140 113 q 188 56 164 64 q 242 49 211 49 m 272 881 l 399 1000 l 503 1000 l 338 881 l 272 881 z "},"Ǒ":{"ha":568,"x_min":33,"x_max":554,"o":"m 232 -17 q 122 -2 168 -17 q 54 58 75 13 q 47 196 33 104 l 111 649 q 156 765 122 725 q 240 818 189 804 q 353 832 290 832 q 463 817 417 832 q 532 764 510 803 q 543 649 554 725 l 479 196 q 432 58 467 103 q 347 -2 397 13 q 232 -17 296 -17 m 242 49 q 299 56 272 49 q 343 88 325 64 q 368 163 361 113 l 436 651 q 431 724 443 700 q 396 756 419 749 q 342 764 372 764 q 285 756 311 764 q 240 724 258 749 q 215 651 222 700 l 147 163 q 152 88 140 113 q 188 56 164 64 q 242 49 211 49 m 324 875 l 217 1003 l 288 1003 l 365 925 l 467 1003 l 536 1003 l 390 875 l 324 875 z "},"Ô":{"ha":568,"x_min":33,"x_max":554,"o":"m 232 -17 q 122 -2 168 -17 q 54 58 75 13 q 47 196 33 104 l 111 649 q 156 765 122 725 q 240 818 189 804 q 353 832 290 832 q 463 817 417 832 q 532 764 510 803 q 543 649 554 725 l 479 196 q 432 58 467 103 q 347 -2 397 13 q 232 -17 296 -17 m 242 49 q 299 56 272 49 q 343 88 325 64 q 368 163 361 113 l 436 651 q 431 724 443 700 q 396 756 419 749 q 342 764 372 764 q 285 756 311 764 q 240 724 258 749 q 215 651 222 700 l 147 163 q 152 88 140 113 q 188 56 164 64 q 242 49 211 49 m 197 875 l 343 1003 l 410 1003 l 518 875 l 449 875 l 369 953 l 269 875 l 197 875 z "},"Ố":{"ha":568,"x_min":33,"x_max":640,"o":"m 232 -17 q 122 -2 168 -17 q 54 58 75 13 q 47 196 33 104 l 111 649 q 156 765 122 725 q 240 818 189 804 q 353 832 290 832 q 463 817 417 832 q 532 764 510 803 q 543 649 554 725 l 479 196 q 432 58 467 103 q 347 -2 397 13 q 232 -17 296 -17 m 242 49 q 299 56 272 49 q 343 88 325 64 q 368 163 361 113 l 436 651 q 431 724 443 700 q 396 756 419 749 q 342 764 372 764 q 285 756 311 764 q 240 724 258 749 q 215 651 222 700 l 147 163 q 152 88 140 113 q 188 56 164 64 q 242 49 211 49 m 236 869 l 342 971 l 403 971 l 479 869 l 415 869 l 367 924 l 303 869 l 236 869 m 476 929 l 539 1026 l 640 1026 l 542 929 l 476 929 z "},"Ộ":{"ha":568,"x_min":33,"x_max":554,"o":"m 232 -17 q 122 -2 168 -17 q 54 58 75 13 q 47 196 33 104 l 111 649 q 156 765 122 725 q 240 818 189 804 q 353 832 290 832 q 463 817 417 832 q 532 764 510 803 q 543 649 554 725 l 479 196 q 432 58 467 103 q 347 -2 397 13 q 232 -17 296 -17 m 242 49 q 299 56 272 49 q 343 88 325 64 q 368 163 361 113 l 436 651 q 431 724 443 700 q 396 756 419 749 q 342 764 372 764 q 285 756 311 764 q 240 724 258 749 q 215 651 222 700 l 147 163 q 152 88 140 113 q 188 56 164 64 q 242 49 211 49 m 221 -157 q 184 -142 199 -157 q 169 -107 169 -128 q 184 -74 169 -87 q 221 -60 199 -60 q 256 -74 242 -60 q 271 -107 271 -87 q 256 -142 271 -128 q 221 -157 242 -157 m 197 875 l 343 1003 l 410 1003 l 518 875 l 449 875 l 369 953 l 269 875 l 197 875 z "},"Ồ":{"ha":568,"x_min":33,"x_max":572,"o":"m 232 -17 q 122 -2 168 -17 q 54 58 75 13 q 47 196 33 104 l 111 649 q 156 765 122 725 q 240 818 189 804 q 353 832 290 832 q 463 817 417 832 q 532 764 510 803 q 543 649 554 725 l 479 196 q 432 58 467 103 q 347 -2 397 13 q 232 -17 296 -17 m 242 49 q 299 56 272 49 q 343 88 325 64 q 368 163 361 113 l 436 651 q 431 724 443 700 q 396 756 419 749 q 342 764 372 764 q 285 756 311 764 q 240 724 258 749 q 215 651 222 700 l 147 163 q 152 88 140 113 q 188 56 164 64 q 242 49 211 49 m 236 869 l 342 971 l 403 971 l 479 869 l 415 869 l 367 924 l 303 869 l 236 869 m 506 929 l 428 1026 l 531 1026 l 572 929 l 506 929 z "},"Ổ":{"ha":568,"x_min":33,"x_max":610,"o":"m 232 -17 q 122 -2 168 -17 q 54 58 75 13 q 47 196 33 104 l 111 649 q 156 765 122 725 q 240 818 189 804 q 353 832 290 832 q 463 817 417 832 q 532 764 510 803 q 543 649 554 725 l 479 196 q 432 58 467 103 q 347 -2 397 13 q 232 -17 296 -17 m 242 49 q 299 56 272 49 q 343 88 325 64 q 368 163 361 113 l 436 651 q 431 724 443 700 q 396 756 419 749 q 342 764 372 764 q 285 756 311 764 q 240 724 258 749 q 215 651 222 700 l 147 163 q 152 88 140 113 q 188 56 164 64 q 242 49 211 49 m 236 869 l 342 971 l 403 971 l 479 869 l 415 869 l 367 924 l 303 869 l 236 869 m 499 921 l 501 942 q 514 961 504 956 q 534 972 524 967 q 544 990 544 978 l 546 999 q 545 1013 547 1006 q 532 1021 543 1021 q 510 1000 515 1021 l 463 1008 q 489 1047 469 1033 q 540 1060 508 1060 q 594 1043 579 1060 q 606 996 608 1026 l 606 992 q 596 963 603 971 q 580 953 589 956 q 565 947 571 950 q 557 935 558 944 l 556 921 l 499 921 z "},"Ỗ":{"ha":568,"x_min":33,"x_max":554,"o":"m 232 -17 q 122 -2 168 -17 q 54 58 75 13 q 47 196 33 104 l 111 649 q 156 765 122 725 q 240 818 189 804 q 353 832 290 832 q 463 817 417 832 q 532 764 510 803 q 543 649 554 725 l 479 196 q 432 58 467 103 q 347 -2 397 13 q 232 -17 296 -17 m 242 49 q 299 56 272 49 q 343 88 325 64 q 368 163 361 113 l 436 651 q 431 724 443 700 q 396 756 419 749 q 342 764 372 764 q 285 756 311 764 q 240 724 258 749 q 215 651 222 700 l 147 163 q 152 88 140 113 q 188 56 164 64 q 242 49 211 49 m 236 869 l 342 971 l 403 971 l 479 869 l 415 869 l 367 924 l 303 869 l 236 869 m 417 992 q 392 997 403 992 q 369 1011 381 1003 q 349 1022 360 1017 q 326 1028 339 1028 q 307 1019 315 1028 q 294 993 299 1010 l 263 993 q 288 1055 268 1032 q 336 1078 308 1078 q 362 1072 350 1078 q 386 1058 374 1065 q 406 1048 397 1053 q 426 1043 415 1043 q 448 1051 439 1043 q 461 1074 457 1060 l 496 1074 q 478 1030 490 1049 q 449 1001 465 1011 q 417 992 433 992 z "},"Ö":{"ha":568,"x_min":33,"x_max":554,"o":"m 232 -17 q 122 -2 168 -17 q 54 58 75 13 q 47 196 33 104 l 111 649 q 156 765 122 725 q 240 818 189 804 q 353 832 290 832 q 463 817 417 832 q 532 764 510 803 q 543 649 554 725 l 479 196 q 432 58 467 103 q 347 -2 397 13 q 232 -17 296 -17 m 242 49 q 299 56 272 49 q 343 88 325 64 q 368 163 361 113 l 436 651 q 431 724 443 700 q 396 756 419 749 q 342 764 372 764 q 285 756 311 764 q 240 724 258 749 q 215 651 222 700 l 147 163 q 152 88 140 113 q 188 56 164 64 q 242 49 211 49 m 296 889 q 260 903 275 889 q 246 939 246 918 q 260 973 246 960 q 296 986 275 986 q 333 973 318 986 q 347 939 347 960 q 333 903 347 918 q 296 889 318 889 m 440 889 q 403 903 418 889 q 389 939 389 918 q 403 973 389 960 q 440 986 418 986 q 476 973 461 986 q 490 939 490 960 q 476 903 490 918 q 440 889 461 889 z "},"Ọ":{"ha":568,"x_min":33,"x_max":554,"o":"m 232 -17 q 122 -2 168 -17 q 54 58 75 13 q 47 196 33 104 l 111 649 q 156 765 122 725 q 240 818 189 804 q 353 832 290 832 q 463 817 417 832 q 532 764 510 803 q 543 649 554 725 l 479 196 q 432 58 467 103 q 347 -2 397 13 q 232 -17 296 -17 m 242 49 q 299 56 272 49 q 343 88 325 64 q 368 163 361 113 l 436 651 q 431 724 443 700 q 396 756 419 749 q 342 764 372 764 q 285 756 311 764 q 240 724 258 749 q 215 651 222 700 l 147 163 q 152 88 140 113 q 188 56 164 64 q 242 49 211 49 m 221 -157 q 184 -142 199 -157 q 169 -107 169 -128 q 184 -74 169 -87 q 221 -60 199 -60 q 256 -74 242 -60 q 271 -107 271 -87 q 256 -142 271 -128 q 221 -157 242 -157 z "},"Ò":{"ha":568,"x_min":33,"x_max":554,"o":"m 232 -17 q 122 -2 168 -17 q 54 58 75 13 q 47 196 33 104 l 111 649 q 156 765 122 725 q 240 818 189 804 q 353 832 290 832 q 463 817 417 832 q 532 764 510 803 q 543 649 554 725 l 479 196 q 432 58 467 103 q 347 -2 397 13 q 232 -17 296 -17 m 242 49 q 299 56 272 49 q 343 88 325 64 q 368 163 361 113 l 436 651 q 431 724 443 700 q 396 756 419 749 q 342 764 372 764 q 285 756 311 764 q 240 724 258 749 q 215 651 222 700 l 147 163 q 152 88 140 113 q 188 56 164 64 q 242 49 211 49 m 353 881 l 210 997 l 315 997 l 424 881 l 353 881 z "},"Ỏ":{"ha":568,"x_min":33,"x_max":554,"o":"m 232 -17 q 122 -2 168 -17 q 54 58 75 13 q 47 196 33 104 l 111 649 q 156 765 122 725 q 240 818 189 804 q 353 832 290 832 q 463 817 417 832 q 532 764 510 803 q 543 649 554 725 l 479 196 q 432 58 467 103 q 347 -2 397 13 q 232 -17 296 -17 m 242 49 q 299 56 272 49 q 343 88 325 64 q 368 163 361 113 l 436 651 q 431 724 443 700 q 396 756 419 749 q 342 764 372 764 q 285 756 311 764 q 240 724 258 749 q 215 651 222 700 l 147 163 q 152 88 140 113 q 188 56 164 64 q 242 49 211 49 m 328 858 l 331 888 q 349 915 333 907 q 379 930 364 922 q 396 957 394 938 l 396 967 q 392 993 397 981 q 368 1006 388 1006 q 332 974 340 1006 l 281 982 q 314 1031 290 1014 q 379 1047 338 1047 q 444 1025 425 1047 q 458 963 463 1003 l 458 958 q 445 920 456 932 q 422 904 435 908 q 399 895 408 900 q 388 878 389 890 l 386 858 l 328 858 z "},"Ơ":{"ha":568,"x_min":33,"x_max":596,"o":"m 232 -17 q 122 -2 168 -17 q 54 58 75 13 q 47 196 33 104 l 111 649 q 156 765 122 725 q 240 818 189 804 q 353 832 290 832 q 463 817 417 832 q 532 764 510 803 q 543 649 554 725 l 479 196 q 432 58 467 103 q 347 -2 397 13 q 232 -17 296 -17 m 242 49 q 299 56 272 49 q 343 88 325 64 q 368 163 361 113 l 436 651 q 431 724 443 700 q 396 756 419 749 q 342 764 372 764 q 285 756 311 764 q 240 724 258 749 q 215 651 222 700 l 147 163 q 152 88 140 113 q 188 56 164 64 q 242 49 211 49 m 424 771 l 426 821 l 446 821 q 521 883 511 821 l 524 907 l 596 907 l 594 888 q 542 799 586 828 q 424 771 499 769 z "},"Ớ":{"ha":568,"x_min":33,"x_max":596,"o":"m 232 -17 q 122 -2 168 -17 q 54 58 75 13 q 47 196 33 104 l 111 649 q 156 765 122 725 q 240 818 189 804 q 353 832 290 832 q 463 817 417 832 q 532 764 510 803 q 543 649 554 725 l 479 196 q 432 58 467 103 q 347 -2 397 13 q 232 -17 296 -17 m 242 49 q 299 56 272 49 q 343 88 325 64 q 368 163 361 113 l 436 651 q 431 724 443 700 q 396 756 419 749 q 342 764 372 764 q 285 756 311 764 q 240 724 258 749 q 215 651 222 700 l 147 163 q 152 88 140 113 q 188 56 164 64 q 242 49 211 49 m 424 771 l 426 821 l 446 821 q 521 883 511 821 l 524 907 l 596 907 l 594 888 q 542 799 586 828 q 424 771 499 769 m 272 881 l 399 1000 l 503 1000 l 338 881 l 272 881 z "},"Ợ":{"ha":568,"x_min":33,"x_max":596,"o":"m 232 -17 q 122 -2 168 -17 q 54 58 75 13 q 47 196 33 104 l 111 649 q 156 765 122 725 q 240 818 189 804 q 353 832 290 832 q 463 817 417 832 q 532 764 510 803 q 543 649 554 725 l 479 196 q 432 58 467 103 q 347 -2 397 13 q 232 -17 296 -17 m 242 49 q 299 56 272 49 q 343 88 325 64 q 368 163 361 113 l 436 651 q 431 724 443 700 q 396 756 419 749 q 342 764 372 764 q 285 756 311 764 q 240 724 258 749 q 215 651 222 700 l 147 163 q 152 88 140 113 q 188 56 164 64 q 242 49 211 49 m 424 771 l 426 821 l 446 821 q 521 883 511 821 l 524 907 l 596 907 l 594 888 q 542 799 586 828 q 424 771 499 769 m 221 -157 q 184 -142 199 -157 q 169 -107 169 -128 q 184 -74 169 -87 q 221 -60 199 -60 q 256 -74 242 -60 q 271 -107 271 -87 q 256 -142 271 -128 q 221 -157 242 -157 z "},"Ờ":{"ha":568,"x_min":33,"x_max":596,"o":"m 232 -17 q 122 -2 168 -17 q 54 58 75 13 q 47 196 33 104 l 111 649 q 156 765 122 725 q 240 818 189 804 q 353 832 290 832 q 463 817 417 832 q 532 764 510 803 q 543 649 554 725 l 479 196 q 432 58 467 103 q 347 -2 397 13 q 232 -17 296 -17 m 242 49 q 299 56 272 49 q 343 88 325 64 q 368 163 361 113 l 436 651 q 431 724 443 700 q 396 756 419 749 q 342 764 372 764 q 285 756 311 764 q 240 724 258 749 q 215 651 222 700 l 147 163 q 152 88 140 113 q 188 56 164 64 q 242 49 211 49 m 424 771 l 426 821 l 446 821 q 521 883 511 821 l 524 907 l 596 907 l 594 888 q 542 799 586 828 q 424 771 499 769 m 353 881 l 210 997 l 315 997 l 424 881 l 353 881 z "},"Ở":{"ha":568,"x_min":33,"x_max":596,"o":"m 232 -17 q 122 -2 168 -17 q 54 58 75 13 q 47 196 33 104 l 111 649 q 156 765 122 725 q 240 818 189 804 q 353 832 290 832 q 463 817 417 832 q 532 764 510 803 q 543 649 554 725 l 479 196 q 432 58 467 103 q 347 -2 397 13 q 232 -17 296 -17 m 242 49 q 299 56 272 49 q 343 88 325 64 q 368 163 361 113 l 436 651 q 431 724 443 700 q 396 756 419 749 q 342 764 372 764 q 285 756 311 764 q 240 724 258 749 q 215 651 222 700 l 147 163 q 152 88 140 113 q 188 56 164 64 q 242 49 211 49 m 424 771 l 426 821 l 446 821 q 521 883 511 821 l 524 907 l 596 907 l 594 888 q 542 799 586 828 q 424 771 499 769 m 328 858 l 331 888 q 349 915 333 907 q 379 930 364 922 q 396 957 394 938 l 396 967 q 392 993 397 981 q 368 1006 388 1006 q 332 974 340 1006 l 281 982 q 314 1031 290 1014 q 379 1047 338 1047 q 444 1025 425 1047 q 458 963 463 1003 l 458 958 q 445 920 456 932 q 422 904 435 908 q 399 895 408 900 q 388 878 389 890 l 386 858 l 328 858 z "},"Ỡ":{"ha":568,"x_min":33,"x_max":596,"o":"m 232 -17 q 122 -2 168 -17 q 54 58 75 13 q 47 196 33 104 l 111 649 q 156 765 122 725 q 240 818 189 804 q 353 832 290 832 q 463 817 417 832 q 532 764 510 803 q 543 649 554 725 l 479 196 q 432 58 467 103 q 347 -2 397 13 q 232 -17 296 -17 m 242 49 q 299 56 272 49 q 343 88 325 64 q 368 163 361 113 l 436 651 q 431 724 443 700 q 396 756 419 749 q 342 764 372 764 q 285 756 311 764 q 240 724 258 749 q 215 651 222 700 l 147 163 q 152 88 140 113 q 188 56 164 64 q 242 49 211 49 m 424 771 l 426 821 l 446 821 q 521 883 511 821 l 524 907 l 596 907 l 594 888 q 542 799 586 828 q 424 771 499 769 m 419 888 q 387 894 400 888 q 356 913 374 901 q 331 929 344 921 q 300 938 317 938 q 270 925 283 938 q 251 889 257 913 l 214 889 q 247 962 222 933 q 308 990 272 990 q 345 983 329 990 q 376 964 361 975 q 402 949 390 956 q 428 943 414 943 q 459 954 447 943 q 478 988 471 965 l 519 988 q 481 915 510 942 q 419 888 453 888 z "},"Ő":{"ha":568,"x_min":33,"x_max":554,"o":"m 232 -17 q 122 -2 168 -17 q 54 58 75 13 q 47 196 33 104 l 111 649 q 156 765 122 725 q 240 818 189 804 q 353 832 290 832 q 463 817 417 832 q 532 764 510 803 q 543 649 554 725 l 479 196 q 432 58 467 103 q 347 -2 397 13 q 232 -17 296 -17 m 242 49 q 299 56 272 49 q 343 88 325 64 q 368 163 361 113 l 436 651 q 431 724 443 700 q 396 756 419 749 q 342 764 372 764 q 285 756 311 764 q 240 724 258 749 q 215 651 222 700 l 147 163 q 152 88 140 113 q 188 56 164 64 q 242 49 211 49 m 279 874 l 329 1004 l 418 1004 l 325 874 l 279 874 m 388 874 l 447 1004 l 536 1004 l 438 874 l 388 874 z "},"Ō":{"ha":568,"x_min":33,"x_max":554,"o":"m 232 -17 q 122 -2 168 -17 q 54 58 75 13 q 47 196 33 104 l 111 649 q 156 765 122 725 q 240 818 189 804 q 353 832 290 832 q 463 817 417 832 q 532 764 510 803 q 543 649 554 725 l 479 196 q 432 58 467 103 q 347 -2 397 13 q 232 -17 296 -17 m 242 49 q 299 56 272 49 q 343 88 325 64 q 368 163 361 113 l 436 651 q 431 724 443 700 q 396 756 419 749 q 342 764 372 764 q 285 756 311 764 q 240 724 258 749 q 215 651 222 700 l 147 163 q 152 88 140 113 q 188 56 164 64 q 242 49 211 49 m 231 901 l 238 958 l 503 958 l 496 901 l 231 901 z "},"Ω":{"ha":833,"x_min":39,"x_max":782,"o":"m 39 0 l 47 82 l 271 76 l 254 88 q 153 199 190 140 q 102 317 115 257 q 93 431 89 376 q 121 574 97 510 q 189 685 144 638 q 299 758 233 732 q 454 783 365 783 q 603 757 542 783 q 703 684 665 731 q 758 574 742 638 q 772 438 775 511 q 746 319 767 379 q 684 200 725 258 q 578 88 643 142 l 558 76 l 782 82 l 774 0 l 454 0 l 463 63 q 558 151 521 106 q 619 242 596 196 q 651 333 642 288 q 664 419 661 378 q 645 572 668 506 q 573 677 622 639 q 444 715 524 715 q 313 677 367 715 q 228 569 258 639 q 194 408 199 500 q 197 329 192 372 q 221 240 203 286 q 274 149 239 194 q 364 63 310 103 l 357 0 l 39 0 z "},"Ø":{"ha":585,"x_min":-15,"x_max":582,"o":"m -15 -19 l 525 821 l 582 821 l 40 -19 l -15 -19 m 232 -17 q 123 -2 169 -17 q 56 58 76 13 q 47 196 35 104 l 111 649 q 155 765 122 725 q 239 818 188 804 q 353 832 290 832 q 462 817 417 832 q 528 764 507 803 q 539 649 549 725 l 474 196 q 428 58 461 103 q 347 -2 396 13 q 232 -17 297 -17 m 242 49 q 298 56 274 49 q 340 88 322 64 q 363 163 357 113 l 431 651 q 428 724 439 700 q 396 756 418 749 q 343 764 374 764 q 288 756 313 764 q 246 724 263 749 q 222 651 229 700 l 153 163 q 156 88 147 113 q 188 56 165 64 q 242 49 211 49 z "},"Õ":{"ha":568,"x_min":33,"x_max":554,"o":"m 232 -17 q 122 -2 168 -17 q 54 58 75 13 q 47 196 33 104 l 111 649 q 156 765 122 725 q 240 818 189 804 q 353 832 290 832 q 463 817 417 832 q 532 764 510 803 q 543 649 554 725 l 479 196 q 432 58 467 103 q 347 -2 397 13 q 232 -17 296 -17 m 242 49 q 299 56 272 49 q 343 88 325 64 q 368 163 361 113 l 436 651 q 431 724 443 700 q 396 756 419 749 q 342 764 372 764 q 285 756 311 764 q 240 724 258 749 q 215 651 222 700 l 147 163 q 152 88 140 113 q 188 56 164 64 q 242 49 211 49 m 419 888 q 387 894 400 888 q 356 913 374 901 q 331 929 344 921 q 300 938 317 938 q 270 925 283 938 q 251 889 257 913 l 214 889 q 247 962 222 933 q 308 990 272 990 q 345 983 329 990 q 376 964 361 975 q 402 949 390 956 q 428 943 414 943 q 459 954 447 943 q 478 988 471 965 l 519 988 q 481 915 510 942 q 419 888 453 888 z "},"P":{"ha":538,"x_min":31,"x_max":561,"o":"m 31 0 l 147 821 l 413 821 q 524 787 486 821 q 551 683 561 753 l 531 535 q 504 443 524 486 q 444 374 485 400 q 332 347 403 347 l 192 347 l 143 0 l 31 0 m 200 410 l 306 410 q 385 443 356 410 q 425 549 415 476 l 438 640 q 428 731 447 703 q 375 760 410 760 l 250 760 l 200 410 z "},"П":{"ha":578,"x_min":31,"x_max":565,"o":"m 31 0 l 147 821 l 565 821 l 449 0 l 336 0 l 442 743 l 249 743 l 143 0 l 31 0 z "},"Q":{"ha":567,"x_min":35,"x_max":553,"o":"m 344 -165 l 278 -12 q 256 -13 267 -12 q 231 -14 244 -14 q 122 1 168 -14 q 56 60 76 15 q 47 197 35 106 l 111 649 q 156 765 122 725 q 240 818 189 804 q 354 832 292 832 q 465 817 419 832 q 531 764 510 803 q 543 649 553 725 l 479 199 q 439 72 468 115 q 367 11 410 29 l 426 -121 l 344 -165 m 244 51 q 301 59 276 51 q 344 91 326 67 q 367 164 361 115 l 435 651 q 433 724 443 700 q 399 756 422 749 q 344 764 376 764 q 288 756 313 764 q 246 724 263 749 q 221 651 229 700 l 153 164 q 157 91 147 115 q 190 59 167 67 q 244 51 213 51 z "},"R":{"ha":578,"x_min":31,"x_max":565,"o":"m 31 0 l 147 821 l 417 821 q 528 787 490 821 q 556 683 565 753 l 538 553 q 481 442 528 482 q 361 399 435 401 l 363 399 q 425 368 408 396 q 451 282 442 340 l 493 0 l 376 0 l 344 275 q 335 322 342 300 q 317 358 329 344 q 282 371 304 371 l 194 371 l 142 0 l 31 0 m 204 446 l 313 446 q 394 471 364 446 q 432 557 424 496 l 447 665 q 433 738 454 715 q 376 760 411 760 l 249 760 l 204 446 z "},"Ŕ":{"ha":578,"x_min":31,"x_max":565,"o":"m 31 0 l 147 821 l 417 821 q 528 787 490 821 q 556 683 565 753 l 538 553 q 481 442 528 482 q 361 399 435 401 l 363 399 q 425 368 408 396 q 451 282 442 340 l 493 0 l 376 0 l 344 275 q 335 322 342 300 q 317 358 329 344 q 282 371 304 371 l 194 371 l 142 0 l 31 0 m 204 446 l 313 446 q 394 471 364 446 q 432 557 424 496 l 447 665 q 433 738 454 715 q 376 760 411 760 l 249 760 l 204 446 m 276 881 l 403 1000 l 507 1000 l 342 881 l 276 881 z "},"Ř":{"ha":578,"x_min":31,"x_max":565,"o":"m 31 0 l 147 821 l 417 821 q 528 787 490 821 q 556 683 565 753 l 538 553 q 481 442 528 482 q 361 399 435 401 l 363 399 q 425 368 408 396 q 451 282 442 340 l 493 0 l 376 0 l 344 275 q 335 322 342 300 q 317 358 329 344 q 282 371 304 371 l 194 371 l 142 0 l 31 0 m 204 446 l 313 446 q 394 471 364 446 q 432 557 424 496 l 447 665 q 433 738 454 715 q 376 760 411 760 l 249 760 l 204 446 m 328 875 l 221 1003 l 292 1003 l 369 925 l 471 1003 l 540 1003 l 394 875 l 328 875 z "},"Ŗ":{"ha":578,"x_min":31,"x_max":565,"o":"m 31 0 l 147 821 l 417 821 q 528 787 490 821 q 556 683 565 753 l 538 553 q 481 442 528 482 q 361 399 435 401 l 363 399 q 425 368 408 396 q 451 282 442 340 l 493 0 l 376 0 l 344 275 q 335 322 342 300 q 317 358 329 344 q 282 371 304 371 l 194 371 l 142 0 l 31 0 m 204 446 l 313 446 q 394 471 364 446 q 432 557 424 496 l 447 665 q 433 738 454 715 q 376 760 411 760 l 249 760 l 204 446 m 168 -229 q 206 -174 192 -197 q 219 -137 219 -150 q 213 -124 219 -129 q 201 -110 207 -118 q 196 -87 196 -101 q 213 -59 197 -72 q 250 -46 228 -46 q 285 -58 272 -46 q 297 -92 299 -71 q 283 -132 296 -107 q 251 -183 269 -157 q 213 -229 232 -208 l 168 -229 z "},"S":{"ha":526,"x_min":18,"x_max":524,"o":"m 224 -10 q 101 12 149 -10 q 36 86 54 33 q 32 232 18 139 l 39 279 l 149 279 l 140 225 q 140 124 132 160 q 169 75 147 89 q 225 61 192 61 q 302 92 268 61 q 347 206 336 124 q 342 295 357 265 q 294 343 328 325 q 208 383 261 361 q 136 429 167 403 q 93 498 106 456 q 89 604 81 540 q 127 727 100 679 q 203 799 154 775 q 329 822 253 822 q 476 774 429 822 q 511 638 524 726 l 499 544 q 445 544 472 544 q 393 544 418 544 l 401 608 q 391 706 411 674 q 319 738 371 738 q 236 706 264 738 q 199 607 208 674 q 206 528 192 557 q 250 482 221 499 q 318 450 279 465 q 412 401 376 426 q 460 335 447 375 q 461 219 472 294 q 415 84 450 135 q 331 12 381 33 q 224 -10 281 -10 z "},"Š":{"ha":526,"x_min":18,"x_max":529,"o":"m 224 -10 q 101 12 149 -10 q 36 86 54 33 q 32 232 18 139 l 39 279 l 149 279 l 140 225 q 140 124 132 160 q 169 75 147 89 q 225 61 192 61 q 302 92 268 61 q 347 206 336 124 q 342 295 357 265 q 294 343 328 325 q 208 383 261 361 q 136 429 167 403 q 93 498 106 456 q 89 604 81 540 q 127 727 100 679 q 203 799 154 775 q 329 822 253 822 q 476 774 429 822 q 511 638 524 726 l 499 544 q 445 544 472 544 q 393 544 418 544 l 401 608 q 391 706 411 674 q 319 738 371 738 q 236 706 264 738 q 199 607 208 674 q 206 528 192 557 q 250 482 221 499 q 318 450 279 465 q 412 401 376 426 q 460 335 447 375 q 461 219 472 294 q 415 84 450 135 q 331 12 381 33 q 224 -10 281 -10 m 317 875 l 210 1003 l 281 1003 l 358 925 l 460 1003 l 529 1003 l 383 875 l 317 875 z "},"Ş":{"ha":526,"x_min":18,"x_max":524,"o":"m 224 -10 q 101 12 149 -10 q 36 86 54 33 q 32 232 18 139 l 39 279 l 149 279 l 140 225 q 140 124 132 160 q 169 75 147 89 q 225 61 192 61 q 302 92 268 61 q 347 206 336 124 q 342 295 357 265 q 294 343 328 325 q 208 383 261 361 q 136 429 167 403 q 93 498 106 456 q 89 604 81 540 q 127 727 100 679 q 203 799 154 775 q 329 822 253 822 q 476 774 429 822 q 511 638 524 726 l 499 544 q 445 544 472 544 q 393 544 418 544 l 401 608 q 391 706 411 674 q 319 738 371 738 q 236 706 264 738 q 199 607 208 674 q 206 528 192 557 q 250 482 221 499 q 318 450 279 465 q 412 401 376 426 q 460 335 447 375 q 461 219 472 294 q 415 84 450 135 q 331 12 381 33 q 224 -10 281 -10 m 183 -204 q 142 -197 160 -204 q 114 -183 124 -189 l 135 -146 q 157 -157 142 -151 q 185 -162 172 -162 q 226 -151 211 -162 q 242 -122 240 -139 q 207 -86 247 -86 q 188 -90 197 -86 q 171 -99 179 -93 l 142 -81 l 197 0 l 242 0 l 194 -68 l 188 -64 q 210 -56 197 -58 q 236 -53 224 -53 q 290 -74 274 -53 q 303 -121 307 -96 q 267 -181 299 -157 q 183 -204 235 -204 z "},"Ș":{"ha":526,"x_min":18,"x_max":524,"o":"m 224 -10 q 101 12 149 -10 q 36 86 54 33 q 32 232 18 139 l 39 279 l 149 279 l 140 225 q 140 124 132 160 q 169 75 147 89 q 225 61 192 61 q 302 92 268 61 q 347 206 336 124 q 342 295 357 265 q 294 343 328 325 q 208 383 261 361 q 136 429 167 403 q 93 498 106 456 q 89 604 81 540 q 127 727 100 679 q 203 799 154 775 q 329 822 253 822 q 476 774 429 822 q 511 638 524 726 l 499 544 q 445 544 472 544 q 393 544 418 544 l 401 608 q 391 706 411 674 q 319 738 371 738 q 236 706 264 738 q 199 607 208 674 q 206 528 192 557 q 250 482 221 499 q 318 450 279 465 q 412 401 376 426 q 460 335 447 375 q 461 219 472 294 q 415 84 450 135 q 331 12 381 33 q 224 -10 281 -10 m 128 -229 q 165 -174 151 -197 q 179 -137 179 -150 q 173 -124 179 -129 q 161 -110 167 -118 q 156 -87 156 -101 q 172 -59 157 -72 q 210 -46 188 -46 q 245 -58 232 -46 q 257 -92 258 -71 q 242 -132 256 -107 q 210 -183 229 -157 q 172 -229 192 -208 l 128 -229 z "},"Ш":{"ha":883,"x_min":31,"x_max":871,"o":"m 31 0 l 147 821 l 260 821 l 154 76 l 347 76 l 453 821 l 565 821 l 460 76 l 654 76 l 758 821 l 871 821 l 754 0 l 31 0 z "},"Щ":{"ha":883,"x_min":6,"x_max":844,"o":"m 681 -117 l 697 0 l 6 0 l 121 821 l 232 821 l 128 76 l 322 76 l 426 821 l 539 821 l 433 76 l 628 76 l 732 821 l 844 821 l 736 53 l 793 53 l 769 -117 l 681 -117 z "},"Ь":{"ha":524,"x_min":19,"x_max":493,"o":"m 19 0 l 135 819 l 240 819 l 211 604 l 344 604 q 433 588 399 604 q 480 533 467 571 q 485 433 493 496 l 453 207 q 427 106 443 146 q 386 42 411 65 q 327 10 361 19 q 247 0 293 0 l 19 0 m 133 58 l 233 58 q 310 88 285 58 q 344 183 335 117 l 376 421 q 379 478 382 451 q 358 522 376 506 q 299 538 340 538 l 200 538 l 133 58 z "},"T":{"ha":410,"x_min":71,"x_max":463,"o":"m 101 0 l 206 744 l 71 744 l 82 821 l 463 821 l 450 744 l 314 744 l 208 0 l 101 0 z "},"Ŧ":{"ha":426,"x_min":71,"x_max":463,"o":"m 99 549 l 110 610 l 372 610 l 363 549 l 99 549 m 101 0 l 206 744 l 71 744 l 82 821 l 463 821 l 450 744 l 314 744 l 208 0 l 101 0 z "},"Ť":{"ha":410,"x_min":71,"x_max":463,"o":"m 101 0 l 206 744 l 71 744 l 82 821 l 463 821 l 450 744 l 314 744 l 208 0 l 101 0 m 244 875 l 138 1003 l 208 1003 l 286 925 l 388 1003 l 457 1003 l 311 875 l 244 875 z "},"Ţ":{"ha":410,"x_min":50,"x_max":463,"o":"m 101 0 l 206 744 l 71 744 l 82 821 l 463 821 l 450 744 l 314 744 l 208 0 l 101 0 m 119 -204 q 78 -197 96 -204 q 50 -183 60 -189 l 71 -146 q 93 -157 78 -151 q 121 -162 108 -162 q 162 -151 147 -162 q 178 -122 176 -139 q 143 -86 183 -86 q 124 -90 133 -86 q 107 -99 115 -93 l 78 -81 l 133 0 l 178 0 l 131 -68 l 124 -64 q 147 -56 133 -58 q 172 -53 160 -53 q 226 -74 210 -53 q 239 -121 243 -96 q 203 -181 235 -157 q 119 -204 171 -204 z "},"Ț":{"ha":410,"x_min":64,"x_max":463,"o":"m 101 0 l 206 744 l 71 744 l 82 821 l 463 821 l 450 744 l 314 744 l 208 0 l 101 0 m 64 -229 q 101 -174 88 -197 q 115 -137 115 -150 q 109 -124 115 -129 q 97 -110 103 -118 q 92 -87 92 -101 q 108 -59 93 -72 q 146 -46 124 -46 q 181 -58 168 -46 q 193 -92 194 -71 q 178 -132 192 -107 q 147 -183 165 -157 q 108 -229 128 -208 l 64 -229 z "},"Т":{"ha":410,"x_min":71,"x_max":463,"o":"m 101 0 l 206 744 l 71 744 l 82 821 l 463 821 l 450 744 l 314 744 l 208 0 l 101 0 z "},"Þ":{"ha":533,"x_min":-3,"x_max":506,"o":"m -3 0 l 114 821 l 225 821 l 204 669 l 357 669 q 467 635 429 669 q 496 532 506 601 l 474 383 q 448 291 468 333 q 388 222 428 249 q 276 194 347 194 l 136 194 l 108 0 l -3 0 m 144 257 l 250 257 q 331 290 301 257 q 369 396 360 324 l 383 488 q 373 581 392 553 q 319 608 354 608 l 194 608 l 144 257 z "},"Ц":{"ha":606,"x_min":31,"x_max":567,"o":"m 404 -117 l 421 0 l 31 0 l 146 821 l 258 821 l 154 78 l 350 78 l 454 821 l 567 821 l 458 54 l 515 54 l 492 -117 l 404 -117 z "},"Ћ":{"ha":618,"x_min":71,"x_max":579,"o":"m 107 0 l 213 743 l 71 743 l 82 821 l 475 821 l 464 743 l 319 743 l 292 542 q 346 582 308 563 q 435 601 383 601 q 537 578 506 601 q 574 512 568 554 q 572 417 579 469 l 513 0 l 407 0 l 465 417 q 467 475 471 450 q 446 514 464 500 q 388 528 428 528 q 317 508 344 528 q 282 467 290 488 l 215 0 l 107 0 z "},"U":{"ha":572,"x_min":42,"x_max":564,"o":"m 236 -17 q 154 -10 192 -17 q 90 17 117 -3 q 53 77 64 38 q 51 183 42 117 l 140 821 l 249 821 l 156 158 q 161 91 150 114 q 195 60 172 68 q 244 51 218 51 q 297 60 272 51 q 341 91 322 68 q 365 158 360 114 l 458 821 l 564 821 l 475 183 q 444 78 465 118 q 391 17 422 38 q 320 -10 360 -3 q 236 -17 281 -17 z "},"У":{"ha":483,"x_min":-14,"x_max":524,"o":"m 78 -14 q 26 -10 51 -14 q -14 -3 1 -7 l -7 56 q 15 52 3 54 q 40 50 26 50 q 81 56 60 50 q 115 86 101 63 q 135 117 126 100 q 143 158 144 133 l 88 821 l 199 821 l 228 244 l 226 244 l 422 821 l 524 821 l 290 182 q 204 31 251 75 q 78 -14 157 -14 z "},"Ú":{"ha":572,"x_min":42,"x_max":564,"o":"m 236 -17 q 154 -10 192 -17 q 90 17 117 -3 q 53 77 64 38 q 51 183 42 117 l 140 821 l 249 821 l 156 158 q 161 91 150 114 q 195 60 172 68 q 244 51 218 51 q 297 60 272 51 q 341 91 322 68 q 365 158 360 114 l 458 821 l 564 821 l 475 183 q 444 78 465 118 q 391 17 422 38 q 320 -10 360 -3 q 236 -17 281 -17 m 274 881 l 400 1000 l 504 1000 l 339 881 l 274 881 z "},"Ǔ":{"ha":572,"x_min":42,"x_max":564,"o":"m 236 -17 q 154 -10 192 -17 q 90 17 117 -3 q 53 77 64 38 q 51 183 42 117 l 140 821 l 249 821 l 156 158 q 161 91 150 114 q 195 60 172 68 q 244 51 218 51 q 297 60 272 51 q 341 91 322 68 q 365 158 360 114 l 458 821 l 564 821 l 475 183 q 444 78 465 118 q 391 17 422 38 q 320 -10 360 -3 q 236 -17 281 -17 m 325 875 l 218 1003 l 289 1003 l 367 925 l 468 1003 l 538 1003 l 392 875 l 325 875 z "},"Û":{"ha":572,"x_min":42,"x_max":564,"o":"m 236 -17 q 154 -10 192 -17 q 90 17 117 -3 q 53 77 64 38 q 51 183 42 117 l 140 821 l 249 821 l 156 158 q 161 91 150 114 q 195 60 172 68 q 244 51 218 51 q 297 60 272 51 q 341 91 322 68 q 365 158 360 114 l 458 821 l 564 821 l 475 183 q 444 78 465 118 q 391 17 422 38 q 320 -10 360 -3 q 236 -17 281 -17 m 200 875 l 346 1003 l 413 1003 l 521 875 l 451 875 l 372 953 l 272 875 l 200 875 z "},"Ü":{"ha":572,"x_min":42,"x_max":564,"o":"m 236 -17 q 154 -10 192 -17 q 90 17 117 -3 q 53 77 64 38 q 51 183 42 117 l 140 821 l 249 821 l 156 158 q 161 91 150 114 q 195 60 172 68 q 244 51 218 51 q 297 60 272 51 q 341 91 322 68 q 365 158 360 114 l 458 821 l 564 821 l 475 183 q 444 78 465 118 q 391 17 422 38 q 320 -10 360 -3 q 236 -17 281 -17 m 297 889 q 262 903 276 889 q 247 939 247 918 q 262 973 247 960 q 297 986 276 986 q 334 973 319 986 q 349 939 349 960 q 334 903 349 918 q 297 889 319 889 m 442 889 q 405 903 419 889 q 390 939 390 918 q 405 973 390 960 q 442 986 419 986 q 477 973 463 986 q 492 939 492 960 q 477 903 492 918 q 442 889 463 889 z "},"Ǘ":{"ha":572,"x_min":42,"x_max":564,"o":"m 236 -17 q 154 -10 192 -17 q 90 17 117 -3 q 53 77 64 38 q 51 183 42 117 l 140 821 l 249 821 l 156 158 q 161 91 150 114 q 195 60 172 68 q 244 51 218 51 q 297 60 272 51 q 341 91 322 68 q 365 158 360 114 l 458 821 l 564 821 l 475 183 q 444 78 465 118 q 391 17 422 38 q 320 -10 360 -3 q 236 -17 281 -17 m 297 889 q 262 903 276 889 q 247 939 247 918 q 262 973 247 960 q 297 986 276 986 q 334 973 319 986 q 349 939 349 960 q 334 903 349 918 q 297 889 319 889 m 442 889 q 405 903 419 889 q 390 939 390 918 q 405 973 390 960 q 442 986 419 986 q 477 973 463 986 q 492 939 492 960 q 477 903 492 918 q 442 889 463 889 m 300 1010 l 426 1129 l 531 1129 l 365 1010 l 300 1010 z "},"Ǚ":{"ha":572,"x_min":42,"x_max":564,"o":"m 236 -17 q 154 -10 192 -17 q 90 17 117 -3 q 53 77 64 38 q 51 183 42 117 l 140 821 l 249 821 l 156 158 q 161 91 150 114 q 195 60 172 68 q 244 51 218 51 q 297 60 272 51 q 341 91 322 68 q 365 158 360 114 l 458 821 l 564 821 l 475 183 q 444 78 465 118 q 391 17 422 38 q 320 -10 360 -3 q 236 -17 281 -17 m 297 889 q 262 903 276 889 q 247 939 247 918 q 262 973 247 960 q 297 986 276 986 q 334 973 319 986 q 349 939 349 960 q 334 903 349 918 q 297 889 319 889 m 442 889 q 405 903 419 889 q 390 939 390 918 q 405 973 390 960 q 442 986 419 986 q 477 973 463 986 q 492 939 492 960 q 477 903 492 918 q 442 889 463 889 m 350 1004 l 243 1132 l 314 1132 l 392 1054 l 493 1132 l 563 1132 l 417 1004 l 350 1004 z "},"Ǜ":{"ha":572,"x_min":42,"x_max":564,"o":"m 236 -17 q 154 -10 192 -17 q 90 17 117 -3 q 53 77 64 38 q 51 183 42 117 l 140 821 l 249 821 l 156 158 q 161 91 150 114 q 195 60 172 68 q 244 51 218 51 q 297 60 272 51 q 341 91 322 68 q 365 158 360 114 l 458 821 l 564 821 l 475 183 q 444 78 465 118 q 391 17 422 38 q 320 -10 360 -3 q 236 -17 281 -17 m 297 889 q 262 903 276 889 q 247 939 247 918 q 262 973 247 960 q 297 986 276 986 q 334 973 319 986 q 349 939 349 960 q 334 903 349 918 q 297 889 319 889 m 442 889 q 405 903 419 889 q 390 939 390 918 q 405 973 390 960 q 442 986 419 986 q 477 973 463 986 q 492 939 492 960 q 477 903 492 918 q 442 889 463 889 m 379 1010 l 236 1126 l 342 1126 l 450 1010 l 379 1010 z "},"Ǖ":{"ha":572,"x_min":42,"x_max":564,"o":"m 236 -17 q 154 -10 192 -17 q 90 17 117 -3 q 53 77 64 38 q 51 183 42 117 l 140 821 l 249 821 l 156 158 q 161 91 150 114 q 195 60 172 68 q 244 51 218 51 q 297 60 272 51 q 341 91 322 68 q 365 158 360 114 l 458 821 l 564 821 l 475 183 q 444 78 465 118 q 391 17 422 38 q 320 -10 360 -3 q 236 -17 281 -17 m 297 889 q 262 903 276 889 q 247 939 247 918 q 262 973 247 960 q 297 986 276 986 q 334 973 319 986 q 349 939 349 960 q 334 903 349 918 q 297 889 319 889 m 442 889 q 405 903 419 889 q 390 939 390 918 q 405 973 390 960 q 442 986 419 986 q 477 973 463 986 q 492 939 492 960 q 477 903 492 918 q 442 889 463 889 m 258 1031 l 265 1088 l 531 1088 l 524 1031 l 258 1031 z "},"Ụ":{"ha":572,"x_min":42,"x_max":564,"o":"m 236 -17 q 154 -10 192 -17 q 90 17 117 -3 q 53 77 64 38 q 51 183 42 117 l 140 821 l 249 821 l 156 158 q 161 91 150 114 q 195 60 172 68 q 244 51 218 51 q 297 60 272 51 q 341 91 322 68 q 365 158 360 114 l 458 821 l 564 821 l 475 183 q 444 78 465 118 q 391 17 422 38 q 320 -10 360 -3 q 236 -17 281 -17 m 222 -157 q 185 -142 200 -157 q 171 -107 171 -128 q 185 -74 171 -87 q 222 -60 200 -60 q 258 -74 243 -60 q 272 -107 272 -87 q 258 -142 272 -128 q 222 -157 243 -157 z "},"Ù":{"ha":572,"x_min":42,"x_max":564,"o":"m 236 -17 q 154 -10 192 -17 q 90 17 117 -3 q 53 77 64 38 q 51 183 42 117 l 140 821 l 249 821 l 156 158 q 161 91 150 114 q 195 60 172 68 q 244 51 218 51 q 297 60 272 51 q 341 91 322 68 q 365 158 360 114 l 458 821 l 564 821 l 475 183 q 444 78 465 118 q 391 17 422 38 q 320 -10 360 -3 q 236 -17 281 -17 m 354 881 l 211 997 l 317 997 l 425 881 l 354 881 z "},"Ủ":{"ha":572,"x_min":42,"x_max":564,"o":"m 236 -17 q 154 -10 192 -17 q 90 17 117 -3 q 53 77 64 38 q 51 183 42 117 l 140 821 l 249 821 l 156 158 q 161 91 150 114 q 195 60 172 68 q 244 51 218 51 q 297 60 272 51 q 341 91 322 68 q 365 158 360 114 l 458 821 l 564 821 l 475 183 q 444 78 465 118 q 391 17 422 38 q 320 -10 360 -3 q 236 -17 281 -17 m 329 858 l 332 888 q 350 915 335 907 q 381 930 365 922 q 397 957 396 938 l 397 967 q 394 993 399 981 q 369 1006 389 1006 q 333 974 342 1006 l 282 982 q 315 1031 292 1014 q 381 1047 339 1047 q 445 1025 426 1047 q 460 963 464 1003 l 460 958 q 447 920 457 932 q 423 904 436 908 q 400 895 410 900 q 389 878 390 890 l 388 858 l 329 858 z "},"Ư":{"ha":572,"x_min":42,"x_max":643,"o":"m 236 -17 q 154 -10 192 -17 q 90 17 117 -3 q 53 77 64 38 q 51 183 42 117 l 140 821 l 249 821 l 156 158 q 161 91 150 114 q 195 60 172 68 q 244 51 218 51 q 297 60 272 51 q 341 91 322 68 q 365 158 360 114 l 458 821 l 564 821 l 475 183 q 444 78 465 118 q 391 17 422 38 q 320 -10 360 -3 q 236 -17 281 -17 m 471 771 l 474 821 l 493 821 q 568 883 558 821 l 571 907 l 643 907 l 642 888 q 590 799 633 828 q 471 771 546 769 z "},"Ứ":{"ha":572,"x_min":42,"x_max":643,"o":"m 236 -17 q 154 -10 192 -17 q 90 17 117 -3 q 53 77 64 38 q 51 183 42 117 l 140 821 l 249 821 l 156 158 q 161 91 150 114 q 195 60 172 68 q 244 51 218 51 q 297 60 272 51 q 341 91 322 68 q 365 158 360 114 l 458 821 l 564 821 l 475 183 q 444 78 465 118 q 391 17 422 38 q 320 -10 360 -3 q 236 -17 281 -17 m 471 771 l 474 821 l 493 821 q 568 883 558 821 l 571 907 l 643 907 l 642 888 q 590 799 633 828 q 471 771 546 769 m 274 881 l 400 1000 l 504 1000 l 339 881 l 274 881 z "},"Ự":{"ha":572,"x_min":42,"x_max":643,"o":"m 236 -17 q 154 -10 192 -17 q 90 17 117 -3 q 53 77 64 38 q 51 183 42 117 l 140 821 l 249 821 l 156 158 q 161 91 150 114 q 195 60 172 68 q 244 51 218 51 q 297 60 272 51 q 341 91 322 68 q 365 158 360 114 l 458 821 l 564 821 l 475 183 q 444 78 465 118 q 391 17 422 38 q 320 -10 360 -3 q 236 -17 281 -17 m 471 771 l 474 821 l 493 821 q 568 883 558 821 l 571 907 l 643 907 l 642 888 q 590 799 633 828 q 471 771 546 769 m 222 -157 q 185 -142 200 -157 q 171 -107 171 -128 q 185 -74 171 -87 q 222 -60 200 -60 q 258 -74 243 -60 q 272 -107 272 -87 q 258 -142 272 -128 q 222 -157 243 -157 z "},"Ừ":{"ha":572,"x_min":42,"x_max":643,"o":"m 236 -17 q 154 -10 192 -17 q 90 17 117 -3 q 53 77 64 38 q 51 183 42 117 l 140 821 l 249 821 l 156 158 q 161 91 150 114 q 195 60 172 68 q 244 51 218 51 q 297 60 272 51 q 341 91 322 68 q 365 158 360 114 l 458 821 l 564 821 l 475 183 q 444 78 465 118 q 391 17 422 38 q 320 -10 360 -3 q 236 -17 281 -17 m 471 771 l 474 821 l 493 821 q 568 883 558 821 l 571 907 l 643 907 l 642 888 q 590 799 633 828 q 471 771 546 769 m 354 881 l 211 997 l 317 997 l 425 881 l 354 881 z "},"Ử":{"ha":572,"x_min":42,"x_max":643,"o":"m 236 -17 q 154 -10 192 -17 q 90 17 117 -3 q 53 77 64 38 q 51 183 42 117 l 140 821 l 249 821 l 156 158 q 161 91 150 114 q 195 60 172 68 q 244 51 218 51 q 297 60 272 51 q 341 91 322 68 q 365 158 360 114 l 458 821 l 564 821 l 475 183 q 444 78 465 118 q 391 17 422 38 q 320 -10 360 -3 q 236 -17 281 -17 m 471 771 l 474 821 l 493 821 q 568 883 558 821 l 571 907 l 643 907 l 642 888 q 590 799 633 828 q 471 771 546 769 m 329 858 l 332 888 q 350 915 335 907 q 381 930 365 922 q 397 957 396 938 l 397 967 q 394 993 399 981 q 369 1006 389 1006 q 333 974 342 1006 l 282 982 q 315 1031 292 1014 q 381 1047 339 1047 q 445 1025 426 1047 q 460 963 464 1003 l 460 958 q 447 920 457 932 q 423 904 436 908 q 400 895 410 900 q 389 878 390 890 l 388 858 l 329 858 z "},"Ữ":{"ha":572,"x_min":42,"x_max":643,"o":"m 236 -17 q 154 -10 192 -17 q 90 17 117 -3 q 53 77 64 38 q 51 183 42 117 l 140 821 l 249 821 l 156 158 q 161 91 150 114 q 195 60 172 68 q 244 51 218 51 q 297 60 272 51 q 341 91 322 68 q 365 158 360 114 l 458 821 l 564 821 l 475 183 q 444 78 465 118 q 391 17 422 38 q 320 -10 360 -3 q 236 -17 281 -17 m 471 771 l 474 821 l 493 821 q 568 883 558 821 l 571 907 l 643 907 l 642 888 q 590 799 633 828 q 471 771 546 769 m 422 888 q 390 894 403 888 q 358 913 376 901 q 333 929 347 921 q 303 938 319 938 q 273 925 286 938 q 254 889 260 913 l 217 889 q 250 962 225 933 q 311 990 275 990 q 348 983 332 990 q 379 964 364 975 q 405 949 393 956 q 431 943 417 943 q 462 954 450 943 q 481 988 474 965 l 522 988 q 484 915 513 942 q 422 888 456 888 z "},"Ű":{"ha":572,"x_min":42,"x_max":564,"o":"m 236 -17 q 154 -10 192 -17 q 90 17 117 -3 q 53 77 64 38 q 51 183 42 117 l 140 821 l 249 821 l 156 158 q 161 91 150 114 q 195 60 172 68 q 244 51 218 51 q 297 60 272 51 q 341 91 322 68 q 365 158 360 114 l 458 821 l 564 821 l 475 183 q 444 78 465 118 q 391 17 422 38 q 320 -10 360 -3 q 236 -17 281 -17 m 281 874 l 331 1004 l 419 1004 l 326 874 l 281 874 m 389 874 l 449 1004 l 538 1004 l 439 874 l 389 874 z "},"Ū":{"ha":572,"x_min":42,"x_max":564,"o":"m 236 -17 q 154 -10 192 -17 q 90 17 117 -3 q 53 77 64 38 q 51 183 42 117 l 140 821 l 249 821 l 156 158 q 161 91 150 114 q 195 60 172 68 q 244 51 218 51 q 297 60 272 51 q 341 91 322 68 q 365 158 360 114 l 458 821 l 564 821 l 475 183 q 444 78 465 118 q 391 17 422 38 q 320 -10 360 -3 q 236 -17 281 -17 m 232 901 l 239 958 l 504 958 l 497 901 l 232 901 z "},"Ų":{"ha":572,"x_min":42,"x_max":564,"o":"m 236 -17 q 154 -10 192 -17 q 90 17 117 -3 q 53 77 64 38 q 51 183 42 117 l 140 821 l 249 821 l 156 158 q 161 91 150 114 q 195 60 172 68 q 244 51 218 51 q 297 60 272 51 q 341 91 322 68 q 365 158 360 114 l 458 821 l 564 821 l 475 183 q 444 78 465 118 q 391 17 422 38 q 320 -10 360 -3 q 236 -17 281 -17 m 233 -192 q 165 -167 190 -192 q 144 -108 139 -143 q 183 -39 150 -69 q 256 1 217 -8 l 304 0 q 243 -42 265 -15 q 218 -94 221 -68 q 230 -135 214 -121 q 263 -149 246 -149 q 284 -146 275 -149 q 299 -140 293 -143 l 308 -174 q 281 -185 299 -178 q 233 -192 263 -192 z "},"Ů":{"ha":572,"x_min":42,"x_max":564,"o":"m 236 -17 q 154 -10 192 -17 q 90 17 117 -3 q 53 77 64 38 q 51 183 42 117 l 140 821 l 249 821 l 156 158 q 161 91 150 114 q 195 60 172 68 q 244 51 218 51 q 297 60 272 51 q 341 91 322 68 q 365 158 360 114 l 458 821 l 564 821 l 475 183 q 444 78 465 118 q 391 17 422 38 q 320 -10 360 -3 q 236 -17 281 -17 m 357 856 q 281 887 308 856 q 260 961 254 918 q 303 1037 267 1006 q 388 1068 339 1068 q 465 1037 438 1068 q 486 961 492 1006 q 442 887 479 918 q 357 856 404 856 m 364 903 q 413 919 393 903 q 435 961 432 936 q 424 1005 439 989 q 381 1021 408 1021 q 334 1005 353 1021 q 311 961 315 989 q 322 919 308 936 q 364 903 336 903 z "},"Ў":{"ha":483,"x_min":-14,"x_max":524,"o":"m 78 -14 q 26 -10 51 -14 q -14 -3 1 -7 l -7 56 q 15 52 3 54 q 40 50 26 50 q 81 56 60 50 q 115 86 101 63 q 135 117 126 100 q 143 158 144 133 l 88 821 l 199 821 l 228 244 l 226 244 l 422 821 l 524 821 l 290 182 q 204 31 251 75 q 78 -14 157 -14 m 311 872 q 244 885 269 872 q 206 918 218 899 q 190 960 193 938 q 189 1000 188 982 l 250 1000 q 269 944 249 963 q 321 926 289 926 q 379 944 354 926 q 414 1000 404 961 l 475 1000 q 450 940 469 969 q 397 892 431 911 q 311 872 364 872 z "},"Ũ":{"ha":572,"x_min":42,"x_max":564,"o":"m 236 -17 q 154 -10 192 -17 q 90 17 117 -3 q 53 77 64 38 q 51 183 42 117 l 140 821 l 249 821 l 156 158 q 161 91 150 114 q 195 60 172 68 q 244 51 218 51 q 297 60 272 51 q 341 91 322 68 q 365 158 360 114 l 458 821 l 564 821 l 475 183 q 444 78 465 118 q 391 17 422 38 q 320 -10 360 -3 q 236 -17 281 -17 m 422 888 q 390 894 403 888 q 358 913 376 901 q 333 929 347 921 q 303 938 319 938 q 273 925 286 938 q 254 889 260 913 l 217 889 q 250 962 225 933 q 311 990 275 990 q 348 983 332 990 q 379 964 364 975 q 405 949 393 956 q 431 943 417 943 q 462 954 450 943 q 481 988 474 965 l 522 988 q 484 915 513 942 q 422 888 456 888 z "},"V":{"ha":490,"x_min":92,"x_max":532,"o":"m 124 0 l 92 821 l 201 821 l 215 129 l 214 129 l 426 821 l 532 821 l 265 0 l 124 0 z "},"В":{"ha":569,"x_min":31,"x_max":557,"o":"m 31 0 l 146 821 l 410 821 q 519 787 481 821 q 547 683 557 753 l 533 586 q 513 517 528 547 q 475 469 497 488 q 426 444 453 451 q 381 436 400 438 l 381 438 q 431 431 407 438 q 472 408 456 425 q 499 358 490 389 q 500 286 507 328 l 485 169 q 447 63 475 100 q 377 13 419 26 q 279 0 335 0 l 31 0 m 146 60 l 265 60 q 317 68 294 60 q 356 102 340 76 q 376 176 371 128 l 393 285 q 375 369 403 349 q 301 390 347 390 l 193 390 l 146 60 m 203 460 l 310 460 q 390 488 360 460 q 428 574 419 517 l 442 665 q 427 737 449 714 q 371 760 406 760 l 244 760 l 203 460 z "},"W":{"ha":781,"x_min":92,"x_max":822,"o":"m 103 0 l 92 821 l 201 821 l 203 144 l 414 821 l 500 821 l 519 146 l 713 821 l 822 821 l 576 0 l 453 0 l 424 583 l 229 0 l 103 0 z "},"Ẃ":{"ha":781,"x_min":92,"x_max":822,"o":"m 103 0 l 92 821 l 201 821 l 203 144 l 414 821 l 500 821 l 519 146 l 713 821 l 822 821 l 576 0 l 453 0 l 424 583 l 229 0 l 103 0 m 379 881 l 506 1000 l 610 1000 l 444 881 l 379 881 z "},"Ŵ":{"ha":781,"x_min":92,"x_max":822,"o":"m 103 0 l 92 821 l 201 821 l 203 144 l 414 821 l 500 821 l 519 146 l 713 821 l 822 821 l 576 0 l 453 0 l 424 583 l 229 0 l 103 0 m 304 875 l 450 1003 l 517 1003 l 625 875 l 556 875 l 476 953 l 376 875 l 304 875 z "},"Ẅ":{"ha":781,"x_min":92,"x_max":822,"o":"m 103 0 l 92 821 l 201 821 l 203 144 l 414 821 l 500 821 l 519 146 l 713 821 l 822 821 l 576 0 l 453 0 l 424 583 l 229 0 l 103 0 m 401 889 q 366 903 381 889 q 351 939 351 918 q 366 973 351 960 q 401 986 381 986 q 438 973 424 986 q 453 939 453 960 q 438 903 453 918 q 401 889 424 889 m 546 889 q 509 903 524 889 q 494 939 494 918 q 509 973 494 960 q 546 986 524 986 q 581 973 567 986 q 596 939 596 960 q 581 903 596 918 q 546 889 567 889 z "},"Ẁ":{"ha":781,"x_min":92,"x_max":822,"o":"m 103 0 l 92 821 l 201 821 l 203 144 l 414 821 l 500 821 l 519 146 l 713 821 l 822 821 l 576 0 l 453 0 l 424 583 l 229 0 l 103 0 m 458 881 l 315 997 l 421 997 l 529 881 l 458 881 z "},"X":{"ha":463,"x_min":-29,"x_max":508,"o":"m -29 0 l 160 419 l 99 821 l 204 821 l 251 494 l 397 821 l 508 821 l 325 418 l 389 0 l 282 0 l 229 326 l 85 0 l -29 0 z "},"Y":{"ha":464,"x_min":86,"x_max":510,"o":"m 124 0 l 174 357 l 86 821 l 196 821 l 247 508 l 249 474 l 261 508 l 408 821 l 510 821 l 281 351 l 231 0 l 124 0 z "},"Ý":{"ha":464,"x_min":86,"x_max":510,"o":"m 124 0 l 174 357 l 86 821 l 196 821 l 247 508 l 249 474 l 261 508 l 408 821 l 510 821 l 281 351 l 231 0 l 124 0 m 219 881 l 346 1000 l 450 1000 l 285 881 l 219 881 z "},"Ѣ":{"ha":611,"x_min":74,"x_max":576,"o":"m 103 0 l 218 819 l 324 819 l 293 604 l 426 604 q 516 588 482 604 q 563 533 550 571 q 567 433 576 496 l 535 207 q 510 106 526 146 q 469 42 494 65 q 410 10 444 19 q 329 0 375 0 l 103 0 m 217 58 l 317 58 q 379 75 357 58 q 413 126 401 92 q 431 211 424 160 l 458 410 q 461 474 463 446 q 442 520 460 503 q 381 538 425 538 l 283 538 q 251 298 268 419 q 217 58 233 176 m 74 700 l 85 758 l 497 758 l 488 700 l 74 700 z "},"Ŷ":{"ha":464,"x_min":86,"x_max":510,"o":"m 124 0 l 174 357 l 86 821 l 196 821 l 247 508 l 249 474 l 261 508 l 408 821 l 510 821 l 281 351 l 231 0 l 124 0 m 146 875 l 292 1003 l 358 1003 l 467 875 l 397 875 l 318 953 l 218 875 l 146 875 z "},"Ÿ":{"ha":464,"x_min":86,"x_max":510,"o":"m 124 0 l 174 357 l 86 821 l 196 821 l 247 508 l 249 474 l 261 508 l 408 821 l 510 821 l 281 351 l 231 0 l 124 0 m 243 889 q 208 903 222 889 q 193 939 193 918 q 208 973 193 960 q 243 986 222 986 q 280 973 265 986 q 294 939 294 960 q 280 903 294 918 q 243 889 265 889 m 388 889 q 351 903 365 889 q 336 939 336 918 q 351 973 336 960 q 388 986 365 986 q 423 973 408 986 q 438 939 438 960 q 423 903 438 918 q 388 889 408 889 z "},"Ỵ":{"ha":464,"x_min":86,"x_max":510,"o":"m 124 0 l 174 357 l 86 821 l 196 821 l 247 508 l 249 474 l 261 508 l 408 821 l 510 821 l 281 351 l 231 0 l 124 0 m 168 -157 q 131 -142 146 -157 q 117 -107 117 -128 q 131 -74 117 -87 q 168 -60 146 -60 q 203 -74 189 -60 q 218 -107 218 -87 q 203 -142 218 -128 q 168 -157 189 -157 z "},"Ы":{"ha":763,"x_min":31,"x_max":750,"o":"m 31 0 l 147 819 l 253 819 l 222 604 l 356 604 q 445 588 411 604 q 492 533 479 571 q 496 433 506 496 l 464 207 q 440 106 456 146 q 399 42 424 65 q 339 10 374 19 q 258 0 304 0 l 31 0 m 146 58 l 246 58 q 308 75 286 58 q 342 126 331 92 q 360 211 353 160 q 373 310 365 257 q 388 410 381 363 q 391 474 393 446 q 372 520 389 503 q 310 538 354 538 l 213 538 q 180 298 197 419 q 146 58 163 176 m 526 0 l 643 821 l 750 821 l 633 0 l 526 0 z "},"Ỳ":{"ha":464,"x_min":86,"x_max":510,"o":"m 124 0 l 174 357 l 86 821 l 196 821 l 247 508 l 249 474 l 261 508 l 408 821 l 510 821 l 281 351 l 231 0 l 124 0 m 300 881 l 157 997 l 263 997 l 371 881 l 300 881 z "},"Ỷ":{"ha":464,"x_min":86,"x_max":510,"o":"m 124 0 l 174 357 l 86 821 l 196 821 l 247 508 l 249 474 l 261 508 l 408 821 l 510 821 l 281 351 l 231 0 l 124 0 m 275 858 l 278 888 q 296 915 281 907 q 326 930 311 922 q 343 957 342 938 l 343 967 q 340 993 344 981 q 315 1006 335 1006 q 279 974 288 1006 l 228 982 q 261 1031 238 1014 q 326 1047 285 1047 q 391 1025 372 1047 q 406 963 410 1003 l 406 958 q 392 920 403 932 q 369 904 382 908 q 346 895 356 900 q 335 878 336 890 l 333 858 l 275 858 z "},"Ї":{"ha":267,"x_min":31,"x_max":339,"o":"m 31 0 l 147 821 l 254 821 l 138 0 l 31 0 m 146 889 q 110 903 125 889 q 96 939 96 918 q 110 973 96 960 q 146 986 125 986 q 183 973 168 986 q 197 939 197 960 q 183 903 197 918 q 146 889 168 889 m 290 889 q 253 903 268 889 q 239 939 239 918 q 253 973 239 960 q 290 986 268 986 q 326 973 311 986 q 340 939 340 960 q 326 903 340 918 q 290 889 311 889 z "},"Ỹ":{"ha":464,"x_min":86,"x_max":510,"o":"m 124 0 l 174 357 l 86 821 l 196 821 l 247 508 l 249 474 l 261 508 l 408 821 l 510 821 l 281 351 l 231 0 l 124 0 m 368 888 q 335 894 349 888 q 304 913 322 901 q 279 929 293 921 q 249 938 265 938 q 219 925 232 938 q 200 889 206 913 l 163 889 q 196 962 171 933 q 257 990 221 990 q 294 983 278 990 q 325 964 310 975 q 351 949 339 956 q 376 943 363 943 q 408 954 396 943 q 426 988 419 965 l 468 988 q 430 915 458 942 q 368 888 401 888 z "},"Ѫ":{"ha":894,"x_min":-8,"x_max":935,"o":"m -8 0 l 121 324 q 156 390 136 360 q 204 438 175 419 q 276 458 233 457 l 367 458 l 79 746 l 90 821 l 935 821 l 924 746 l 557 460 l 650 457 q 717 438 693 457 q 752 389 740 419 q 767 325 764 358 l 804 0 l 688 0 l 658 310 q 651 358 657 335 q 633 400 644 382 q 600 425 622 418 l 514 425 l 453 0 l 343 0 l 401 425 l 315 425 q 260 382 281 414 q 226 314 240 350 l 108 0 l -8 0 m 465 492 l 797 746 l 204 746 l 465 492 z "},"Z":{"ha":393,"x_min":-29,"x_max":432,"o":"m -29 0 l -18 72 l 299 744 l 92 744 l 103 821 l 432 821 l 424 761 l 97 76 l 328 76 l 315 0 l -29 0 z "},"Ź":{"ha":393,"x_min":-29,"x_max":432,"o":"m -29 0 l -18 72 l 299 744 l 92 744 l 103 821 l 432 821 l 424 761 l 97 76 l 328 76 l 315 0 l -29 0 m 185 881 l 311 1000 l 415 1000 l 250 881 l 185 881 z "},"Ž":{"ha":393,"x_min":-29,"x_max":449,"o":"m -29 0 l -18 72 l 299 744 l 92 744 l 103 821 l 432 821 l 424 761 l 97 76 l 328 76 l 315 0 l -29 0 m 236 875 l 129 1003 l 200 1003 l 278 925 l 379 1003 l 449 1003 l 303 875 l 236 875 z "},"Ż":{"ha":393,"x_min":-29,"x_max":432,"o":"m -29 0 l -18 72 l 299 744 l 92 744 l 103 821 l 432 821 l 424 761 l 97 76 l 328 76 l 315 0 l -29 0 m 290 885 q 249 901 267 885 q 231 943 231 918 q 249 984 231 967 q 292 1001 267 1001 q 334 984 317 1001 q 351 943 351 967 q 334 901 353 918 q 290 885 315 885 z "},"З":{"ha":557,"x_min":25,"x_max":547,"o":"m 226 -10 q 102 16 147 -10 q 41 88 57 42 q 33 193 25 133 l 46 279 l 154 279 l 144 214 q 158 108 136 146 q 236 68 179 69 q 322 103 288 68 q 364 197 356 139 l 375 275 q 350 361 383 332 q 251 392 317 390 l 175 392 l 183 457 l 263 457 q 321 467 293 457 q 369 497 349 478 q 399 534 389 514 q 413 578 410 554 l 419 628 q 407 713 426 678 q 332 747 388 747 q 244 710 274 747 q 206 613 214 672 l 201 568 l 92 568 l 99 633 q 172 775 113 725 q 343 825 232 825 q 503 778 458 825 q 535 640 547 731 l 528 593 q 475 478 518 521 q 371 421 432 435 q 465 367 436 413 q 483 250 494 321 l 475 193 q 439 85 467 131 q 360 15 411 39 q 226 -10 308 -10 z "},"Ж":{"ha":811,"x_min":-37,"x_max":857,"o":"m -37 0 l 228 425 l 86 821 l 210 821 l 325 456 l 364 456 l 415 819 l 524 819 l 472 456 l 513 456 l 732 821 l 857 821 l 601 425 l 746 0 l 625 0 l 506 393 l 464 393 l 408 0 l 300 0 l 356 393 l 315 393 l 83 0 l -37 0 z "},"a":{"ha":508,"x_min":18,"x_max":494,"o":"m 161 -11 q 112 -6 139 -11 q 62 16 85 -1 q 28 71 39 33 q 28 175 18 108 l 85 538 q 124 647 96 613 q 187 690 151 681 q 256 699 222 699 q 337 682 303 699 q 381 635 371 665 l 388 688 l 494 688 l 397 0 l 310 0 l 325 104 q 294 53 314 79 q 242 8 274 26 q 161 -11 210 -11 m 196 53 q 243 68 222 53 q 278 107 264 83 q 303 157 293 131 q 317 206 313 183 q 324 240 322 228 l 372 576 q 362 597 369 583 q 337 623 354 611 q 283 635 319 635 q 224 617 244 635 q 197 569 204 599 q 183 500 189 539 l 131 157 q 131 101 126 122 q 148 69 136 79 q 172 56 160 60 q 196 53 185 53 z "},"а":{"ha":508,"x_min":18,"x_max":494,"o":"m 161 -11 q 112 -6 139 -11 q 62 16 85 -1 q 28 71 39 33 q 28 175 18 108 l 85 538 q 124 647 96 613 q 187 690 151 681 q 256 699 222 699 q 337 682 303 699 q 381 635 371 665 l 388 688 l 494 688 l 397 0 l 310 0 l 325 104 q 294 53 314 79 q 242 8 274 26 q 161 -11 210 -11 m 196 53 q 243 68 222 53 q 278 107 264 83 q 303 157 293 131 q 317 206 313 183 q 324 240 322 228 l 372 576 q 362 597 369 583 q 337 623 354 611 q 283 635 319 635 q 224 617 244 635 q 197 569 204 599 q 183 500 189 539 l 131 157 q 131 101 126 122 q 148 69 136 79 q 172 56 160 60 q 196 53 185 53 z "},"á":{"ha":508,"x_min":18,"x_max":494,"o":"m 161 -11 q 112 -6 139 -11 q 62 16 85 -1 q 28 71 39 33 q 28 175 18 108 l 85 538 q 124 647 96 613 q 187 690 151 681 q 256 699 222 699 q 337 682 303 699 q 381 635 371 665 l 388 688 l 494 688 l 397 0 l 310 0 l 325 104 q 294 53 314 79 q 242 8 274 26 q 161 -11 210 -11 m 196 53 q 243 68 222 53 q 278 107 264 83 q 303 157 293 131 q 317 206 313 183 q 324 240 322 228 l 372 576 q 362 597 369 583 q 337 623 354 611 q 283 635 319 635 q 224 617 244 635 q 197 569 204 599 q 183 500 189 539 l 131 157 q 131 101 126 122 q 148 69 136 79 q 172 56 160 60 q 196 53 185 53 m 261 758 l 350 890 l 457 890 l 328 758 l 261 758 z "},"ă":{"ha":508,"x_min":18,"x_max":494,"o":"m 161 -11 q 112 -6 139 -11 q 62 16 85 -1 q 28 71 39 33 q 28 175 18 108 l 85 538 q 124 647 96 613 q 187 690 151 681 q 256 699 222 699 q 337 682 303 699 q 381 635 371 665 l 388 688 l 494 688 l 397 0 l 310 0 l 325 104 q 294 53 314 79 q 242 8 274 26 q 161 -11 210 -11 m 196 53 q 243 68 222 53 q 278 107 264 83 q 303 157 293 131 q 317 206 313 183 q 324 240 322 228 l 372 576 q 362 597 369 583 q 337 623 354 611 q 283 635 319 635 q 224 617 244 635 q 197 569 204 599 q 183 500 189 539 l 131 157 q 131 101 126 122 q 148 69 136 79 q 172 56 160 60 q 196 53 185 53 m 319 758 q 252 772 278 758 q 214 804 226 785 q 199 846 201 824 q 197 886 196 868 l 258 886 q 277 831 257 849 q 329 813 297 813 q 388 830 363 813 q 422 886 413 847 l 483 886 q 458 826 478 856 q 406 778 439 797 q 319 758 372 758 z "},"ắ":{"ha":508,"x_min":18,"x_max":494,"o":"m 161 -11 q 112 -6 139 -11 q 62 16 85 -1 q 28 71 39 33 q 28 175 18 108 l 85 538 q 124 647 96 613 q 187 690 151 681 q 256 699 222 699 q 337 682 303 699 q 381 635 371 665 l 388 688 l 494 688 l 397 0 l 310 0 l 325 104 q 294 53 314 79 q 242 8 274 26 q 161 -11 210 -11 m 196 53 q 243 68 222 53 q 278 107 264 83 q 303 157 293 131 q 317 206 313 183 q 324 240 322 228 l 372 576 q 362 597 369 583 q 337 623 354 611 q 283 635 319 635 q 224 617 244 635 q 197 569 204 599 q 183 500 189 539 l 131 157 q 131 101 126 122 q 148 69 136 79 q 172 56 160 60 q 196 53 185 53 m 319 758 q 252 772 278 758 q 214 804 226 785 q 199 846 201 824 q 197 886 196 868 l 258 886 q 277 831 257 849 q 329 813 297 813 q 388 830 363 813 q 422 886 413 847 l 483 886 q 458 826 478 856 q 406 778 439 797 q 319 758 372 758 m 286 911 l 375 1043 l 482 1043 l 353 911 l 286 911 z "},"ặ":{"ha":508,"x_min":18,"x_max":494,"o":"m 161 -11 q 112 -6 139 -11 q 62 16 85 -1 q 28 71 39 33 q 28 175 18 108 l 85 538 q 124 647 96 613 q 187 690 151 681 q 256 699 222 699 q 337 682 303 699 q 381 635 371 665 l 388 688 l 494 688 l 397 0 l 310 0 l 325 104 q 294 53 314 79 q 242 8 274 26 q 161 -11 210 -11 m 196 53 q 243 68 222 53 q 278 107 264 83 q 303 157 293 131 q 317 206 313 183 q 324 240 322 228 l 372 576 q 362 597 369 583 q 337 623 354 611 q 283 635 319 635 q 224 617 244 635 q 197 569 204 599 q 183 500 189 539 l 131 157 q 131 101 126 122 q 148 69 136 79 q 172 56 160 60 q 196 53 185 53 m 192 -157 q 155 -142 169 -157 q 140 -107 140 -128 q 155 -74 140 -87 q 192 -60 169 -60 q 227 -74 213 -60 q 242 -107 242 -87 q 227 -142 242 -128 q 192 -157 213 -157 m 319 758 q 252 772 278 758 q 214 804 226 785 q 199 846 201 824 q 197 886 196 868 l 258 886 q 277 831 257 849 q 329 813 297 813 q 388 830 363 813 q 422 886 413 847 l 483 886 q 458 826 478 856 q 406 778 439 797 q 319 758 372 758 z "},"ằ":{"ha":508,"x_min":18,"x_max":494,"o":"m 161 -11 q 112 -6 139 -11 q 62 16 85 -1 q 28 71 39 33 q 28 175 18 108 l 85 538 q 124 647 96 613 q 187 690 151 681 q 256 699 222 699 q 337 682 303 699 q 381 635 371 665 l 388 688 l 494 688 l 397 0 l 310 0 l 325 104 q 294 53 314 79 q 242 8 274 26 q 161 -11 210 -11 m 196 53 q 243 68 222 53 q 278 107 264 83 q 303 157 293 131 q 317 206 313 183 q 324 240 322 228 l 372 576 q 362 597 369 583 q 337 623 354 611 q 283 635 319 635 q 224 617 244 635 q 197 569 204 599 q 183 500 189 539 l 131 157 q 131 101 126 122 q 148 69 136 79 q 172 56 160 60 q 196 53 185 53 m 319 758 q 252 772 278 758 q 214 804 226 785 q 199 846 201 824 q 197 886 196 868 l 258 886 q 277 831 257 849 q 329 813 297 813 q 388 830 363 813 q 422 886 413 847 l 483 886 q 458 826 478 856 q 406 778 439 797 q 319 758 372 758 m 332 911 l 231 1043 l 338 1043 l 399 911 l 332 911 z "},"ẳ":{"ha":508,"x_min":18,"x_max":494,"o":"m 161 -11 q 112 -6 139 -11 q 62 16 85 -1 q 28 71 39 33 q 28 175 18 108 l 85 538 q 124 647 96 613 q 187 690 151 681 q 256 699 222 699 q 337 682 303 699 q 381 635 371 665 l 388 688 l 494 688 l 397 0 l 310 0 l 325 104 q 294 53 314 79 q 242 8 274 26 q 161 -11 210 -11 m 196 53 q 243 68 222 53 q 278 107 264 83 q 303 157 293 131 q 317 206 313 183 q 324 240 322 228 l 372 576 q 362 597 369 583 q 337 623 354 611 q 283 635 319 635 q 224 617 244 635 q 197 569 204 599 q 183 500 189 539 l 131 157 q 131 101 126 122 q 148 69 136 79 q 172 56 160 60 q 196 53 185 53 m 319 758 q 252 772 278 758 q 214 804 226 785 q 199 846 201 824 q 197 886 196 868 l 258 886 q 277 831 257 849 q 329 813 297 813 q 388 830 363 813 q 422 886 413 847 l 483 886 q 458 826 478 856 q 406 778 439 797 q 319 758 372 758 m 311 901 l 314 931 q 332 958 317 950 q 363 973 347 965 q 379 1000 378 981 l 379 1010 q 376 1036 381 1024 q 351 1049 371 1049 q 315 1017 324 1049 l 264 1025 q 297 1074 274 1057 q 363 1090 321 1090 q 427 1068 408 1090 q 442 1006 446 1046 l 442 1001 q 428 963 439 975 q 405 947 418 951 q 382 938 392 943 q 371 921 372 933 l 369 901 l 311 901 z "},"ẵ":{"ha":508,"x_min":18,"x_max":508,"o":"m 161 -11 q 112 -6 139 -11 q 62 16 85 -1 q 28 71 39 33 q 28 175 18 108 l 85 538 q 124 647 96 613 q 187 690 151 681 q 256 699 222 699 q 337 682 303 699 q 381 635 371 665 l 388 688 l 494 688 l 397 0 l 310 0 l 325 104 q 294 53 314 79 q 242 8 274 26 q 161 -11 210 -11 m 196 53 q 243 68 222 53 q 278 107 264 83 q 303 157 293 131 q 317 206 313 183 q 324 240 322 228 l 372 576 q 362 597 369 583 q 337 623 354 611 q 283 635 319 635 q 224 617 244 635 q 197 569 204 599 q 183 500 189 539 l 131 157 q 131 101 126 122 q 148 69 136 79 q 172 56 160 60 q 196 53 185 53 m 319 758 q 252 772 278 758 q 214 804 226 785 q 199 846 201 824 q 197 886 196 868 l 258 886 q 277 831 257 849 q 329 813 297 813 q 388 830 363 813 q 422 886 413 847 l 483 886 q 458 826 478 856 q 406 778 439 797 q 319 758 372 758 m 408 921 q 376 928 389 921 q 344 946 363 935 q 319 963 333 954 q 289 971 306 971 q 259 958 272 971 q 240 922 246 946 l 203 922 q 236 995 211 967 q 297 1024 261 1024 q 334 1016 318 1024 q 365 997 350 1008 q 391 983 379 989 q 417 976 403 976 q 448 988 436 976 q 467 1021 460 999 l 508 1021 q 470 948 499 975 q 408 921 442 921 z "},"ǎ":{"ha":508,"x_min":18,"x_max":504,"o":"m 161 -11 q 112 -6 139 -11 q 62 16 85 -1 q 28 71 39 33 q 28 175 18 108 l 85 538 q 124 647 96 613 q 187 690 151 681 q 256 699 222 699 q 337 682 303 699 q 381 635 371 665 l 388 688 l 494 688 l 397 0 l 310 0 l 325 104 q 294 53 314 79 q 242 8 274 26 q 161 -11 210 -11 m 196 53 q 243 68 222 53 q 278 107 264 83 q 303 157 293 131 q 317 206 313 183 q 324 240 322 228 l 372 576 q 362 597 369 583 q 337 623 354 611 q 283 635 319 635 q 224 617 244 635 q 197 569 204 599 q 183 500 189 539 l 131 157 q 131 101 126 122 q 148 69 136 79 q 172 56 160 60 q 196 53 185 53 m 293 758 l 186 892 l 254 892 l 333 810 l 438 892 l 504 892 l 358 758 l 293 758 z "},"â":{"ha":508,"x_min":18,"x_max":494,"o":"m 161 -11 q 112 -6 139 -11 q 62 16 85 -1 q 28 71 39 33 q 28 175 18 108 l 85 538 q 124 647 96 613 q 187 690 151 681 q 256 699 222 699 q 337 682 303 699 q 381 635 371 665 l 388 688 l 494 688 l 397 0 l 310 0 l 325 104 q 294 53 314 79 q 242 8 274 26 q 161 -11 210 -11 m 196 53 q 243 68 222 53 q 278 107 264 83 q 303 157 293 131 q 317 206 313 183 q 324 240 322 228 l 372 576 q 362 597 369 583 q 337 623 354 611 q 283 635 319 635 q 224 617 244 635 q 197 569 204 599 q 183 500 189 539 l 131 157 q 131 101 126 122 q 148 69 136 79 q 172 56 160 60 q 196 53 185 53 m 163 758 l 307 892 l 374 892 l 481 758 l 414 758 l 333 842 l 232 758 l 163 758 z "},"ấ":{"ha":508,"x_min":18,"x_max":674,"o":"m 161 -11 q 112 -6 139 -11 q 62 16 85 -1 q 28 71 39 33 q 28 175 18 108 l 85 538 q 124 647 96 613 q 187 690 151 681 q 256 699 222 699 q 337 682 303 699 q 381 635 371 665 l 388 688 l 494 688 l 397 0 l 310 0 l 325 104 q 294 53 314 79 q 242 8 274 26 q 161 -11 210 -11 m 196 53 q 243 68 222 53 q 278 107 264 83 q 303 157 293 131 q 317 206 313 183 q 324 240 322 228 l 372 576 q 362 597 369 583 q 337 623 354 611 q 283 635 319 635 q 224 617 244 635 q 197 569 204 599 q 183 500 189 539 l 131 157 q 131 101 126 122 q 148 69 136 79 q 172 56 160 60 q 196 53 185 53 m 163 758 l 307 892 l 374 892 l 481 758 l 414 758 l 333 842 l 232 758 l 163 758 m 478 838 l 567 969 l 674 969 l 544 838 l 478 838 z "},"ậ":{"ha":508,"x_min":18,"x_max":494,"o":"m 161 -11 q 112 -6 139 -11 q 62 16 85 -1 q 28 71 39 33 q 28 175 18 108 l 85 538 q 124 647 96 613 q 187 690 151 681 q 256 699 222 699 q 337 682 303 699 q 381 635 371 665 l 388 688 l 494 688 l 397 0 l 310 0 l 325 104 q 294 53 314 79 q 242 8 274 26 q 161 -11 210 -11 m 196 53 q 243 68 222 53 q 278 107 264 83 q 303 157 293 131 q 317 206 313 183 q 324 240 322 228 l 372 576 q 362 597 369 583 q 337 623 354 611 q 283 635 319 635 q 224 617 244 635 q 197 569 204 599 q 183 500 189 539 l 131 157 q 131 101 126 122 q 148 69 136 79 q 172 56 160 60 q 196 53 185 53 m 192 -157 q 155 -142 169 -157 q 140 -107 140 -128 q 155 -74 140 -87 q 192 -60 169 -60 q 227 -74 213 -60 q 242 -107 242 -87 q 227 -142 242 -128 q 192 -157 213 -157 m 163 758 l 307 892 l 374 892 l 481 758 l 414 758 l 333 842 l 232 758 l 163 758 z "},"ầ":{"ha":508,"x_min":18,"x_max":590,"o":"m 161 -11 q 112 -6 139 -11 q 62 16 85 -1 q 28 71 39 33 q 28 175 18 108 l 85 538 q 124 647 96 613 q 187 690 151 681 q 256 699 222 699 q 337 682 303 699 q 381 635 371 665 l 388 688 l 494 688 l 397 0 l 310 0 l 325 104 q 294 53 314 79 q 242 8 274 26 q 161 -11 210 -11 m 196 53 q 243 68 222 53 q 278 107 264 83 q 303 157 293 131 q 317 206 313 183 q 324 240 322 228 l 372 576 q 362 597 369 583 q 337 623 354 611 q 283 635 319 635 q 224 617 244 635 q 197 569 204 599 q 183 500 189 539 l 131 157 q 131 101 126 122 q 148 69 136 79 q 172 56 160 60 q 196 53 185 53 m 163 758 l 307 892 l 374 892 l 481 758 l 414 758 l 333 842 l 232 758 l 163 758 m 524 838 l 422 969 l 529 969 l 590 838 l 524 838 z "},"ẩ":{"ha":508,"x_min":18,"x_max":639,"o":"m 161 -11 q 112 -6 139 -11 q 62 16 85 -1 q 28 71 39 33 q 28 175 18 108 l 85 538 q 124 647 96 613 q 187 690 151 681 q 256 699 222 699 q 337 682 303 699 q 381 635 371 665 l 388 688 l 494 688 l 397 0 l 310 0 l 325 104 q 294 53 314 79 q 242 8 274 26 q 161 -11 210 -11 m 196 53 q 243 68 222 53 q 278 107 264 83 q 303 157 293 131 q 317 206 313 183 q 324 240 322 228 l 372 576 q 362 597 369 583 q 337 623 354 611 q 283 635 319 635 q 224 617 244 635 q 197 569 204 599 q 183 500 189 539 l 131 157 q 131 101 126 122 q 148 69 136 79 q 172 56 160 60 q 196 53 185 53 m 163 758 l 307 892 l 374 892 l 481 758 l 414 758 l 333 842 l 232 758 l 163 758 m 503 828 l 506 857 q 524 884 508 876 q 554 899 539 892 q 571 926 569 907 l 571 936 q 567 963 572 950 q 543 975 563 975 q 507 943 515 975 l 456 951 q 489 1000 465 983 q 554 1017 513 1017 q 619 994 600 1017 q 633 932 638 972 l 633 928 q 620 890 631 901 q 597 874 610 878 q 574 865 583 869 q 563 847 564 860 l 561 828 l 503 828 z "},"ẫ":{"ha":508,"x_min":18,"x_max":500,"o":"m 161 -11 q 112 -6 139 -11 q 62 16 85 -1 q 28 71 39 33 q 28 175 18 108 l 85 538 q 124 647 96 613 q 187 690 151 681 q 256 699 222 699 q 337 682 303 699 q 381 635 371 665 l 388 688 l 494 688 l 397 0 l 310 0 l 325 104 q 294 53 314 79 q 242 8 274 26 q 161 -11 210 -11 m 196 53 q 243 68 222 53 q 278 107 264 83 q 303 157 293 131 q 317 206 313 183 q 324 240 322 228 l 372 576 q 362 597 369 583 q 337 623 354 611 q 283 635 319 635 q 224 617 244 635 q 197 569 204 599 q 183 500 189 539 l 131 157 q 131 101 126 122 q 148 69 136 79 q 172 56 160 60 q 196 53 185 53 m 163 758 l 307 892 l 374 892 l 481 758 l 414 758 l 333 842 l 232 758 l 163 758 m 400 922 q 367 929 381 922 q 336 947 354 936 q 311 964 325 956 q 281 972 297 972 q 251 960 264 972 q 232 924 238 947 l 194 924 q 228 997 203 968 q 289 1025 253 1025 q 326 1017 310 1025 q 357 999 342 1010 q 383 984 371 990 q 408 978 394 978 q 440 989 428 978 q 458 1022 451 1000 l 500 1022 q 462 949 490 976 q 400 922 433 922 z "},"´":{"ha":178,"x_min":58,"x_max":254,"o":"m 58 758 l 147 890 l 254 890 l 125 758 l 58 758 z "},"́":{"ha":0,"x_min":58,"x_max":254,"o":"m 58 758 l 147 890 l 254 890 l 125 758 l 58 758 z "},"ä":{"ha":508,"x_min":18,"x_max":494,"o":"m 161 -11 q 112 -6 139 -11 q 62 16 85 -1 q 28 71 39 33 q 28 175 18 108 l 85 538 q 124 647 96 613 q 187 690 151 681 q 256 699 222 699 q 337 682 303 699 q 381 635 371 665 l 388 688 l 494 688 l 397 0 l 310 0 l 325 104 q 294 53 314 79 q 242 8 274 26 q 161 -11 210 -11 m 196 53 q 243 68 222 53 q 278 107 264 83 q 303 157 293 131 q 317 206 313 183 q 324 240 322 228 l 372 576 q 362 597 369 583 q 337 623 354 611 q 283 635 319 635 q 224 617 244 635 q 197 569 204 599 q 183 500 189 539 l 131 157 q 131 101 126 122 q 148 69 136 79 q 172 56 160 60 q 196 53 185 53 m 257 772 q 222 787 236 772 q 207 822 207 801 q 222 856 207 843 q 257 869 236 869 q 294 856 279 869 q 308 822 308 843 q 294 787 308 801 q 257 772 279 772 m 401 772 q 365 787 379 772 q 350 822 350 801 q 365 856 350 843 q 401 869 379 869 q 437 856 422 869 q 451 822 451 843 q 437 787 451 801 q 401 772 422 772 z "},"ạ":{"ha":508,"x_min":18,"x_max":494,"o":"m 161 -11 q 112 -6 139 -11 q 62 16 85 -1 q 28 71 39 33 q 28 175 18 108 l 85 538 q 124 647 96 613 q 187 690 151 681 q 256 699 222 699 q 337 682 303 699 q 381 635 371 665 l 388 688 l 494 688 l 397 0 l 310 0 l 325 104 q 294 53 314 79 q 242 8 274 26 q 161 -11 210 -11 m 196 53 q 243 68 222 53 q 278 107 264 83 q 303 157 293 131 q 317 206 313 183 q 324 240 322 228 l 372 576 q 362 597 369 583 q 337 623 354 611 q 283 635 319 635 q 224 617 244 635 q 197 569 204 599 q 183 500 189 539 l 131 157 q 131 101 126 122 q 148 69 136 79 q 172 56 160 60 q 196 53 185 53 m 192 -157 q 155 -142 169 -157 q 140 -107 140 -128 q 155 -74 140 -87 q 192 -60 169 -60 q 227 -74 213 -60 q 242 -107 242 -87 q 227 -142 242 -128 q 192 -157 213 -157 z "},"æ":{"ha":774,"x_min":17,"x_max":775,"o":"m 144 -7 q 102 -3 125 -7 q 58 14 79 0 q 27 58 38 28 q 25 144 17 89 l 35 218 q 92 326 44 286 q 208 394 140 365 q 294 435 261 417 q 346 474 328 453 q 368 525 364 494 l 374 565 q 368 612 378 596 q 339 635 358 628 q 296 642 319 642 q 220 610 242 642 q 190 515 199 579 l 182 457 l 85 457 l 94 525 q 122 616 101 576 q 185 678 142 656 q 306 701 228 701 q 413 682 379 701 q 456 628 447 663 q 457 550 464 594 l 386 49 l 333 115 q 251 20 301 47 q 144 -7 200 -7 m 196 64 q 283 102 253 64 q 322 208 313 140 l 353 417 q 303 380 336 396 q 239 344 271 364 q 170 294 196 319 q 139 225 144 268 l 131 167 q 133 100 124 122 q 160 71 143 78 q 196 64 178 64 m 492 -3 q 410 4 443 -3 q 356 31 376 11 q 331 89 336 50 q 335 193 325 128 l 382 528 q 444 658 393 615 q 590 700 494 700 q 734 663 693 700 q 761 528 775 626 l 736 349 l 450 349 l 424 154 q 431 74 415 94 q 499 53 446 53 q 555 62 535 53 q 587 94 575 71 q 604 160 599 118 l 617 247 l 722 247 l 715 199 q 688 94 706 133 q 644 33 671 54 q 579 5 617 13 q 492 -3 542 -3 m 457 400 l 638 400 l 657 539 q 650 617 665 593 q 581 642 635 642 q 506 617 528 642 q 476 539 485 593 l 457 400 z "},"à":{"ha":508,"x_min":18,"x_max":494,"o":"m 161 -11 q 112 -6 139 -11 q 62 16 85 -1 q 28 71 39 33 q 28 175 18 108 l 85 538 q 124 647 96 613 q 187 690 151 681 q 256 699 222 699 q 337 682 303 699 q 381 635 371 665 l 388 688 l 494 688 l 397 0 l 310 0 l 325 104 q 294 53 314 79 q 242 8 274 26 q 161 -11 210 -11 m 196 53 q 243 68 222 53 q 278 107 264 83 q 303 157 293 131 q 317 206 313 183 q 324 240 322 228 l 372 576 q 362 597 369 583 q 337 623 354 611 q 283 635 319 635 q 224 617 244 635 q 197 569 204 599 q 183 500 189 539 l 131 157 q 131 101 126 122 q 148 69 136 79 q 172 56 160 60 q 196 53 185 53 m 306 758 l 204 890 l 311 890 l 372 758 l 306 758 z "},"ả":{"ha":508,"x_min":18,"x_max":494,"o":"m 161 -11 q 112 -6 139 -11 q 62 16 85 -1 q 28 71 39 33 q 28 175 18 108 l 85 538 q 124 647 96 613 q 187 690 151 681 q 256 699 222 699 q 337 682 303 699 q 381 635 371 665 l 388 688 l 494 688 l 397 0 l 310 0 l 325 104 q 294 53 314 79 q 242 8 274 26 q 161 -11 210 -11 m 196 53 q 243 68 222 53 q 278 107 264 83 q 303 157 293 131 q 317 206 313 183 q 324 240 322 228 l 372 576 q 362 597 369 583 q 337 623 354 611 q 283 635 319 635 q 224 617 244 635 q 197 569 204 599 q 183 500 189 539 l 131 157 q 131 101 126 122 q 148 69 136 79 q 172 56 160 60 q 196 53 185 53 m 286 749 l 289 778 q 307 805 292 797 q 338 820 322 813 q 354 847 353 828 l 354 857 q 351 883 356 871 q 326 896 346 896 q 290 864 299 896 l 239 872 q 272 921 249 904 q 338 938 296 938 q 402 915 383 938 q 417 853 421 893 l 417 849 q 403 810 414 822 q 380 794 393 799 q 357 785 367 790 q 346 768 347 781 l 344 749 l 286 749 z "},"ā":{"ha":508,"x_min":18,"x_max":494,"o":"m 161 -11 q 112 -6 139 -11 q 62 16 85 -1 q 28 71 39 33 q 28 175 18 108 l 85 538 q 124 647 96 613 q 187 690 151 681 q 256 699 222 699 q 337 682 303 699 q 381 635 371 665 l 388 688 l 494 688 l 397 0 l 310 0 l 325 104 q 294 53 314 79 q 242 8 274 26 q 161 -11 210 -11 m 196 53 q 243 68 222 53 q 278 107 264 83 q 303 157 293 131 q 317 206 313 183 q 324 240 322 228 l 372 576 q 362 597 369 583 q 337 623 354 611 q 283 635 319 635 q 224 617 244 635 q 197 569 204 599 q 183 500 189 539 l 131 157 q 131 101 126 122 q 148 69 136 79 q 172 56 160 60 q 196 53 185 53 m 188 783 l 194 840 l 460 840 l 453 783 l 188 783 z "},"&":{"ha":661,"x_min":25,"x_max":617,"o":"m 213 -8 q 95 21 138 -8 q 39 101 53 50 q 35 221 25 151 q 84 351 46 299 q 186 419 122 403 q 168 473 175 439 q 168 551 161 507 q 228 664 181 624 q 363 704 275 704 q 441 699 404 704 q 503 685 478 693 q 539 672 529 678 l 526 593 q 500 601 524 594 q 444 614 476 608 q 375 619 411 619 q 308 603 333 619 q 272 560 282 586 q 263 503 261 533 q 278 447 265 474 q 300 410 283 435 q 336 356 317 385 q 373 303 356 326 q 397 271 390 281 l 418 413 l 617 413 l 607 343 l 482 343 q 474 283 478 307 q 467 242 469 258 q 460 206 464 225 q 523 139 492 169 q 572 97 554 108 l 560 -3 q 495 33 536 0 q 414 111 454 67 q 359 37 392 63 q 288 1 326 11 q 213 -8 250 -8 m 226 67 q 313 94 279 67 q 360 167 347 121 q 279 270 318 218 q 217 358 240 322 q 156 317 181 347 q 122 228 131 288 q 140 108 110 149 q 226 67 169 67 z "},"ą":{"ha":508,"x_min":18,"x_max":494,"o":"m 161 -11 q 112 -6 139 -11 q 62 16 85 -1 q 28 71 39 33 q 28 175 18 108 l 85 538 q 124 647 96 613 q 187 690 151 681 q 256 699 222 699 q 337 682 303 699 q 381 635 371 665 l 388 688 l 494 688 l 397 0 l 310 0 l 325 104 q 294 53 314 79 q 242 8 274 26 q 161 -11 210 -11 m 196 53 q 243 68 222 53 q 278 107 264 83 q 303 157 293 131 q 317 206 313 183 q 324 240 322 228 l 372 576 q 362 597 369 583 q 337 623 354 611 q 283 635 319 635 q 224 617 244 635 q 197 569 204 599 q 183 500 189 539 l 131 157 q 131 101 126 122 q 148 69 136 79 q 172 56 160 60 q 196 53 185 53 m 322 -192 q 253 -167 279 -192 q 233 -108 228 -143 q 272 -39 239 -69 q 344 1 306 -8 l 393 0 q 332 -42 354 -15 q 307 -94 310 -68 q 319 -135 303 -121 q 351 -149 335 -149 q 373 -146 364 -149 q 388 -140 382 -143 l 397 -174 q 369 -185 388 -178 q 322 -192 351 -192 z "},"≈":{"ha":689,"x_min":28,"x_max":661,"o":"m 488 443 q 401 459 442 444 q 318 488 360 474 q 225 504 276 503 q 161 485 188 506 q 129 442 135 465 l 69 442 q 103 513 79 483 q 164 560 128 543 q 242 575 200 576 q 327 560 288 574 q 409 533 367 546 q 500 518 451 519 q 565 535 540 517 q 593 575 589 553 l 661 575 q 622 491 650 521 q 558 451 593 461 q 488 443 522 442 m 447 151 q 360 168 401 153 q 277 198 319 183 q 185 214 235 213 q 120 195 147 215 q 89 150 93 175 l 28 150 q 63 223 38 193 q 124 269 88 253 q 200 285 160 286 q 288 269 247 283 q 369 242 328 256 q 460 228 411 229 q 524 244 500 226 q 553 285 547 263 l 619 285 q 581 201 610 231 q 517 161 553 171 q 447 151 481 151 z "},"å":{"ha":508,"x_min":18,"x_max":494,"o":"m 161 -11 q 112 -6 139 -11 q 62 16 85 -1 q 28 71 39 33 q 28 175 18 108 l 85 538 q 124 647 96 613 q 187 690 151 681 q 256 699 222 699 q 337 682 303 699 q 381 635 371 665 l 388 688 l 494 688 l 397 0 l 310 0 l 325 104 q 294 53 314 79 q 242 8 274 26 q 161 -11 210 -11 m 196 53 q 243 68 222 53 q 278 107 264 83 q 303 157 293 131 q 317 206 313 183 q 324 240 322 228 l 372 576 q 362 597 369 583 q 337 623 354 611 q 283 635 319 635 q 224 617 244 635 q 197 569 204 599 q 183 500 189 539 l 131 157 q 131 101 126 122 q 148 69 136 79 q 172 56 160 60 q 196 53 185 53 m 319 754 q 244 785 271 754 q 222 860 217 817 q 265 935 229 904 q 350 967 301 967 q 427 935 400 967 q 449 860 454 904 q 404 785 442 817 q 319 754 367 754 m 326 801 q 375 818 356 801 q 397 860 394 835 q 386 903 401 888 q 343 919 371 919 q 297 903 315 919 q 274 860 278 888 q 285 818 271 835 q 326 801 299 801 z "},"^":{"ha":557,"x_min":39,"x_max":479,"o":"m 39 688 l 271 950 l 326 950 l 479 688 l 389 688 l 285 861 l 133 688 l 39 688 z "},"~":{"ha":689,"x_min":49,"x_max":640,"o":"m 467 707 q 381 722 422 708 q 297 751 339 736 q 204 768 256 767 q 141 749 167 769 q 110 706 115 729 l 49 706 q 83 778 58 747 q 143 824 107 808 q 221 839 179 840 q 307 825 267 839 q 389 797 347 811 q 479 782 431 783 q 544 799 521 781 q 572 839 568 817 l 640 839 q 601 756 629 785 q 538 716 574 726 q 467 707 501 706 z "},"*":{"ha":776,"x_min":64,"x_max":699,"o":"m 196 135 l 117 200 l 346 414 l 64 461 l 119 576 l 361 446 l 364 735 l 476 735 l 399 446 l 679 574 l 699 467 l 406 414 l 575 201 l 476 138 l 374 390 l 196 135 z "},"@":{"ha":974,"x_min":33,"x_max":944,"o":"m 413 -92 q 165 -40 250 -92 q 57 110 81 11 q 53 349 33 208 q 203 699 85 574 q 546 824 321 824 q 764 782 671 824 q 901 649 857 740 q 924 411 944 558 q 880 247 911 318 q 801 135 849 175 q 693 94 754 94 q 638 107 661 94 q 600 142 614 119 q 581 190 586 164 q 578 240 575 215 l 603 239 q 519 149 568 175 q 414 124 471 124 q 313 154 349 124 q 289 264 278 185 q 312 333 294 304 q 369 384 329 361 q 486 428 410 407 q 546 449 521 436 q 582 474 571 463 q 596 494 592 483 q 603 517 600 504 q 590 569 607 550 q 522 588 572 588 q 444 567 469 588 q 414 503 419 546 l 407 461 l 331 461 l 338 506 q 363 581 343 551 q 422 624 382 610 q 531 639 461 639 q 635 623 600 639 q 682 576 671 607 q 686 494 693 544 l 651 250 q 662 167 643 192 q 714 142 681 142 q 772 167 743 142 q 825 249 801 192 q 863 401 849 306 q 851 598 879 514 q 748 728 822 682 q 547 775 674 775 q 335 734 424 775 q 192 599 246 693 q 114 346 138 506 q 113 149 97 225 q 172 31 129 72 q 281 -26 215 -10 q 428 -43 346 -42 q 499 -39 456 -43 q 594 -27 543 -35 q 690 -8 644 -19 q 763 17 735 3 l 756 -35 q 678 -58 728 -44 q 560 -82 628 -72 q 413 -92 493 -92 m 447 183 q 513 200 486 183 q 556 240 540 217 q 575 283 572 263 l 593 413 q 542 398 572 407 q 486 378 513 389 q 422 349 446 363 q 386 316 399 335 q 368 267 374 297 q 380 203 363 224 q 447 183 397 183 z "},"ã":{"ha":508,"x_min":18,"x_max":494,"o":"m 161 -11 q 112 -6 139 -11 q 62 16 85 -1 q 28 71 39 33 q 28 175 18 108 l 85 538 q 124 647 96 613 q 187 690 151 681 q 256 699 222 699 q 337 682 303 699 q 381 635 371 665 l 388 688 l 494 688 l 397 0 l 310 0 l 325 104 q 294 53 314 79 q 242 8 274 26 q 161 -11 210 -11 m 196 53 q 243 68 222 53 q 278 107 264 83 q 303 157 293 131 q 317 206 313 183 q 324 240 322 228 l 372 576 q 362 597 369 583 q 337 623 354 611 q 283 635 319 635 q 224 617 244 635 q 197 569 204 599 q 183 500 189 539 l 131 157 q 131 101 126 122 q 148 69 136 79 q 172 56 160 60 q 196 53 185 53 m 383 768 q 351 775 364 768 q 319 793 338 782 q 294 810 308 801 q 264 818 281 818 q 234 806 247 818 q 215 769 221 793 l 178 769 q 211 842 186 814 q 272 871 236 871 q 309 863 293 871 q 340 844 325 856 q 366 830 354 836 q 392 824 378 824 q 423 835 411 824 q 442 868 435 846 l 483 868 q 445 795 474 822 q 383 768 417 768 z "},"b":{"ha":513,"x_min":19,"x_max":492,"o":"m 235 -10 q 142 13 171 -10 q 107 63 114 36 l 94 0 l 19 0 l 143 875 l 247 875 l 214 642 q 265 683 232 665 q 351 701 297 701 q 425 690 396 701 q 469 656 454 678 q 488 601 485 633 q 486 529 492 569 l 439 189 q 418 100 432 138 q 381 38 404 63 q 322 2 357 14 q 235 -10 286 -10 m 225 64 q 292 81 271 64 q 322 126 314 99 q 333 183 329 154 l 379 514 q 384 558 383 536 q 379 596 385 579 q 356 622 374 613 q 306 632 339 632 q 244 618 265 632 q 213 581 222 604 q 199 529 203 558 l 154 208 q 149 158 151 183 q 151 110 147 132 q 173 76 156 89 q 225 64 190 64 z "},"\\":{"ha":725,"x_min":125,"x_max":549,"o":"m 469 -62 l 125 876 l 206 876 l 549 -62 l 469 -62 z "},"|":{"ha":339,"x_min":38,"x_max":301,"o":"m 38 -336 l 208 876 l 301 876 l 131 -336 l 38 -336 z "},"б":{"ha":507,"x_min":19,"x_max":483,"o":"m 200 -10 q 92 8 133 -10 q 35 67 51 26 q 29 174 19 108 l 99 671 q 131 781 108 740 q 190 841 153 822 q 283 860 228 860 q 331 862 306 860 q 381 868 356 864 q 428 877 406 872 q 464 887 450 882 q 483 897 478 892 q 481 874 482 886 q 476 849 479 863 q 445 814 475 832 q 358 796 415 796 l 339 796 q 269 785 297 796 q 227 750 242 775 q 204 682 213 725 l 192 589 q 242 633 208 614 q 333 653 276 653 q 423 635 389 653 q 470 579 457 617 q 474 479 483 542 l 435 199 q 410 98 426 138 q 366 34 393 58 q 298 0 339 10 q 200 -10 257 -10 m 213 53 q 277 69 254 53 q 310 113 300 85 q 326 175 321 140 l 367 468 q 369 526 372 500 q 349 568 367 553 q 289 583 332 583 q 231 574 253 583 q 198 548 208 564 q 183 515 188 532 q 175 482 178 499 l 133 175 q 131 113 128 140 q 151 69 133 85 q 213 53 169 53 z "},"{":{"ha":438,"x_min":51,"x_max":426,"o":"m 271 -190 q 136 -158 185 -185 q 69 -91 88 -132 q 58 0 51 -50 q 85 79 65 44 q 126 143 104 114 q 167 201 149 172 q 190 261 185 229 q 179 309 194 289 q 138 341 164 329 q 78 354 111 353 l 82 386 q 143 399 114 388 q 194 433 172 411 q 219 485 215 456 q 214 542 224 514 q 190 598 204 569 q 165 660 175 626 q 161 735 156 694 q 197 828 169 789 q 281 892 225 868 q 426 922 336 917 l 418 861 q 352 845 382 856 q 302 810 322 835 q 275 735 282 785 q 276 663 269 694 q 294 604 283 632 q 313 547 306 576 q 315 479 319 517 q 299 436 313 458 q 260 396 286 414 q 196 371 235 378 q 267 332 243 358 q 286 265 290 306 q 265 201 281 229 q 233 144 250 172 q 200 83 215 115 q 179 10 185 51 q 185 -69 172 -40 q 225 -112 199 -99 q 279 -129 251 -125 l 271 -190 z "},"}":{"ha":438,"x_min":11,"x_max":386,"o":"m 11 -190 l 18 -129 q 77 -112 47 -125 q 129 -69 107 -99 q 158 10 151 -40 q 158 83 164 51 q 141 144 151 115 q 124 201 131 172 q 124 265 118 229 q 160 332 129 306 q 243 371 192 358 q 186 396 207 378 q 158 436 165 414 q 154 479 151 458 q 174 547 158 517 q 209 604 190 576 q 244 663 228 632 q 265 735 260 694 q 259 810 272 785 q 219 845 246 835 q 157 861 192 856 l 167 922 q 303 892 254 917 q 369 828 353 868 q 378 735 386 789 q 353 660 372 694 q 313 598 335 626 q 273 542 290 569 q 251 485 256 514 q 263 433 247 456 q 304 399 278 411 q 360 386 331 388 l 356 354 q 292 341 322 353 q 241 309 261 329 q 218 261 221 289 q 223 201 213 229 q 248 143 233 172 q 272 79 263 114 q 275 0 282 44 q 238 -91 268 -50 q 153 -158 208 -132 q 11 -190 97 -185 z "},"[":{"ha":408,"x_min":-3,"x_max":411,"o":"m -3 -79 l 131 875 l 411 875 l 404 817 l 222 817 l 104 -21 l 286 -21 l 278 -79 l -3 -79 z "},"]":{"ha":408,"x_min":-3,"x_max":411,"o":"m -3 -79 l 6 -21 l 186 -21 l 304 817 l 122 817 l 131 875 l 411 875 l 278 -79 l -3 -79 z "},"˘":{"ha":286,"x_min":75,"x_max":363,"o":"m 199 758 q 131 772 157 758 q 93 804 106 785 q 78 846 81 824 q 76 886 75 868 l 138 886 q 156 831 136 849 q 208 813 176 813 q 267 830 242 813 q 301 886 292 847 l 363 886 q 338 826 357 856 q 285 778 318 797 q 199 758 251 758 z "},"̆":{"ha":0,"x_min":75,"x_max":363,"o":"m 199 758 q 131 772 157 758 q 93 804 106 785 q 78 846 81 824 q 76 886 75 868 l 138 886 q 156 831 136 849 q 208 813 176 813 q 267 830 242 813 q 301 886 292 847 l 363 886 q 338 826 357 856 q 285 778 318 797 q 199 758 251 758 z "},"¦":{"ha":314,"x_min":38,"x_max":278,"o":"m 38 -235 l 103 240 l 197 240 l 131 -235 l 38 -235 m 122 378 l 185 813 l 278 813 l 217 378 l 122 378 z "},"•":{"ha":539,"x_min":81,"x_max":460,"o":"m 271 199 q 175 224 218 199 q 106 293 132 250 q 81 389 81 336 q 106 484 81 442 q 175 552 132 526 q 271 578 218 578 q 366 552 324 578 q 434 484 408 526 q 460 389 460 442 q 434 293 460 336 q 366 224 408 250 q 271 199 324 199 z "},"c":{"ha":490,"x_min":22,"x_max":483,"o":"m 199 -14 q 113 -6 149 -14 q 55 24 76 3 q 28 87 33 46 q 31 193 22 128 l 78 528 q 144 663 93 626 q 299 700 196 700 q 442 663 400 700 q 469 528 483 626 l 457 436 l 351 436 l 365 539 q 359 617 374 593 q 290 642 344 642 q 215 617 238 642 q 185 539 193 593 l 131 154 q 138 70 124 94 q 206 46 153 46 q 281 70 260 46 q 311 154 303 94 l 326 263 l 432 263 l 424 193 q 384 63 411 107 q 311 2 357 18 q 199 -14 265 -14 z "},"ć":{"ha":490,"x_min":22,"x_max":483,"o":"m 199 -14 q 113 -6 149 -14 q 55 24 76 3 q 28 87 33 46 q 31 193 22 128 l 78 528 q 144 663 93 626 q 299 700 196 700 q 442 663 400 700 q 469 528 483 626 l 457 436 l 351 436 l 365 539 q 359 617 374 593 q 290 642 344 642 q 215 617 238 642 q 185 539 193 593 l 131 154 q 138 70 124 94 q 206 46 153 46 q 281 70 260 46 q 311 154 303 94 l 326 263 l 432 263 l 424 193 q 384 63 411 107 q 311 2 357 18 q 199 -14 265 -14 m 243 758 l 332 890 l 439 890 l 310 758 l 243 758 z "},"ˇ":{"ha":318,"x_min":78,"x_max":396,"o":"m 185 758 l 78 892 l 146 892 l 225 810 l 329 892 l 396 892 l 250 758 l 185 758 z "},"̌":{"ha":0,"x_min":78,"x_max":396,"o":"m 185 758 l 78 892 l 146 892 l 225 810 l 329 892 l 396 892 l 250 758 l 185 758 z "},"č":{"ha":490,"x_min":22,"x_max":486,"o":"m 199 -14 q 113 -6 149 -14 q 55 24 76 3 q 28 87 33 46 q 31 193 22 128 l 78 528 q 144 663 93 626 q 299 700 196 700 q 442 663 400 700 q 469 528 483 626 l 457 436 l 351 436 l 365 539 q 359 617 374 593 q 290 642 344 642 q 215 617 238 642 q 185 539 193 593 l 131 154 q 138 70 124 94 q 206 46 153 46 q 281 70 260 46 q 311 154 303 94 l 326 263 l 432 263 l 424 193 q 384 63 411 107 q 311 2 357 18 q 199 -14 265 -14 m 275 758 l 168 892 l 236 892 l 315 810 l 419 892 l 486 892 l 340 758 l 275 758 z "},"ç":{"ha":490,"x_min":22,"x_max":483,"o":"m 199 -14 q 113 -6 149 -14 q 55 24 76 3 q 28 87 33 46 q 31 193 22 128 l 78 528 q 144 663 93 626 q 299 700 196 700 q 442 663 400 700 q 469 528 483 626 l 457 436 l 351 436 l 365 539 q 359 617 374 593 q 290 642 344 642 q 215 617 238 642 q 185 539 193 593 l 131 154 q 138 70 124 94 q 206 46 153 46 q 281 70 260 46 q 311 154 303 94 l 326 263 l 432 263 l 424 193 q 384 63 411 107 q 311 2 357 18 q 199 -14 265 -14 m 165 -204 q 124 -197 142 -204 q 96 -183 106 -189 l 117 -146 q 139 -157 124 -151 q 167 -162 154 -162 q 208 -151 193 -162 q 224 -122 222 -139 q 189 -86 229 -86 q 170 -90 179 -86 q 153 -99 161 -93 l 124 -81 l 179 0 l 224 0 l 176 -68 l 169 -64 q 192 -56 179 -58 q 218 -53 206 -53 q 272 -74 256 -53 q 285 -121 289 -96 q 249 -181 281 -157 q 165 -204 217 -204 z "},"ċ":{"ha":490,"x_min":22,"x_max":483,"o":"m 199 -14 q 113 -6 149 -14 q 55 24 76 3 q 28 87 33 46 q 31 193 22 128 l 78 528 q 144 663 93 626 q 299 700 196 700 q 442 663 400 700 q 469 528 483 626 l 457 436 l 351 436 l 365 539 q 359 617 374 593 q 290 642 344 642 q 215 617 238 642 q 185 539 193 593 l 131 154 q 138 70 124 94 q 206 46 153 46 q 281 70 260 46 q 311 154 303 94 l 326 263 l 432 263 l 424 193 q 384 63 411 107 q 311 2 357 18 q 199 -14 265 -14 m 313 767 q 271 783 289 767 q 253 825 253 800 q 271 866 253 849 q 314 883 289 883 q 356 866 339 883 q 374 825 374 849 q 356 783 375 800 q 313 767 338 767 z "},"¸":{"ha":181,"x_min":-74,"x_max":118,"o":"m -4 -203 q -46 -195 -28 -203 q -74 -182 -64 -187 l -53 -144 q -31 -156 -46 -150 q -3 -161 -15 -161 q 38 -149 24 -161 q 54 -121 53 -137 q 19 -85 60 -85 q 1 -88 10 -85 q -17 -97 -8 -92 l -46 -79 l 10 1 l 54 1 l 7 -67 l 0 -62 q 23 -54 10 -57 q 49 -51 36 -51 q 103 -73 86 -51 q 115 -119 119 -94 q 79 -179 111 -156 q -4 -203 47 -203 z "},"̧":{"ha":0,"x_min":-83,"x_max":110,"o":"m -14 -203 q -56 -195 -37 -203 q -83 -182 -74 -187 l -62 -144 q -40 -156 -56 -150 q -12 -161 -25 -161 q 28 -149 14 -161 q 44 -121 43 -137 q 10 -85 50 -85 q -9 -88 0 -85 q -26 -97 -18 -92 l -56 -79 l 0 1 l 44 1 l -3 -67 l -10 -62 q 13 -54 0 -57 q 39 -51 26 -51 q 93 -73 76 -51 q 106 -119 110 -94 q 69 -179 101 -156 q -14 -203 38 -203 z "},"¢":{"ha":489,"x_min":26,"x_max":471,"o":"m 143 -89 l 165 69 q 87 86 119 71 q 40 138 54 101 q 36 246 26 175 l 89 628 q 122 718 97 686 q 183 765 146 750 q 265 782 219 779 l 282 899 l 351 899 l 335 779 q 408 760 376 775 q 456 715 440 746 q 463 628 471 683 l 444 501 l 351 501 l 369 631 q 366 692 376 672 q 335 718 356 711 q 289 725 315 725 q 242 718 264 725 q 205 692 219 711 q 183 631 190 672 l 126 219 q 130 158 121 178 q 159 131 139 138 q 206 124 179 124 q 255 131 233 124 q 291 158 276 138 q 311 219 306 178 l 328 332 l 421 332 l 408 246 q 375 142 400 179 q 314 90 350 106 q 235 71 278 75 l 213 -89 l 143 -89 z "},"ч":{"ha":489,"x_min":31,"x_max":471,"o":"m 274 0 l 310 256 q 256 194 294 218 q 167 169 217 169 q 71 192 100 169 q 36 257 42 215 q 39 354 31 299 l 86 688 l 192 688 l 143 353 q 149 272 136 300 q 214 243 163 243 q 276 263 253 243 q 311 304 300 283 l 364 688 l 471 688 l 374 0 l 274 0 z "},"ˆ":{"ha":318,"x_min":58,"x_max":376,"o":"m 58 758 l 203 892 l 269 892 l 376 758 l 310 758 l 229 842 l 128 758 l 58 758 z "},"̂":{"ha":0,"x_min":58,"x_max":376,"o":"m 58 758 l 203 892 l 269 892 l 376 758 l 310 758 l 229 842 l 128 758 l 58 758 z "},":":{"ha":206,"x_min":25,"x_max":146,"o":"m 107 390 q 86 399 94 390 q 79 421 78 408 q 92 442 82 433 q 115 451 103 451 q 137 442 128 451 q 143 421 146 433 q 131 399 142 408 q 107 390 119 390 m 54 -7 q 33 2 42 -7 q 26 24 25 11 q 40 45 29 36 q 63 54 50 54 q 84 45 75 54 q 90 24 93 36 q 78 2 89 11 q 54 -7 67 -7 z "},",":{"ha":271,"x_min":-4,"x_max":158,"o":"m -4 -176 q 40 -106 18 -140 q 63 -40 61 -71 q 58 -10 64 -21 q 44 10 51 0 q 38 40 38 19 q 56 82 38 64 q 101 100 74 100 q 143 85 128 100 q 158 43 158 69 q 140 -28 158 13 q 96 -107 122 -68 q 44 -176 69 -146 l -4 -176 z "},"̦":{"ha":0,"x_min":-87,"x_max":43,"o":"m -87 -229 q -50 -174 -64 -197 q -36 -137 -36 -150 q -42 -124 -36 -129 q -54 -110 -49 -118 q -60 -87 -60 -101 q -43 -59 -58 -72 q -6 -46 -28 -46 q 30 -58 17 -46 q 42 -92 43 -71 q 27 -132 40 -107 q -5 -183 14 -157 q -43 -229 -24 -208 l -87 -229 z "},"̒":{"ha":0,"x_min":63,"x_max":194,"o":"m 194 933 q 156 879 169 903 q 143 843 143 856 q 149 828 142 835 q 161 815 156 822 q 165 792 167 807 q 149 764 164 778 q 111 750 133 750 q 76 763 89 750 q 64 796 63 776 q 79 838 65 813 q 113 888 93 863 q 149 933 132 914 l 194 933 z "},"©":{"ha":833,"x_min":40,"x_max":849,"o":"m 390 43 q 201 96 282 43 q 80 237 119 149 q 56 433 40 325 q 107 584 67 514 q 208 708 147 654 q 343 791 268 761 q 499 821 418 821 q 688 769 607 821 q 808 628 768 717 q 833 433 849 540 q 782 282 822 353 q 681 157 742 211 q 546 73 621 103 q 390 43 471 43 m 396 86 q 533 114 468 86 q 653 190 599 142 q 742 300 707 238 q 786 433 776 363 q 765 606 800 528 q 659 729 731 683 q 493 775 588 775 q 356 749 422 775 q 236 675 290 722 q 147 565 182 628 q 101 433 113 503 q 110 300 93 363 q 168 190 128 238 q 267 114 208 142 q 396 86 325 86 m 399 211 q 338 217 363 211 q 299 237 313 222 q 283 278 285 251 q 290 346 281 304 l 335 561 q 386 649 349 625 q 497 672 424 672 q 597 649 569 672 q 610 561 624 625 l 597 501 l 525 501 l 540 569 q 536 618 546 603 q 488 633 526 633 q 433 618 449 633 q 408 569 417 603 l 356 319 q 358 267 347 282 q 407 253 368 253 q 462 267 446 253 q 486 319 478 282 l 503 390 l 575 390 l 567 347 q 532 261 553 290 q 478 222 511 232 q 399 211 446 211 z "},"¤":{"ha":667,"x_min":58,"x_max":608,"o":"m 118 150 l 65 204 l 175 314 q 149 363 158 338 q 139 417 139 389 q 174 522 139 474 l 58 638 l 110 690 l 229 572 q 329 600 278 600 q 432 571 382 600 l 549 688 l 601 635 l 486 519 q 521 417 521 472 q 488 318 521 363 l 608 197 l 556 144 l 432 267 q 381 244 407 253 q 329 236 356 236 q 229 263 274 236 l 118 150 m 329 313 q 405 343 374 313 q 436 415 436 374 q 405 492 436 461 q 329 524 374 524 q 253 493 283 524 q 222 415 222 463 q 253 343 222 374 q 329 313 283 313 z "},"d":{"ha":513,"x_min":24,"x_max":521,"o":"m 175 -11 q 94 1 125 -11 q 46 37 63 13 q 26 99 29 61 q 31 189 24 138 l 78 529 q 108 621 86 583 q 167 678 129 658 q 260 699 204 699 q 344 682 315 699 q 383 642 372 665 l 415 875 l 521 875 l 397 0 l 325 0 l 324 65 q 297 31 314 49 q 249 1 279 14 q 175 -11 219 -11 m 204 53 q 260 65 239 53 q 293 99 282 78 q 310 144 304 119 q 319 194 317 169 q 345 386 332 290 q 372 576 358 482 q 364 601 372 588 q 338 624 356 614 q 289 633 321 633 q 223 616 244 633 q 194 572 201 599 q 182 514 186 544 l 133 171 q 130 126 131 147 q 135 88 129 104 q 156 62 140 71 q 204 53 172 53 z "},"†":{"ha":514,"x_min":76,"x_max":485,"o":"m 139 -169 l 226 456 l 76 456 l 85 519 l 236 519 l 278 813 l 371 813 l 329 519 l 485 519 l 475 456 l 321 456 l 232 -169 l 139 -169 z "},"‡":{"ha":518,"x_min":40,"x_max":488,"o":"m 139 -169 l 192 207 l 40 207 l 50 278 l 201 278 l 228 465 l 76 465 l 86 535 l 238 535 l 281 838 l 375 838 l 332 535 l 488 535 l 478 465 l 322 465 l 296 278 l 451 278 l 442 207 l 286 207 l 232 -169 l 139 -169 z "},"ď":{"ha":575,"x_min":24,"x_max":669,"o":"m 175 -11 q 94 1 125 -11 q 46 37 63 13 q 26 99 29 61 q 31 189 24 138 l 78 529 q 108 621 86 583 q 167 678 129 658 q 260 699 204 699 q 344 682 315 699 q 383 642 372 665 l 415 875 l 521 875 l 397 0 l 325 0 l 324 65 q 297 31 314 49 q 249 1 279 14 q 175 -11 219 -11 m 204 53 q 260 65 239 53 q 293 99 282 78 q 310 144 304 119 q 319 194 317 169 q 345 386 332 290 q 372 576 358 482 q 364 601 372 588 q 338 624 356 614 q 289 633 321 633 q 223 616 244 633 q 194 572 201 599 q 182 514 186 544 l 133 171 q 130 126 131 147 q 135 88 129 104 q 156 62 140 71 q 204 53 172 53 m 549 714 l 601 901 l 669 901 l 589 714 l 549 714 z "},"đ":{"ha":504,"x_min":24,"x_max":561,"o":"m 250 758 l 257 804 l 561 804 l 554 758 l 250 758 m 175 -11 q 94 1 125 -11 q 46 37 63 13 q 26 99 29 61 q 31 189 24 138 l 78 529 q 108 621 86 583 q 167 678 129 658 q 260 699 204 699 q 344 682 315 699 q 383 642 372 665 l 415 875 l 521 875 l 397 0 l 325 0 l 324 65 q 297 31 314 49 q 249 1 279 14 q 175 -11 219 -11 m 204 53 q 260 65 239 53 q 293 99 282 78 q 310 144 304 119 q 319 194 317 169 q 345 386 332 290 q 372 576 358 482 q 364 601 372 588 q 338 624 356 614 q 289 633 321 633 q 223 616 244 633 q 194 572 201 599 q 182 514 186 544 l 133 171 q 130 126 131 147 q 135 88 129 104 q 156 62 140 71 q 204 53 172 53 z "},"д":{"ha":703,"x_min":-36,"x_max":644,"o":"m -36 -151 l -7 64 l 53 64 q 89 79 71 67 q 124 117 107 92 q 150 185 140 143 l 272 686 l 621 686 l 535 64 l 644 64 l 613 -151 l 524 -151 l 542 -18 l 72 -18 l 53 -151 l -36 -151 m 200 64 l 422 64 l 499 610 l 358 610 l 258 204 q 237 124 250 167 q 200 64 224 82 z "},"°":{"ha":451,"x_min":49,"x_max":400,"o":"m 203 493 q 83 541 117 493 q 58 656 49 589 q 112 772 67 724 q 251 821 157 821 q 347 799 314 821 q 390 740 379 776 q 394 658 400 703 q 336 540 383 586 q 203 493 289 493 m 211 544 q 293 576 261 544 q 333 657 325 607 q 317 738 339 703 q 242 772 294 772 q 160 739 193 772 q 119 656 126 706 q 139 576 113 607 q 211 544 165 544 z "},"¨":{"ha":246,"x_min":68,"x_max":313,"o":"m 118 772 q 83 787 97 772 q 68 822 68 801 q 83 856 68 843 q 118 869 97 869 q 155 856 140 869 q 169 822 169 843 q 155 787 169 801 q 118 772 140 772 m 263 772 q 226 787 240 772 q 211 822 211 801 q 226 856 211 843 q 263 869 240 869 q 298 856 283 869 q 313 822 313 843 q 298 787 313 801 q 263 772 283 772 z "},"̈":{"ha":0,"x_min":68,"x_max":313,"o":"m 118 772 q 83 787 97 772 q 68 822 68 801 q 83 856 68 843 q 118 869 97 869 q 155 856 140 869 q 169 822 169 843 q 155 787 169 801 q 118 772 140 772 m 263 772 q 226 787 240 772 q 211 822 211 801 q 226 856 211 843 q 263 869 240 869 q 298 856 283 869 q 313 822 313 843 q 298 787 313 801 q 263 772 283 772 z "},"÷":{"ha":518,"x_min":60,"x_max":461,"o":"m 60 365 l 71 439 l 461 439 l 450 365 l 60 365 m 221 117 q 181 132 196 117 q 171 171 167 147 q 192 210 174 194 q 235 226 210 226 q 274 210 258 226 q 286 171 289 194 q 263 132 283 147 q 221 117 243 117 m 282 564 q 244 579 258 564 q 232 618 229 594 q 254 658 236 642 q 297 674 272 674 q 336 658 321 674 q 347 618 351 642 q 325 579 344 594 q 282 564 306 564 z "},"∕":{"ha":418,"x_min":-131,"x_max":571,"o":"m -131 -182 l 490 983 l 571 983 l -51 -182 l -131 -182 z "},"ђ":{"ha":569,"x_min":56,"x_max":529,"o":"m 276 -129 q 236 -123 254 -129 q 206 -110 218 -117 q 213 -84 210 -97 q 222 -58 217 -71 q 239 -67 229 -64 q 264 -69 249 -69 q 334 -35 313 -69 q 365 65 356 0 l 415 424 q 413 476 418 454 q 390 510 408 497 q 336 522 372 522 q 274 508 296 522 q 242 471 253 493 q 226 426 231 449 q 218 386 222 403 l 164 0 l 56 0 l 157 710 l 69 710 l 78 769 l 164 769 l 179 875 l 288 875 l 272 769 l 403 769 l 394 710 l 264 710 l 236 517 q 290 567 254 546 q 381 589 326 589 q 469 571 436 589 q 516 515 503 553 q 521 415 529 478 l 474 89 q 444 -33 464 11 q 397 -98 424 -78 q 340 -124 371 -118 q 276 -129 308 -129 z "},"$":{"ha":482,"x_min":13,"x_max":472,"o":"m 150 -83 l 171 71 q 40 122 68 75 q 26 268 13 168 l 33 319 l 133 319 l 124 250 q 119 190 119 218 q 135 147 119 163 q 197 131 151 131 q 260 147 240 131 q 289 186 281 163 q 300 231 297 210 l 307 272 q 303 331 313 307 q 269 372 293 354 q 206 406 244 389 q 136 444 167 424 q 90 498 106 465 q 82 581 75 531 l 88 622 q 141 735 99 693 q 272 782 183 778 l 292 924 l 350 924 l 331 783 q 443 733 414 778 q 458 599 472 689 l 450 542 l 353 542 l 363 613 q 355 700 372 676 q 292 724 338 724 q 219 699 240 724 q 192 636 197 674 l 186 593 q 194 531 181 554 q 238 491 208 507 q 304 458 267 475 q 369 424 340 443 q 410 372 397 404 q 415 285 422 340 l 411 250 q 387 167 404 206 q 333 103 369 129 q 231 72 296 78 l 208 -83 l 150 -83 z "},"˙":{"ha":103,"x_min":68,"x_max":190,"o":"m 128 767 q 86 783 104 767 q 68 825 68 800 q 86 866 68 849 q 129 883 104 883 q 172 866 154 883 q 189 825 189 849 q 172 783 190 800 q 128 767 153 767 z "},"̇":{"ha":0,"x_min":68,"x_max":190,"o":"m 128 767 q 86 783 104 767 q 68 825 68 800 q 86 866 68 849 q 129 883 104 883 q 172 866 154 883 q 189 825 189 849 q 172 783 190 800 q 128 767 153 767 z "},"̣":{"ha":0,"x_min":-62,"x_max":39,"o":"m -11 -157 q -48 -142 -33 -157 q -62 -107 -62 -128 q -48 -74 -62 -87 q -11 -60 -33 -60 q 24 -74 10 -60 q 39 -107 39 -87 q 24 -142 39 -128 q -11 -157 10 -157 z "},"↓":{"ha":721,"x_min":58,"x_max":664,"o":"m 363 0 l 58 342 l 110 393 l 319 178 l 321 996 l 404 996 l 403 181 l 614 393 l 664 340 l 363 0 z "},"ѕ":{"ha":489,"x_min":18,"x_max":478,"o":"m 194 -12 q 90 3 128 -12 q 35 45 51 18 q 19 108 19 72 q 24 186 18 144 l 31 238 l 136 238 l 126 168 q 122 108 122 135 q 139 65 122 81 q 201 49 156 49 q 264 64 243 49 q 293 103 285 79 q 304 147 301 126 l 310 190 q 306 249 315 225 q 272 290 296 272 q 207 324 247 307 q 135 361 167 340 q 90 415 104 382 q 81 499 75 447 l 86 539 q 117 628 93 592 q 186 683 140 664 q 303 701 232 701 q 413 683 374 701 q 465 623 451 664 q 468 515 478 582 l 460 460 l 357 460 l 367 531 q 358 616 375 592 q 296 640 340 640 q 223 615 244 640 q 196 553 201 589 l 190 511 q 199 448 185 472 q 242 408 213 424 q 310 375 272 393 q 376 340 347 360 q 417 289 404 321 q 424 201 431 257 l 419 168 q 392 77 414 118 q 324 12 371 36 q 194 -12 278 -12 z "},"џ":{"ha":540,"x_min":19,"x_max":522,"o":"m 160 -149 l 181 0 l 19 0 l 117 688 l 222 688 l 136 76 l 329 76 l 415 688 l 522 688 l 425 0 l 261 0 l 239 -149 l 160 -149 z "},"e":{"ha":489,"x_min":19,"x_max":493,"o":"m 199 -15 q 90 2 132 -15 q 34 63 49 19 q 31 192 19 107 l 78 528 q 147 662 93 626 q 292 697 200 697 q 449 656 406 697 q 474 511 493 615 q 422 413 461 450 q 332 353 383 375 q 231 324 281 332 q 151 313 182 315 l 131 165 q 136 74 121 100 q 206 49 151 49 q 282 73 260 49 q 313 163 304 97 l 325 249 l 429 249 l 419 176 q 385 58 410 100 q 316 1 361 17 q 199 -15 271 -15 m 161 372 q 217 381 185 375 q 280 402 249 388 q 335 444 311 417 q 367 513 358 471 q 367 604 379 569 q 296 639 356 639 q 216 614 242 639 q 181 518 190 589 l 161 372 z "},"é":{"ha":489,"x_min":19,"x_max":493,"o":"m 199 -15 q 90 2 132 -15 q 34 63 49 19 q 31 192 19 107 l 78 528 q 147 662 93 626 q 292 697 200 697 q 449 656 406 697 q 474 511 493 615 q 422 413 461 450 q 332 353 383 375 q 231 324 281 332 q 151 313 182 315 l 131 165 q 136 74 121 100 q 206 49 151 49 q 282 73 260 49 q 313 163 304 97 l 325 249 l 429 249 l 419 176 q 385 58 410 100 q 316 1 361 17 q 199 -15 271 -15 m 161 372 q 217 381 185 375 q 280 402 249 388 q 335 444 311 417 q 367 513 358 471 q 367 604 379 569 q 296 639 356 639 q 216 614 242 639 q 181 518 190 589 l 161 372 m 242 758 l 331 890 l 438 890 l 308 758 l 242 758 z "},"ě":{"ha":489,"x_min":19,"x_max":493,"o":"m 199 -15 q 90 2 132 -15 q 34 63 49 19 q 31 192 19 107 l 78 528 q 147 662 93 626 q 292 697 200 697 q 449 656 406 697 q 474 511 493 615 q 422 413 461 450 q 332 353 383 375 q 231 324 281 332 q 151 313 182 315 l 131 165 q 136 74 121 100 q 206 49 151 49 q 282 73 260 49 q 313 163 304 97 l 325 249 l 429 249 l 419 176 q 385 58 410 100 q 316 1 361 17 q 199 -15 271 -15 m 161 372 q 217 381 185 375 q 280 402 249 388 q 335 444 311 417 q 367 513 358 471 q 367 604 379 569 q 296 639 356 639 q 216 614 242 639 q 181 518 190 589 l 161 372 m 275 758 l 168 892 l 236 892 l 315 810 l 419 892 l 486 892 l 340 758 l 275 758 z "},"ê":{"ha":489,"x_min":19,"x_max":493,"o":"m 199 -15 q 90 2 132 -15 q 34 63 49 19 q 31 192 19 107 l 78 528 q 147 662 93 626 q 292 697 200 697 q 449 656 406 697 q 474 511 493 615 q 422 413 461 450 q 332 353 383 375 q 231 324 281 332 q 151 313 182 315 l 131 165 q 136 74 121 100 q 206 49 151 49 q 282 73 260 49 q 313 163 304 97 l 325 249 l 429 249 l 419 176 q 385 58 410 100 q 316 1 361 17 q 199 -15 271 -15 m 161 372 q 217 381 185 375 q 280 402 249 388 q 335 444 311 417 q 367 513 358 471 q 367 604 379 569 q 296 639 356 639 q 216 614 242 639 q 181 518 190 589 l 161 372 m 144 758 l 289 892 l 356 892 l 463 758 l 396 758 l 315 842 l 214 758 l 144 758 z "},"ế":{"ha":489,"x_min":19,"x_max":656,"o":"m 199 -15 q 90 2 132 -15 q 34 63 49 19 q 31 192 19 107 l 78 528 q 147 662 93 626 q 292 697 200 697 q 449 656 406 697 q 474 511 493 615 q 422 413 461 450 q 332 353 383 375 q 231 324 281 332 q 151 313 182 315 l 131 165 q 136 74 121 100 q 206 49 151 49 q 282 73 260 49 q 313 163 304 97 l 325 249 l 429 249 l 419 176 q 385 58 410 100 q 316 1 361 17 q 199 -15 271 -15 m 161 372 q 217 381 185 375 q 280 402 249 388 q 335 444 311 417 q 367 513 358 471 q 367 604 379 569 q 296 639 356 639 q 216 614 242 639 q 181 518 190 589 l 161 372 m 144 758 l 289 892 l 356 892 l 463 758 l 396 758 l 315 842 l 214 758 l 144 758 m 460 838 l 549 969 l 656 969 l 526 838 l 460 838 z "},"ệ":{"ha":489,"x_min":19,"x_max":493,"o":"m 199 -15 q 90 2 132 -15 q 34 63 49 19 q 31 192 19 107 l 78 528 q 147 662 93 626 q 292 697 200 697 q 449 656 406 697 q 474 511 493 615 q 422 413 461 450 q 332 353 383 375 q 231 324 281 332 q 151 313 182 315 l 131 165 q 136 74 121 100 q 206 49 151 49 q 282 73 260 49 q 313 163 304 97 l 325 249 l 429 249 l 419 176 q 385 58 410 100 q 316 1 361 17 q 199 -15 271 -15 m 161 372 q 217 381 185 375 q 280 402 249 388 q 335 444 311 417 q 367 513 358 471 q 367 604 379 569 q 296 639 356 639 q 216 614 242 639 q 181 518 190 589 l 161 372 m 181 -157 q 144 -142 158 -157 q 129 -107 129 -128 q 144 -74 129 -87 q 181 -60 158 -60 q 216 -74 201 -60 q 231 -107 231 -87 q 216 -142 231 -128 q 181 -157 201 -157 m 144 758 l 289 892 l 356 892 l 463 758 l 396 758 l 315 842 l 214 758 l 144 758 z "},"ề":{"ha":489,"x_min":19,"x_max":572,"o":"m 199 -15 q 90 2 132 -15 q 34 63 49 19 q 31 192 19 107 l 78 528 q 147 662 93 626 q 292 697 200 697 q 449 656 406 697 q 474 511 493 615 q 422 413 461 450 q 332 353 383 375 q 231 324 281 332 q 151 313 182 315 l 131 165 q 136 74 121 100 q 206 49 151 49 q 282 73 260 49 q 313 163 304 97 l 325 249 l 429 249 l 419 176 q 385 58 410 100 q 316 1 361 17 q 199 -15 271 -15 m 161 372 q 217 381 185 375 q 280 402 249 388 q 335 444 311 417 q 367 513 358 471 q 367 604 379 569 q 296 639 356 639 q 216 614 242 639 q 181 518 190 589 l 161 372 m 144 758 l 289 892 l 356 892 l 463 758 l 396 758 l 315 842 l 214 758 l 144 758 m 506 838 l 404 969 l 511 969 l 572 838 l 506 838 z "},"ể":{"ha":489,"x_min":19,"x_max":619,"o":"m 199 -15 q 90 2 132 -15 q 34 63 49 19 q 31 192 19 107 l 78 528 q 147 662 93 626 q 292 697 200 697 q 449 656 406 697 q 474 511 493 615 q 422 413 461 450 q 332 353 383 375 q 231 324 281 332 q 151 313 182 315 l 131 165 q 136 74 121 100 q 206 49 151 49 q 282 73 260 49 q 313 163 304 97 l 325 249 l 429 249 l 419 176 q 385 58 410 100 q 316 1 361 17 q 199 -15 271 -15 m 161 372 q 217 381 185 375 q 280 402 249 388 q 335 444 311 417 q 367 513 358 471 q 367 604 379 569 q 296 639 356 639 q 216 614 242 639 q 181 518 190 589 l 161 372 m 144 758 l 289 892 l 356 892 l 463 758 l 396 758 l 315 842 l 214 758 l 144 758 m 485 828 l 488 857 q 506 884 490 876 q 536 899 521 892 q 553 926 551 907 l 553 936 q 549 963 554 950 q 525 975 544 975 q 489 943 497 975 l 438 951 q 471 1000 447 983 q 536 1017 494 1017 q 601 994 582 1017 q 615 932 619 972 l 615 928 q 602 890 613 901 q 578 874 592 878 q 556 865 565 869 q 544 847 546 860 l 543 828 l 485 828 z "},"ễ":{"ha":489,"x_min":19,"x_max":493,"o":"m 199 -15 q 90 2 132 -15 q 34 63 49 19 q 31 192 19 107 l 78 528 q 147 662 93 626 q 292 697 200 697 q 449 656 406 697 q 474 511 493 615 q 422 413 461 450 q 332 353 383 375 q 231 324 281 332 q 151 313 182 315 l 131 165 q 136 74 121 100 q 206 49 151 49 q 282 73 260 49 q 313 163 304 97 l 325 249 l 429 249 l 419 176 q 385 58 410 100 q 316 1 361 17 q 199 -15 271 -15 m 161 372 q 217 381 185 375 q 280 402 249 388 q 335 444 311 417 q 367 513 358 471 q 367 604 379 569 q 296 639 356 639 q 216 614 242 639 q 181 518 190 589 l 161 372 m 144 758 l 289 892 l 356 892 l 463 758 l 396 758 l 315 842 l 214 758 l 144 758 m 382 922 q 349 929 363 922 q 318 947 336 936 q 293 964 307 956 q 263 972 279 972 q 233 960 246 972 q 214 924 219 947 l 176 924 q 210 997 185 968 q 271 1025 235 1025 q 308 1017 292 1025 q 339 999 324 1010 q 365 984 353 990 q 390 978 376 978 q 422 989 410 978 q 440 1022 433 1000 l 482 1022 q 444 949 472 976 q 382 922 415 922 z "},"ë":{"ha":489,"x_min":19,"x_max":493,"o":"m 199 -15 q 90 2 132 -15 q 34 63 49 19 q 31 192 19 107 l 78 528 q 147 662 93 626 q 292 697 200 697 q 449 656 406 697 q 474 511 493 615 q 422 413 461 450 q 332 353 383 375 q 231 324 281 332 q 151 313 182 315 l 131 165 q 136 74 121 100 q 206 49 151 49 q 282 73 260 49 q 313 163 304 97 l 325 249 l 429 249 l 419 176 q 385 58 410 100 q 316 1 361 17 q 199 -15 271 -15 m 161 372 q 217 381 185 375 q 280 402 249 388 q 335 444 311 417 q 367 513 358 471 q 367 604 379 569 q 296 639 356 639 q 216 614 242 639 q 181 518 190 589 l 161 372 m 239 772 q 203 787 218 772 q 189 822 189 801 q 203 856 189 843 q 239 869 218 869 q 276 856 261 869 q 290 822 290 843 q 276 787 290 801 q 239 772 261 772 m 383 772 q 347 787 361 772 q 332 822 332 801 q 347 856 332 843 q 383 869 361 869 q 419 856 404 869 q 433 822 433 843 q 419 787 433 801 q 383 772 404 772 z "},"ė":{"ha":489,"x_min":19,"x_max":493,"o":"m 199 -15 q 90 2 132 -15 q 34 63 49 19 q 31 192 19 107 l 78 528 q 147 662 93 626 q 292 697 200 697 q 449 656 406 697 q 474 511 493 615 q 422 413 461 450 q 332 353 383 375 q 231 324 281 332 q 151 313 182 315 l 131 165 q 136 74 121 100 q 206 49 151 49 q 282 73 260 49 q 313 163 304 97 l 325 249 l 429 249 l 419 176 q 385 58 410 100 q 316 1 361 17 q 199 -15 271 -15 m 161 372 q 217 381 185 375 q 280 402 249 388 q 335 444 311 417 q 367 513 358 471 q 367 604 379 569 q 296 639 356 639 q 216 614 242 639 q 181 518 190 589 l 161 372 m 311 767 q 269 783 288 767 q 251 825 251 800 q 269 866 251 849 q 313 883 288 883 q 355 866 338 883 q 372 825 372 849 q 355 783 374 800 q 311 767 336 767 z "},"ẹ":{"ha":489,"x_min":19,"x_max":493,"o":"m 199 -15 q 90 2 132 -15 q 34 63 49 19 q 31 192 19 107 l 78 528 q 147 662 93 626 q 292 697 200 697 q 449 656 406 697 q 474 511 493 615 q 422 413 461 450 q 332 353 383 375 q 231 324 281 332 q 151 313 182 315 l 131 165 q 136 74 121 100 q 206 49 151 49 q 282 73 260 49 q 313 163 304 97 l 325 249 l 429 249 l 419 176 q 385 58 410 100 q 316 1 361 17 q 199 -15 271 -15 m 161 372 q 217 381 185 375 q 280 402 249 388 q 335 444 311 417 q 367 513 358 471 q 367 604 379 569 q 296 639 356 639 q 216 614 242 639 q 181 518 190 589 l 161 372 m 181 -157 q 144 -142 158 -157 q 129 -107 129 -128 q 144 -74 129 -87 q 181 -60 158 -60 q 216 -74 201 -60 q 231 -107 231 -87 q 216 -142 231 -128 q 181 -157 201 -157 z "},"ф":{"ha":817,"x_min":18,"x_max":788,"o":"m 285 -161 l 314 36 q 259 3 292 15 q 178 -10 226 -10 q 47 42 75 -10 q 32 189 18 94 l 69 461 q 97 561 78 519 q 158 625 117 603 q 272 647 200 647 q 351 634 321 647 q 392 596 382 621 l 424 821 l 528 821 l 496 599 q 547 634 513 621 q 626 647 581 647 q 734 625 699 647 q 778 561 769 603 q 779 461 788 519 l 742 189 q 685 42 728 94 q 539 -10 642 -10 q 463 3 492 -10 q 418 38 433 15 l 389 -161 l 285 -161 m 210 49 q 277 66 253 49 q 315 110 301 83 q 331 164 328 138 l 372 458 q 375 522 378 492 q 353 570 372 551 q 288 589 333 589 q 222 572 244 589 q 190 526 199 556 q 175 458 181 497 l 135 172 q 133 109 131 136 q 154 65 136 82 q 210 49 172 49 m 525 49 q 586 65 564 49 q 619 110 608 82 q 635 172 631 138 l 675 458 q 679 525 681 496 q 660 572 678 554 q 600 589 643 589 q 533 572 558 589 q 495 527 507 554 q 478 468 483 500 l 436 169 q 438 114 433 142 q 463 67 443 86 q 525 49 483 49 z "},"è":{"ha":489,"x_min":19,"x_max":493,"o":"m 199 -15 q 90 2 132 -15 q 34 63 49 19 q 31 192 19 107 l 78 528 q 147 662 93 626 q 292 697 200 697 q 449 656 406 697 q 474 511 493 615 q 422 413 461 450 q 332 353 383 375 q 231 324 281 332 q 151 313 182 315 l 131 165 q 136 74 121 100 q 206 49 151 49 q 282 73 260 49 q 313 163 304 97 l 325 249 l 429 249 l 419 176 q 385 58 410 100 q 316 1 361 17 q 199 -15 271 -15 m 161 372 q 217 381 185 375 q 280 402 249 388 q 335 444 311 417 q 367 513 358 471 q 367 604 379 569 q 296 639 356 639 q 216 614 242 639 q 181 518 190 589 l 161 372 m 288 758 l 186 890 l 293 890 l 354 758 l 288 758 z "},"ẻ":{"ha":489,"x_min":19,"x_max":493,"o":"m 199 -15 q 90 2 132 -15 q 34 63 49 19 q 31 192 19 107 l 78 528 q 147 662 93 626 q 292 697 200 697 q 449 656 406 697 q 474 511 493 615 q 422 413 461 450 q 332 353 383 375 q 231 324 281 332 q 151 313 182 315 l 131 165 q 136 74 121 100 q 206 49 151 49 q 282 73 260 49 q 313 163 304 97 l 325 249 l 429 249 l 419 176 q 385 58 410 100 q 316 1 361 17 q 199 -15 271 -15 m 161 372 q 217 381 185 375 q 280 402 249 388 q 335 444 311 417 q 367 513 358 471 q 367 604 379 569 q 296 639 356 639 q 216 614 242 639 q 181 518 190 589 l 161 372 m 268 749 l 271 778 q 289 805 274 797 q 319 820 304 813 q 336 847 335 828 l 336 857 q 333 883 338 871 q 308 896 328 896 q 272 864 281 896 l 221 872 q 254 921 231 904 q 319 938 278 938 q 384 915 365 938 q 399 853 403 893 l 399 849 q 385 810 396 822 q 362 794 375 799 q 339 785 349 790 q 328 768 329 781 l 326 749 l 268 749 z "},"л":{"ha":572,"x_min":-26,"x_max":554,"o":"m -26 0 l -18 58 q 17 71 0 58 q 47 106 33 83 q 67 163 60 129 l 185 686 l 554 686 l 457 0 l 349 0 l 435 610 l 281 610 l 169 133 q 158 92 165 115 q 137 49 150 69 q 99 14 124 28 q 36 0 75 0 l -26 0 z "},"…":{"ha":692,"x_min":24,"x_max":583,"o":"m 79 -10 q 40 7 56 -10 q 28 49 24 24 q 52 90 32 72 q 96 107 72 107 q 138 90 121 107 q 150 49 154 72 q 126 7 147 24 q 79 -10 106 -10 m 296 -11 q 256 6 272 -11 q 243 47 240 24 q 267 90 247 72 q 313 107 288 107 q 354 90 338 107 q 367 47 371 72 q 342 6 363 24 q 296 -11 322 -11 m 510 -11 q 469 6 485 -11 q 457 47 454 24 q 481 90 461 72 q 526 107 501 107 q 567 90 551 107 q 581 47 583 72 q 556 6 576 24 q 510 -11 535 -11 z "},"м":{"ha":668,"x_min":7,"x_max":663,"o":"m 7 0 l 104 688 l 231 688 l 306 136 l 538 688 l 663 688 l 565 0 l 476 0 l 550 521 l 324 0 l 249 0 l 169 521 l 94 0 l 7 0 z "},"ē":{"ha":489,"x_min":19,"x_max":493,"o":"m 199 -15 q 90 2 132 -15 q 34 63 49 19 q 31 192 19 107 l 78 528 q 147 662 93 626 q 292 697 200 697 q 449 656 406 697 q 474 511 493 615 q 422 413 461 450 q 332 353 383 375 q 231 324 281 332 q 151 313 182 315 l 131 165 q 136 74 121 100 q 206 49 151 49 q 282 73 260 49 q 313 163 304 97 l 325 249 l 429 249 l 419 176 q 385 58 410 100 q 316 1 361 17 q 199 -15 271 -15 m 161 372 q 217 381 185 375 q 280 402 249 388 q 335 444 311 417 q 367 513 358 471 q 367 604 379 569 q 296 639 356 639 q 216 614 242 639 q 181 518 190 589 l 161 372 m 169 783 l 176 840 l 442 840 l 435 783 l 169 783 z "},"—":{"ha":851,"x_min":29,"x_max":824,"o":"m 29 335 l 38 410 l 824 410 l 814 335 l 29 335 z "},"∅":{"ha":569,"x_min":-4,"x_max":631,"o":"m -4 83 l 550 783 l 582 783 l 26 83 l -4 83 m 207 -17 q 104 10 146 -17 q 50 94 63 36 q 63 243 38 151 l 163 592 q 275 774 196 715 q 449 832 354 832 q 585 773 540 832 q 597 592 631 714 l 499 243 q 428 92 472 150 q 326 9 383 35 q 207 -17 269 -17 m 225 49 q 316 86 274 49 q 378 194 358 124 l 496 618 q 496 726 517 689 q 428 764 475 764 q 338 726 381 764 q 275 618 296 689 l 157 194 q 158 86 138 124 q 225 49 179 49 z "},"н":{"ha":513,"x_min":7,"x_max":507,"o":"m 7 0 l 104 688 l 210 688 l 168 400 l 361 400 l 403 688 l 507 688 l 410 0 l 306 0 l 350 319 l 157 319 l 113 0 l 7 0 z "},"–":{"ha":531,"x_min":29,"x_max":501,"o":"m 29 335 l 38 410 l 501 410 l 492 335 l 29 335 z "},"ŋ":{"ha":519,"x_min":19,"x_max":492,"o":"m 199 -156 q 173 -154 186 -156 q 150 -150 160 -153 l 158 -94 q 167 -95 160 -94 q 184 -97 175 -96 q 196 -97 193 -97 q 271 -80 243 -97 q 306 -15 299 -62 l 379 506 q 383 549 382 528 q 379 586 385 569 q 356 613 374 603 q 306 622 339 622 q 253 611 274 622 q 222 585 233 600 q 204 557 210 571 l 125 0 l 19 0 l 117 688 l 204 688 l 204 611 q 267 677 226 656 q 351 699 307 699 q 435 684 404 699 q 477 644 465 669 q 490 587 489 619 q 486 517 492 554 l 415 17 q 374 -92 406 -54 q 298 -144 343 -131 q 199 -156 253 -157 z "},"ę":{"ha":489,"x_min":19,"x_max":493,"o":"m 199 -15 q 90 2 132 -15 q 34 63 49 19 q 31 192 19 107 l 78 528 q 147 662 93 626 q 292 697 200 697 q 449 656 406 697 q 474 511 493 615 q 422 413 461 450 q 332 353 383 375 q 231 324 281 332 q 151 313 182 315 l 131 165 q 136 74 121 100 q 206 49 151 49 q 282 73 260 49 q 313 163 304 97 l 325 249 l 429 249 l 419 176 q 385 58 410 100 q 316 1 361 17 q 199 -15 271 -15 m 161 372 q 217 381 185 375 q 280 402 249 388 q 335 444 311 417 q 367 513 358 471 q 367 604 379 569 q 296 639 356 639 q 216 614 242 639 q 181 518 190 589 l 161 372 m 201 -192 q 133 -167 158 -192 q 113 -108 107 -143 q 151 -39 118 -69 q 224 1 185 -8 l 272 0 q 211 -42 233 -15 q 186 -94 189 -68 q 198 -135 182 -121 q 231 -149 214 -149 q 252 -146 243 -149 q 267 -140 261 -143 l 276 -174 q 249 -185 267 -178 q 201 -192 231 -192 z "},"=":{"ha":589,"x_min":43,"x_max":544,"o":"m 85 501 l 96 576 l 544 576 l 535 501 l 85 501 m 43 211 l 54 286 l 503 286 l 493 211 l 43 211 z "},"р":{"ha":514,"x_min":-1,"x_max":496,"o":"m -1 -161 l 117 688 l 217 688 l 211 629 q 258 676 228 656 q 350 697 288 697 q 443 677 411 697 q 485 619 475 657 q 488 526 496 581 l 439 189 q 411 82 431 126 q 353 14 392 38 q 251 -10 315 -10 q 172 8 200 -10 q 132 49 143 25 l 103 -161 l -1 -161 m 225 54 q 290 71 269 54 q 319 115 311 88 q 332 171 328 142 l 379 513 q 384 556 383 535 q 379 594 385 578 q 356 620 374 611 q 306 629 339 629 q 252 617 272 629 q 221 587 232 606 q 204 546 210 568 q 197 504 199 524 l 149 164 q 147 108 144 133 q 166 69 149 83 q 225 54 183 54 z "},"э":{"ha":514,"x_min":26,"x_max":489,"o":"m 208 -12 q 110 -1 149 -12 q 53 37 72 11 q 31 103 35 63 q 35 200 26 143 l 40 240 l 146 240 l 136 167 q 133 105 132 132 q 153 62 135 78 q 217 46 172 46 q 285 63 263 46 q 316 107 307 79 q 328 165 325 135 l 350 319 l 142 319 l 151 389 l 360 389 l 378 521 q 383 564 382 543 q 377 602 383 585 q 353 630 371 619 q 300 640 335 640 q 233 624 256 640 q 200 581 210 608 q 186 519 190 554 l 178 464 l 72 464 l 79 513 q 110 613 88 571 q 181 676 133 654 q 308 699 228 699 q 406 685 369 699 q 462 647 443 671 q 485 589 481 622 q 483 515 489 556 l 439 197 q 406 81 429 128 q 335 10 382 33 q 208 -12 289 -12 z "},"с":{"ha":490,"x_min":22,"x_max":483,"o":"m 199 -14 q 113 -6 149 -14 q 55 24 76 3 q 28 87 33 46 q 31 193 22 128 l 78 528 q 144 663 93 626 q 299 700 196 700 q 442 663 400 700 q 469 528 483 626 l 457 436 l 351 436 l 365 539 q 359 617 374 593 q 290 642 344 642 q 215 617 238 642 q 185 539 193 593 l 131 154 q 138 70 124 94 q 206 46 153 46 q 281 70 260 46 q 311 154 303 94 l 326 263 l 432 263 l 424 193 q 384 63 411 107 q 311 2 357 18 q 199 -14 265 -14 z "},"ð":{"ha":503,"x_min":21,"x_max":515,"o":"m 194 -11 q 125 -6 158 -11 q 67 18 92 0 q 31 76 42 36 q 31 185 21 115 l 75 506 q 115 617 86 581 q 188 667 144 654 q 281 679 231 679 q 339 672 310 679 q 379 642 368 664 q 384 752 386 706 q 360 824 382 799 q 281 849 338 849 q 213 843 244 849 q 154 832 182 838 l 164 901 q 223 913 188 906 q 307 921 258 921 q 447 881 406 921 q 490 758 488 842 q 472 542 492 675 l 426 224 q 403 125 419 168 q 360 52 388 82 q 292 6 333 22 q 194 -11 251 -11 m 203 47 q 265 68 243 47 q 299 120 288 89 q 317 183 311 151 l 368 549 q 363 576 369 560 q 338 607 356 593 q 282 621 319 621 q 224 607 244 621 q 196 569 204 593 q 182 511 188 546 l 131 144 q 132 92 125 111 q 151 63 139 72 q 177 51 163 54 q 203 47 192 47 m 249 726 l 224 761 l 490 961 l 515 925 l 249 726 z "},"ẽ":{"ha":489,"x_min":19,"x_max":493,"o":"m 199 -15 q 90 2 132 -15 q 34 63 49 19 q 31 192 19 107 l 78 528 q 147 662 93 626 q 292 697 200 697 q 449 656 406 697 q 474 511 493 615 q 422 413 461 450 q 332 353 383 375 q 231 324 281 332 q 151 313 182 315 l 131 165 q 136 74 121 100 q 206 49 151 49 q 282 73 260 49 q 313 163 304 97 l 325 249 l 429 249 l 419 176 q 385 58 410 100 q 316 1 361 17 q 199 -15 271 -15 m 161 372 q 217 381 185 375 q 280 402 249 388 q 335 444 311 417 q 367 513 358 471 q 367 604 379 569 q 296 639 356 639 q 216 614 242 639 q 181 518 190 589 l 161 372 m 364 768 q 331 775 344 768 q 300 793 318 782 q 275 810 289 801 q 244 818 261 818 q 215 806 228 818 q 196 769 201 793 l 158 769 q 192 842 167 814 q 253 871 217 871 q 290 863 274 871 q 321 844 306 856 q 347 830 335 836 q 372 824 358 824 q 403 835 392 824 q 422 868 415 846 l 464 868 q 426 795 454 822 q 364 768 397 768 z "},"€":{"ha":638,"x_min":42,"x_max":625,"o":"m 307 -17 q 200 -2 246 -17 q 134 58 154 13 q 126 196 114 104 l 144 325 l 42 325 l 67 368 l 150 368 l 161 446 l 57 446 l 83 490 l 168 490 l 190 649 q 233 763 200 724 q 317 817 267 803 q 428 832 367 832 q 536 817 490 832 q 603 763 582 801 q 614 649 625 724 l 608 606 l 500 606 l 507 651 q 503 726 514 701 q 471 758 493 750 q 418 765 449 765 q 363 758 388 765 q 321 726 338 750 q 296 651 304 701 l 274 490 l 482 490 l 454 446 l 268 446 l 257 368 l 410 368 l 385 325 l 250 325 l 228 163 q 231 88 221 113 q 263 56 240 64 q 317 49 286 49 q 373 56 349 49 q 415 88 397 64 q 438 163 432 113 l 450 244 l 558 244 l 550 196 q 504 58 538 103 q 421 -2 471 13 q 307 -17 371 -17 z "},"!":{"ha":261,"x_min":11,"x_max":249,"o":"m 72 267 l 86 507 l 135 875 l 249 875 l 192 510 l 138 267 l 72 267 m 69 -8 q 27 9 43 -8 q 14 53 11 26 q 39 94 18 76 q 88 111 60 111 q 131 94 114 111 q 144 53 149 76 q 119 9 142 26 q 69 -8 97 -8 z "},"¡":{"ha":261,"x_min":36,"x_max":233,"o":"m 110 414 l 175 414 l 176 171 l 150 -193 l 36 -193 l 72 174 l 110 414 m 169 690 q 215 673 196 690 q 232 629 233 656 q 212 588 232 606 q 164 569 192 569 q 119 588 136 569 q 101 629 101 606 q 122 673 103 656 q 169 690 142 690 z "},"f":{"ha":332,"x_min":26,"x_max":403,"o":"m 26 0 l 111 597 l 67 597 l 76 661 l 119 661 l 131 740 q 160 825 139 794 q 214 868 182 856 q 282 881 246 881 q 330 879 306 881 q 374 876 354 878 q 403 874 394 874 l 396 818 q 367 821 396 818 q 307 824 339 824 q 256 796 272 824 q 236 738 240 768 l 225 661 l 374 661 l 364 597 l 215 597 l 132 0 l 26 0 z "},"ﬁ":{"ha":564,"x_min":26,"x_max":576,"o":"m 26 0 l 111 597 l 67 597 l 76 661 l 119 661 l 131 740 q 160 825 139 794 q 214 868 182 856 q 282 881 246 881 q 330 879 306 881 q 374 876 354 878 q 403 874 394 874 l 396 818 q 367 821 396 818 q 307 824 339 824 q 256 796 272 824 q 236 738 240 768 l 225 661 l 374 661 l 364 597 l 215 597 l 132 0 l 26 0 m 344 0 l 442 688 l 546 688 l 449 0 l 344 0 m 514 767 q 472 783 490 767 q 454 825 454 800 q 472 866 454 849 q 515 883 490 883 q 558 866 540 883 q 575 825 575 849 q 558 783 576 800 q 514 767 539 767 z "},"ﬂ":{"ha":572,"x_min":26,"x_max":581,"o":"m 26 0 l 111 597 l 67 597 l 76 661 l 119 661 l 131 740 q 160 825 139 794 q 214 868 182 856 q 282 881 246 881 q 330 879 306 881 q 374 876 354 878 q 403 874 394 874 l 396 818 q 367 821 396 818 q 307 824 339 824 q 256 796 272 824 q 236 738 240 768 l 225 661 l 374 661 l 364 597 l 215 597 l 132 0 l 26 0 m 351 0 l 475 881 l 581 881 l 456 0 l 351 0 z "},"ƒ":{"ha":454,"x_min":-203,"x_max":511,"o":"m -96 -203 q -137 -201 -114 -203 q -178 -199 -160 -200 q -203 -196 -197 -197 l -187 -131 l -107 -137 q -48 -126 -71 -139 q -11 -86 -25 -114 q 15 -15 3 -58 l 163 550 l 89 550 l 103 610 l 178 610 l 211 731 q 274 839 233 804 q 369 874 314 874 q 403 874 383 874 q 444 873 424 874 q 483 871 465 872 q 511 868 501 869 l 494 804 q 458 810 485 807 q 399 813 431 813 q 338 782 357 813 q 310 717 319 751 l 279 610 l 426 610 l 413 550 l 265 550 l 111 -43 q 40 -162 90 -122 q -96 -203 -11 -203 z "},"⁴":{"ha":343,"x_min":21,"x_max":335,"o":"m 190 328 l 204 426 l 21 426 l 29 485 l 261 821 l 331 821 l 282 476 l 335 476 l 328 426 l 275 426 l 261 328 l 190 328 m 89 476 l 211 476 l 242 693 l 89 476 z "},"⁄":{"ha":419,"x_min":-162,"x_max":469,"o":"m -162 0 l 397 815 l 469 815 l -92 0 l -162 0 z "},"₣":{"ha":519,"x_min":17,"x_max":531,"o":"m 54 0 l 82 189 l 17 189 l 22 240 l 89 240 l 171 821 l 531 821 l 519 744 l 271 744 l 232 469 l 433 469 l 422 386 l 219 386 l 200 240 l 321 240 l 314 189 l 193 189 l 165 0 l 54 0 z "},"g":{"ha":504,"x_min":26,"x_max":492,"o":"m 169 -164 q 129 -162 151 -164 q 85 -159 107 -161 q 49 -155 64 -157 q 29 -151 33 -153 l 38 -92 q 86 -98 54 -94 q 143 -101 118 -101 q 183 -99 160 -101 q 229 -85 206 -97 q 271 -47 253 -74 q 296 28 289 -21 l 308 124 q 278 79 297 100 q 231 46 260 58 q 161 33 203 33 q 109 38 135 33 q 63 61 83 43 q 35 117 43 79 q 36 222 26 156 l 79 535 q 117 640 90 606 q 180 685 143 674 q 254 696 217 696 q 310 691 283 696 q 356 673 336 686 q 379 632 375 660 l 400 685 l 492 685 l 406 71 q 381 -25 399 18 q 333 -99 363 -68 q 263 -147 304 -131 q 169 -164 222 -164 m 210 100 q 273 119 250 100 q 308 171 296 139 q 324 236 319 203 l 371 575 q 360 599 368 586 q 334 622 351 613 q 283 632 317 632 q 215 609 239 632 q 183 526 192 586 l 138 196 q 140 143 133 163 q 159 115 146 124 q 186 103 172 106 q 210 100 200 100 z "},"ğ":{"ha":504,"x_min":26,"x_max":492,"o":"m 169 -164 q 129 -162 151 -164 q 85 -159 107 -161 q 49 -155 64 -157 q 29 -151 33 -153 l 38 -92 q 86 -98 54 -94 q 143 -101 118 -101 q 183 -99 160 -101 q 229 -85 206 -97 q 271 -47 253 -74 q 296 28 289 -21 l 308 124 q 278 79 297 100 q 231 46 260 58 q 161 33 203 33 q 109 38 135 33 q 63 61 83 43 q 35 117 43 79 q 36 222 26 156 l 79 535 q 117 640 90 606 q 180 685 143 674 q 254 696 217 696 q 310 691 283 696 q 356 673 336 686 q 379 632 375 660 l 400 685 l 492 685 l 406 71 q 381 -25 399 18 q 333 -99 363 -68 q 263 -147 304 -131 q 169 -164 222 -164 m 210 100 q 273 119 250 100 q 308 171 296 139 q 324 236 319 203 l 371 575 q 360 599 368 586 q 334 622 351 613 q 283 632 317 632 q 215 609 239 632 q 183 526 192 586 l 138 196 q 140 143 133 163 q 159 115 146 124 q 186 103 172 106 q 210 100 200 100 m 310 758 q 242 772 268 758 q 204 804 217 785 q 189 846 192 824 q 188 886 186 868 l 249 886 q 267 831 247 849 q 319 813 288 813 q 378 830 353 813 q 413 886 403 847 l 474 886 q 449 826 468 856 q 396 778 429 797 q 310 758 363 758 z "},"ģ":{"ha":504,"x_min":26,"x_max":492,"o":"m 399 933 q 362 879 375 903 q 347 843 349 856 q 353 828 347 835 q 366 815 360 822 q 371 792 372 807 q 354 764 369 778 q 317 750 339 750 q 281 763 294 750 q 269 796 267 776 q 284 838 271 813 q 317 888 297 863 q 354 933 336 914 l 399 933 m 169 -164 q 129 -162 151 -164 q 85 -159 107 -161 q 49 -155 64 -157 q 29 -151 33 -153 l 38 -92 q 86 -98 54 -94 q 143 -101 118 -101 q 183 -99 160 -101 q 229 -85 206 -97 q 271 -47 253 -74 q 296 28 289 -21 l 308 124 q 278 79 297 100 q 231 46 260 58 q 161 33 203 33 q 109 38 135 33 q 63 61 83 43 q 35 117 43 79 q 36 222 26 156 l 79 535 q 117 640 90 606 q 180 685 143 674 q 254 696 217 696 q 310 691 283 696 q 356 673 336 686 q 379 632 375 660 l 400 685 l 492 685 l 406 71 q 381 -25 399 18 q 333 -99 363 -68 q 263 -147 304 -131 q 169 -164 222 -164 m 210 100 q 273 119 250 100 q 308 171 296 139 q 324 236 319 203 l 371 575 q 360 599 368 586 q 334 622 351 613 q 283 632 317 632 q 215 609 239 632 q 183 526 192 586 l 138 196 q 140 143 133 163 q 159 115 146 124 q 186 103 172 106 q 210 100 200 100 z "},"ġ":{"ha":504,"x_min":26,"x_max":492,"o":"m 169 -164 q 129 -162 151 -164 q 85 -159 107 -161 q 49 -155 64 -157 q 29 -151 33 -153 l 38 -92 q 86 -98 54 -94 q 143 -101 118 -101 q 183 -99 160 -101 q 229 -85 206 -97 q 271 -47 253 -74 q 296 28 289 -21 l 308 124 q 278 79 297 100 q 231 46 260 58 q 161 33 203 33 q 109 38 135 33 q 63 61 83 43 q 35 117 43 79 q 36 222 26 156 l 79 535 q 117 640 90 606 q 180 685 143 674 q 254 696 217 696 q 310 691 283 696 q 356 673 336 686 q 379 632 375 660 l 400 685 l 492 685 l 406 71 q 381 -25 399 18 q 333 -99 363 -68 q 263 -147 304 -131 q 169 -164 222 -164 m 210 100 q 273 119 250 100 q 308 171 296 139 q 324 236 319 203 l 371 575 q 360 599 368 586 q 334 622 351 613 q 283 632 317 632 q 215 609 239 632 q 183 526 192 586 l 138 196 q 140 143 133 163 q 159 115 146 124 q 186 103 172 106 q 210 100 200 100 m 321 767 q 279 783 297 767 q 261 825 261 800 q 279 866 261 849 q 322 883 297 883 q 365 866 347 883 q 382 825 382 849 q 365 783 383 800 q 321 767 346 767 z "},"г":{"ha":401,"x_min":19,"x_max":443,"o":"m 19 0 l 117 688 l 443 688 l 431 610 l 215 610 l 131 0 l 19 0 z "},"ß":{"ha":565,"x_min":-131,"x_max":579,"o":"m -56 -204 q -95 -202 -71 -204 q -131 -199 -119 -200 q -129 -187 -131 -196 q -126 -167 -128 -178 q -124 -148 -125 -157 q -122 -136 -122 -139 l -103 -139 q -85 -141 -96 -140 q -61 -142 -75 -142 q 11 -112 -10 -142 q 38 -43 32 -83 l 129 613 l 79 613 l 90 688 l 140 688 l 144 725 q 174 811 153 778 q 242 860 194 844 q 376 876 289 876 q 529 847 479 876 q 568 740 579 817 l 550 608 q 508 514 542 550 q 440 475 475 478 l 439 469 q 488 451 465 467 q 524 408 511 436 q 531 339 538 381 l 507 168 q 467 60 497 96 q 390 12 436 24 q 283 0 343 0 l 193 0 l 201 58 l 278 58 q 335 69 311 58 q 374 113 358 81 q 399 208 390 144 l 417 332 q 412 394 422 371 q 377 428 401 418 q 317 438 353 438 l 269 438 l 278 497 l 346 497 q 417 528 397 497 q 446 613 438 560 l 460 711 q 448 794 468 768 q 369 821 428 821 q 298 806 322 821 q 264 767 274 790 q 250 717 254 743 l 146 -25 q 119 -112 138 -78 q 73 -167 100 -146 q 13 -196 46 -187 q -56 -204 -21 -204 z "},"ѓ":{"ha":401,"x_min":19,"x_max":443,"o":"m 19 0 l 117 688 l 443 688 l 431 610 l 215 610 l 131 0 l 19 0 m 229 758 l 318 890 l 425 890 l 296 758 l 229 758 z "},"`":{"ha":186,"x_min":76,"x_max":244,"o":"m 178 758 l 76 890 l 183 890 l 244 758 l 178 758 z "},"̀":{"ha":0,"x_min":76,"x_max":244,"o":"m 178 758 l 76 890 l 183 890 l 244 758 l 178 758 z "},">":{"ha":465,"x_min":31,"x_max":404,"o":"m 31 196 l 44 297 l 308 456 l 89 615 l 103 715 l 404 489 l 394 422 l 31 196 z "},"≥":{"ha":492,"x_min":32,"x_max":456,"o":"m 57 214 l 68 258 l 413 453 l 178 650 l 189 693 l 456 472 l 444 435 l 57 214 m 32 -1 l 40 28 l 356 28 l 349 -1 l 32 -1 z "},"«":{"ha":676,"x_min":57,"x_max":656,"o":"m 474 149 l 335 400 l 556 665 l 656 665 l 436 400 l 574 149 l 474 149 m 196 149 l 57 400 l 279 665 l 378 665 l 158 400 l 296 149 l 196 149 z "},"»":{"ha":676,"x_min":31,"x_max":618,"o":"m 308 149 l 517 400 l 372 665 l 471 665 l 618 400 l 408 149 l 308 149 m 31 149 l 240 400 l 94 665 l 194 665 l 340 400 l 131 149 l 31 149 z "},"‹":{"ha":399,"x_min":57,"x_max":378,"o":"m 196 149 l 57 400 l 278 665 l 378 665 l 158 400 l 296 149 l 196 149 z "},"›":{"ha":399,"x_min":29,"x_max":340,"o":"m 29 149 l 239 400 l 94 665 l 194 665 l 340 400 l 129 149 l 29 149 z "},"h":{"ha":519,"x_min":21,"x_max":492,"o":"m 21 0 l 143 875 l 242 875 l 207 624 q 264 679 226 660 q 351 699 301 699 q 435 684 404 699 q 478 644 465 669 q 491 587 490 619 q 486 517 492 554 l 414 0 l 308 0 l 378 497 q 383 537 382 517 q 377 574 383 557 q 354 603 371 592 q 303 614 338 614 q 249 604 271 614 q 217 581 228 594 q 204 556 207 567 l 126 0 l 21 0 z "},"х":{"ha":442,"x_min":-40,"x_max":478,"o":"m -40 0 q -1 110 -28 53 q 59 222 26 168 q 122 314 92 275 q 171 367 153 353 q 131 420 150 383 q 98 505 111 457 q 78 601 85 553 q 76 688 72 650 l 164 688 q 171 593 161 644 q 199 500 181 542 q 239 440 218 458 q 275 474 254 447 q 318 538 296 501 q 358 615 340 575 q 382 688 375 654 l 478 688 q 441 592 467 643 q 385 492 415 540 q 327 410 356 444 q 283 367 299 376 q 319 321 300 357 q 356 232 339 285 q 384 119 374 179 q 393 0 394 58 l 288 0 q 282 78 288 36 q 266 158 276 119 q 242 226 256 197 q 214 265 229 254 q 167 219 197 256 q 107 126 138 182 q 56 0 76 69 l -40 0 z "},"ъ":{"ha":544,"x_min":46,"x_max":501,"o":"m 46 0 l 133 622 l 47 622 l 57 688 l 250 688 l 219 471 l 353 471 q 441 454 407 471 q 488 400 475 438 q 492 300 501 363 l 479 207 q 455 106 471 146 q 413 42 439 65 q 353 10 388 19 q 272 0 319 0 l 46 0 m 160 58 l 260 58 q 322 74 300 58 q 355 117 344 89 q 369 179 365 144 l 383 282 q 388 343 390 315 q 369 388 386 371 q 308 404 351 404 l 210 404 l 160 58 z "},"ħ":{"ha":507,"x_min":21,"x_max":492,"o":"m 32 754 l 43 811 l 303 811 l 292 754 l 32 754 m 21 0 l 143 875 l 242 875 l 207 624 q 264 679 226 660 q 351 699 301 699 q 435 684 404 699 q 478 644 465 669 q 491 587 490 619 q 486 517 492 554 l 414 0 l 308 0 l 378 497 q 383 537 382 517 q 377 574 383 557 q 354 603 371 592 q 303 614 338 614 q 249 604 271 614 q 217 581 228 594 q 204 556 207 567 l 126 0 l 21 0 z "},"̉":{"ha":0,"x_min":74,"x_max":256,"o":"m 121 749 l 124 778 q 142 805 126 797 q 172 820 157 813 q 189 847 188 828 l 189 857 q 185 883 190 871 q 161 896 181 896 q 125 864 133 896 l 74 872 q 107 921 83 904 q 172 938 131 938 q 237 915 218 938 q 251 853 256 893 l 251 849 q 238 810 249 822 q 215 794 228 799 q 192 785 201 790 q 181 768 182 781 l 179 749 l 121 749 z "},"̛":{"ha":0,"x_min":44,"x_max":217,"o":"m 44 631 l 47 681 l 67 681 q 142 743 132 681 l 144 767 l 217 767 l 215 747 q 163 658 207 688 q 44 631 119 629 z "},"˝":{"ha":239,"x_min":58,"x_max":315,"o":"m 58 758 l 108 890 l 197 890 l 104 758 l 58 758 m 167 758 l 226 890 l 315 890 l 217 758 l 167 758 z "},"̋":{"ha":0,"x_min":58,"x_max":315,"o":"m 58 758 l 108 890 l 197 890 l 104 758 l 58 758 m 167 758 l 226 890 l 315 890 l 217 758 l 167 758 z "},"-":{"ha":400,"x_min":53,"x_max":347,"o":"m 53 335 l 63 410 l 347 410 l 338 335 l 53 335 z "},"i":{"ha":240,"x_min":19,"x_max":251,"o":"m 19 0 l 117 688 l 221 688 l 124 0 l 19 0 m 190 767 q 149 783 167 767 q 131 825 131 800 q 149 866 131 849 q 192 883 167 883 q 234 866 217 883 q 251 825 251 849 q 234 783 253 800 q 190 767 215 767 z "},"і":{"ha":240,"x_min":19,"x_max":251,"o":"m 19 0 l 117 688 l 221 688 l 124 0 l 19 0 m 190 767 q 149 783 167 767 q 131 825 131 800 q 149 866 131 849 q 192 883 167 883 q 234 866 217 883 q 251 825 251 849 q 234 783 253 800 q 190 767 215 767 z "},"я":{"ha":544,"x_min":-4,"x_max":538,"o":"m -4 0 l 114 236 q 160 300 136 278 q 213 325 183 322 q 118 367 147 331 q 100 482 89 404 l 107 531 q 167 650 118 613 q 289 688 215 688 l 538 688 l 440 0 l 328 0 l 372 314 l 294 299 q 240 245 264 282 q 193 160 215 208 l 117 0 l -4 0 m 293 361 l 379 361 l 417 625 l 304 625 q 245 598 271 625 q 213 525 219 571 l 207 486 q 222 389 199 417 q 293 361 244 361 z "},"í":{"ha":240,"x_min":19,"x_max":317,"o":"m 19 0 l 117 688 l 221 688 l 124 0 l 19 0 m 121 758 l 210 890 l 317 890 l 188 758 l 121 758 z "},"ǐ":{"ha":240,"x_min":19,"x_max":364,"o":"m 19 0 l 117 688 l 221 688 l 124 0 l 19 0 m 153 758 l 46 892 l 114 892 l 193 810 l 297 892 l 364 892 l 218 758 l 153 758 z "},"î":{"ha":240,"x_min":19,"x_max":340,"o":"m 19 0 l 117 688 l 221 688 l 124 0 l 19 0 m 22 758 l 167 892 l 233 892 l 340 758 l 274 758 l 193 842 l 92 758 l 22 758 z "},"ï":{"ha":240,"x_min":19,"x_max":311,"o":"m 19 0 l 117 688 l 221 688 l 124 0 l 19 0 m 117 772 q 81 787 96 772 q 67 822 67 801 q 81 856 67 843 q 117 869 96 869 q 153 856 139 869 q 168 822 168 843 q 153 787 168 801 q 117 772 139 772 m 261 772 q 224 787 239 772 q 210 822 210 801 q 224 856 210 843 q 261 869 239 869 q 297 856 282 869 q 311 822 311 843 q 297 787 311 801 q 261 772 282 772 z "},"ị":{"ha":240,"x_min":8,"x_max":251,"o":"m 19 0 l 117 688 l 221 688 l 124 0 l 19 0 m 190 767 q 149 783 167 767 q 131 825 131 800 q 149 866 131 849 q 192 883 167 883 q 234 866 217 883 q 251 825 251 849 q 234 783 253 800 q 190 767 215 767 m 60 -157 q 23 -142 38 -157 q 8 -107 8 -128 q 23 -74 8 -87 q 60 -60 38 -60 q 95 -74 81 -60 q 110 -107 110 -87 q 95 -142 110 -128 q 60 -157 81 -157 z "},"ı":{"ha":240,"x_min":19,"x_max":221,"o":"m 19 0 l 117 688 l 221 688 l 124 0 l 19 0 z "},"е":{"ha":489,"x_min":19,"x_max":493,"o":"m 199 -15 q 90 2 132 -15 q 34 63 49 19 q 31 192 19 107 l 78 528 q 147 662 93 626 q 292 697 200 697 q 449 656 406 697 q 474 511 493 615 q 422 413 461 450 q 332 353 383 375 q 231 324 281 332 q 151 313 182 315 l 131 165 q 136 74 121 100 q 206 49 151 49 q 282 73 260 49 q 313 163 304 97 l 325 249 l 429 249 l 419 176 q 385 58 410 100 q 316 1 361 17 q 199 -15 271 -15 m 161 372 q 217 381 185 375 q 280 402 249 388 q 335 444 311 417 q 367 513 358 471 q 367 604 379 569 q 296 639 356 639 q 216 614 242 639 q 181 518 190 589 l 161 372 z "},"ѐ":{"ha":489,"x_min":19,"x_max":493,"o":"m 199 -15 q 90 2 132 -15 q 34 63 49 19 q 31 192 19 107 l 78 528 q 147 662 93 626 q 292 697 200 697 q 449 656 406 697 q 474 511 493 615 q 422 413 461 450 q 332 353 383 375 q 231 324 281 332 q 151 313 182 315 l 131 165 q 136 74 121 100 q 206 49 151 49 q 282 73 260 49 q 313 163 304 97 l 325 249 l 429 249 l 419 176 q 385 58 410 100 q 316 1 361 17 q 199 -15 271 -15 m 161 372 q 217 381 185 375 q 280 402 249 388 q 335 444 311 417 q 367 513 358 471 q 367 604 379 569 q 296 639 356 639 q 216 614 242 639 q 181 518 190 589 l 161 372 m 288 758 l 186 890 l 293 890 l 354 758 l 288 758 z "},"ì":{"ha":240,"x_min":19,"x_max":233,"o":"m 19 0 l 117 688 l 221 688 l 124 0 l 19 0 m 167 758 l 65 890 l 172 890 l 233 758 l 167 758 z "},"ỉ":{"ha":240,"x_min":19,"x_max":281,"o":"m 19 0 l 117 688 l 221 688 l 124 0 l 19 0 m 146 749 l 149 778 q 167 805 151 797 q 197 820 182 813 q 214 847 213 828 l 214 857 q 210 883 215 871 q 186 896 206 896 q 150 864 158 896 l 99 872 q 132 921 108 904 q 197 938 156 938 q 262 915 243 938 q 276 853 281 893 l 276 849 q 263 810 274 822 q 240 794 253 799 q 217 785 226 790 q 206 768 207 781 l 204 749 l 146 749 z "},"и":{"ha":535,"x_min":19,"x_max":515,"o":"m 19 0 l 117 686 l 211 686 l 140 192 l 421 686 l 515 686 l 418 0 l 325 0 l 397 518 q 253 259 325 388 q 107 0 182 131 l 19 0 z "},"ѝ":{"ha":535,"x_min":19,"x_max":515,"o":"m 19 0 l 117 686 l 211 686 l 140 192 l 421 686 l 515 686 l 418 0 l 325 0 l 397 518 q 253 259 325 388 q 107 0 182 131 l 19 0 m 311 758 l 210 890 l 317 890 l 378 758 l 311 758 z "},"й":{"ha":535,"x_min":19,"x_max":515,"o":"m 19 0 l 117 686 l 211 686 l 140 192 l 421 686 l 515 686 l 418 0 l 325 0 l 397 518 q 253 259 325 388 q 107 0 182 131 l 19 0 m 324 758 q 256 772 282 758 q 218 804 231 785 q 203 846 206 824 q 201 886 200 868 l 263 886 q 281 831 261 849 q 333 813 301 813 q 392 830 367 813 q 426 886 417 847 l 488 886 q 463 826 482 856 q 410 778 443 797 q 324 758 376 758 z "},"ī":{"ha":240,"x_min":19,"x_max":321,"o":"m 19 0 l 117 688 l 221 688 l 124 0 l 19 0 m 49 783 l 56 840 l 321 840 l 314 783 l 49 783 z "},"∞":{"ha":982,"x_min":43,"x_max":938,"o":"m 201 138 q 80 187 117 138 q 57 338 43 236 q 119 485 71 431 q 258 539 167 539 q 346 521 308 539 q 419 467 383 503 q 497 382 454 432 q 600 468 556 433 q 688 521 644 503 q 781 539 731 539 q 905 485 872 539 q 925 338 938 431 q 864 191 913 244 q 725 138 815 138 q 637 156 675 138 q 563 210 599 175 q 485 296 528 246 q 382 209 428 244 q 294 156 336 174 q 201 138 251 138 m 213 206 q 318 240 268 206 q 440 339 368 275 q 383 400 411 371 q 323 449 354 429 q 250 468 292 468 q 163 431 194 468 q 122 336 131 394 q 135 243 114 281 q 213 206 156 206 m 732 208 q 819 243 786 208 q 860 340 851 278 q 847 433 868 396 q 769 471 825 471 q 722 464 743 471 q 676 442 700 457 q 621 402 653 428 q 542 338 589 376 q 613 263 583 292 q 669 222 642 235 q 732 208 697 208 z "},"∫":{"ha":543,"x_min":-221,"x_max":601,"o":"m -122 -408 q -171 -404 -146 -407 q -221 -397 -196 -401 l -199 -328 l -108 -336 q -46 -307 -68 -335 q -15 -250 -24 -279 l 296 736 q 343 822 314 792 q 413 865 372 853 q 501 876 453 876 q 555 872 529 875 q 601 865 581 869 l 579 796 l 488 804 q 426 775 447 803 q 396 718 406 747 l 85 -269 q 37 -354 67 -324 q -33 -397 7 -385 q -122 -408 -74 -408 z "},"ё":{"ha":489,"x_min":19,"x_max":493,"o":"m 199 -15 q 90 2 132 -15 q 34 63 49 19 q 31 192 19 107 l 78 528 q 147 662 93 626 q 292 697 200 697 q 449 656 406 697 q 474 511 493 615 q 422 413 461 450 q 332 353 383 375 q 231 324 281 332 q 151 313 182 315 l 131 165 q 136 74 121 100 q 206 49 151 49 q 282 73 260 49 q 313 163 304 97 l 325 249 l 429 249 l 419 176 q 385 58 410 100 q 316 1 361 17 q 199 -15 271 -15 m 161 372 q 217 381 185 375 q 280 402 249 388 q 335 444 311 417 q 367 513 358 471 q 367 604 379 569 q 296 639 356 639 q 216 614 242 639 q 181 518 190 589 l 161 372 m 239 772 q 203 787 218 772 q 189 822 189 801 q 203 856 189 843 q 239 869 218 869 q 276 856 261 869 q 290 822 290 843 q 276 787 290 801 q 239 772 261 772 m 383 772 q 347 787 361 772 q 332 822 332 801 q 347 856 332 843 q 383 869 361 869 q 419 856 404 869 q 433 822 433 843 q 419 787 433 801 q 383 772 404 772 z "},"į":{"ha":240,"x_min":-40,"x_max":251,"o":"m 19 0 l 117 688 l 221 688 l 124 0 l 19 0 m 190 767 q 149 783 167 767 q 131 825 131 800 q 149 866 131 849 q 192 883 167 883 q 234 866 217 883 q 251 825 251 849 q 234 783 253 800 q 190 767 215 767 m 53 -192 q -16 -167 10 -192 q -36 -108 -42 -143 q 3 -39 -31 -69 q 75 1 36 -8 l 124 0 q 63 -42 85 -15 q 38 -94 40 -68 q 49 -135 33 -121 q 82 -149 65 -149 q 103 -146 94 -149 q 118 -140 113 -143 l 128 -174 q 100 -185 118 -178 q 53 -192 82 -192 z "},"ĩ":{"ha":240,"x_min":19,"x_max":342,"o":"m 19 0 l 117 688 l 221 688 l 124 0 l 19 0 m 243 768 q 210 775 224 768 q 179 793 197 782 q 154 810 168 801 q 124 818 140 818 q 94 806 107 818 q 75 769 81 793 l 38 769 q 71 842 46 814 q 132 871 96 871 q 169 863 153 871 q 200 844 185 856 q 226 830 214 836 q 251 824 238 824 q 283 835 271 824 q 301 868 294 846 l 343 868 q 305 795 333 822 q 243 768 276 768 z "},"ю":{"ha":808,"x_min":7,"x_max":783,"o":"m 507 -12 q 413 1 449 -12 q 358 40 376 14 q 336 104 340 65 q 340 196 332 143 l 385 517 q 415 612 393 571 q 483 676 438 653 q 607 699 529 699 q 701 685 665 699 q 756 648 738 672 q 779 591 775 624 q 778 517 783 558 l 733 197 q 699 80 724 126 q 630 10 675 33 q 507 -12 585 -12 m 7 0 l 104 688 l 210 688 l 168 400 l 400 400 l 389 319 l 157 319 l 113 0 l 7 0 m 515 46 q 578 63 557 46 q 610 106 600 79 q 624 163 619 132 l 674 525 q 676 581 678 556 q 657 624 674 607 q 600 640 640 640 q 537 624 558 640 q 506 581 515 607 q 492 525 496 556 l 440 163 q 438 106 436 132 q 456 63 439 79 q 515 46 474 46 z "},"j":{"ha":218,"x_min":-156,"x_max":239,"o":"m -115 -154 q -137 -153 -124 -154 q -156 -150 -151 -151 l -147 -93 q -128 -94 -142 -93 q -104 -93 -115 -94 q -28 -73 -57 -92 q 8 -7 1 -54 l 106 688 l 210 688 l 115 18 q 72 -96 106 -58 q -12 -145 38 -133 q -115 -154 -61 -157 m 176 767 q 135 783 153 767 q 117 825 117 800 q 135 866 117 849 q 178 883 153 883 q 220 866 203 883 q 238 825 238 849 q 220 783 239 800 q 176 767 201 767 z "},"ȷ":{"ha":218,"x_min":-156,"x_max":210,"o":"m -115 -154 q -137 -153 -124 -154 q -156 -150 -151 -151 l -147 -93 q -128 -94 -142 -93 q -104 -93 -115 -94 q -28 -73 -57 -92 q 8 -7 1 -54 l 106 688 l 210 688 l 115 18 q 72 -96 106 -58 q -12 -145 38 -133 q -115 -154 -61 -157 z "},"ј":{"ha":218,"x_min":-156,"x_max":239,"o":"m -115 -154 q -137 -153 -124 -154 q -156 -150 -151 -151 l -147 -93 q -128 -94 -142 -93 q -104 -93 -115 -94 q -28 -73 -57 -92 q 8 -7 1 -54 l 106 688 l 210 688 l 115 18 q 72 -96 106 -58 q -12 -145 38 -133 q -115 -154 -61 -157 m 176 767 q 135 783 153 767 q 117 825 117 800 q 135 866 117 849 q 178 883 153 883 q 220 866 203 883 q 238 825 238 849 q 220 783 239 800 q 176 767 201 767 z "},"k":{"ha":483,"x_min":19,"x_max":513,"o":"m 19 0 l 143 881 l 249 881 l 124 0 l 19 0 m 303 0 l 200 399 l 407 688 l 513 688 l 303 399 l 417 0 l 303 0 z "},"к":{"ha":500,"x_min":19,"x_max":528,"o":"m 19 0 l 117 688 l 222 688 l 182 403 q 293 544 232 483 q 416 639 354 606 q 528 671 478 672 l 518 599 q 449 569 482 590 q 389 522 417 549 q 353 484 369 504 q 319 442 336 464 l 429 0 l 308 0 l 214 326 q 183 283 197 307 q 160 249 168 260 l 125 0 l 19 0 z "},"ķ":{"ha":483,"x_min":19,"x_max":513,"o":"m 19 0 l 143 881 l 249 881 l 124 0 l 19 0 m 303 0 l 200 399 l 407 688 l 513 688 l 303 399 l 417 0 l 303 0 m 122 -229 q 160 -174 146 -197 q 174 -137 174 -150 q 167 -124 174 -129 q 156 -110 161 -118 q 150 -87 150 -101 q 167 -59 151 -72 q 204 -46 182 -46 q 240 -58 226 -46 q 251 -92 253 -71 q 237 -132 250 -107 q 205 -183 224 -157 q 167 -229 186 -208 l 122 -229 z "},"ќ":{"ha":500,"x_min":19,"x_max":528,"o":"m 19 0 l 117 688 l 222 688 l 182 403 q 293 544 232 483 q 416 639 354 606 q 528 671 478 672 l 518 599 q 449 569 482 590 q 389 522 417 549 q 353 484 369 504 q 319 442 336 464 l 429 0 l 308 0 l 214 326 q 183 283 197 307 q 160 249 168 260 l 125 0 l 19 0 m 281 758 l 369 890 l 476 890 l 347 758 l 281 758 z "},"l":{"ha":240,"x_min":19,"x_max":249,"o":"m 19 0 l 143 881 l 249 881 l 124 0 l 19 0 z "},"ĺ":{"ha":240,"x_min":19,"x_max":347,"o":"m 19 0 l 143 881 l 249 881 l 124 0 l 19 0 m 117 935 l 243 1054 l 347 1054 l 182 935 l 117 935 z "},"ľ":{"ha":300,"x_min":19,"x_max":393,"o":"m 19 0 l 143 881 l 249 881 l 124 0 l 19 0 m 272 714 l 325 901 l 393 901 l 313 714 l 272 714 z "},"ļ":{"ha":240,"x_min":-19,"x_max":249,"o":"m 19 0 l 143 881 l 249 881 l 124 0 l 19 0 m -19 -229 q 18 -174 4 -197 q 32 -137 32 -150 q 26 -124 32 -129 q 14 -110 19 -118 q 8 -87 8 -101 q 25 -59 10 -72 q 63 -46 40 -46 q 98 -58 85 -46 q 110 -92 111 -71 q 95 -132 108 -107 q 63 -183 82 -157 q 25 -229 44 -208 l -19 -229 z "},"←":{"ha":1115,"x_min":58,"x_max":1054,"o":"m 400 75 l 58 376 l 400 681 l 453 629 l 236 421 l 1054 418 l 1054 335 l 238 336 l 451 126 l 400 75 z "},"↔":{"ha":1368,"x_min":57,"x_max":1308,"o":"m 403 81 l 57 383 l 403 686 l 454 635 l 239 426 l 1126 426 l 911 635 l 964 686 l 1308 383 l 964 81 l 911 132 l 1125 340 l 242 340 l 454 132 l 403 81 z "},"<":{"ha":465,"x_min":61,"x_max":436,"o":"m 363 196 l 61 421 l 71 489 l 436 715 l 421 614 l 157 453 l 376 296 l 363 196 z "},"≤":{"ha":450,"x_min":25,"x_max":442,"o":"m 367 196 l 67 422 l 75 489 l 442 715 l 426 615 l 163 456 l 382 297 l 367 196 m 350 -4 l 25 -4 l 33 71 l 357 71 l 350 -4 z "},"љ":{"ha":847,"x_min":-26,"x_max":804,"o":"m -26 0 l -18 58 q 17 71 0 58 q 47 106 33 83 q 67 163 60 129 l 185 686 l 554 686 l 524 471 l 656 471 q 748 453 715 471 q 792 397 781 435 q 794 300 804 360 l 785 226 q 762 122 776 165 q 722 52 747 79 q 663 13 697 25 q 576 0 628 0 l 349 0 l 435 610 l 281 610 l 169 133 q 158 92 165 115 q 137 49 150 69 q 99 14 124 28 q 36 0 75 0 l -26 0 m 465 58 l 564 58 q 626 74 604 58 q 658 117 649 89 q 674 179 668 144 l 688 282 q 691 343 693 315 q 672 388 689 371 q 611 404 656 404 l 514 404 l 465 58 z "},"¬":{"ha":774,"x_min":74,"x_max":739,"o":"m 621 228 l 657 485 l 74 485 l 85 563 l 739 563 l 693 228 l 621 228 z "},"ſ":{"ha":349,"x_min":-124,"x_max":464,"o":"m -17 -201 q -72 -200 -43 -201 q -124 -194 -101 -199 l -117 -136 l -76 -139 q -49 -137 -64 -139 q -21 -133 -35 -136 q 24 -107 8 -131 q 43 -60 39 -83 l 128 544 l 78 544 l 88 611 l 138 611 l 156 740 q 188 825 164 794 q 249 868 211 856 q 333 881 288 881 q 403 875 371 881 q 464 863 435 869 l 446 800 q 392 811 418 807 q 331 815 365 815 q 279 785 296 815 q 258 725 263 754 l 153 -25 q 122 -123 144 -85 q 63 -180 99 -161 q -17 -201 28 -199 z "},"◊":{"ha":661,"x_min":58,"x_max":603,"o":"m 292 -49 l 58 406 l 292 858 l 369 858 l 603 406 l 369 -49 l 292 -49 m 332 54 l 504 408 l 332 754 l 157 406 l 332 54 z "},"ł":{"ha":392,"x_min":15,"x_max":335,"o":"m 81 0 l 114 240 l 15 199 l 22 251 l 122 293 l 204 881 l 308 881 l 232 340 l 335 383 l 326 331 l 225 288 l 185 0 l 81 0 z "},"m":{"ha":794,"x_min":21,"x_max":775,"o":"m 21 0 l 117 688 l 206 688 l 204 611 q 265 674 224 650 q 350 697 307 697 q 448 676 417 697 q 483 607 479 654 q 546 672 507 646 q 633 697 585 697 q 751 653 728 697 q 763 515 775 610 l 690 0 l 585 0 l 656 517 q 656 582 663 560 q 633 613 650 604 q 586 621 615 621 q 522 598 551 621 q 483 540 492 575 l 407 0 l 301 0 l 375 521 q 374 585 382 564 q 349 614 367 607 q 303 621 331 621 q 242 601 267 621 q 204 556 218 582 l 126 0 l 21 0 z "},"¯":{"ha":267,"x_min":63,"x_max":335,"o":"m 63 783 l 69 840 l 335 840 l 328 783 l 63 783 z "},"̄":{"ha":0,"x_min":64,"x_max":336,"o":"m 64 783 l 71 840 l 336 840 l 329 783 l 64 783 z "},"µ":{"ha":507,"x_min":-3,"x_max":511,"o":"m -3 -179 l 119 688 l 225 688 l 146 132 q 174 83 153 100 q 232 65 194 65 q 277 72 257 65 q 312 102 297 79 q 333 171 326 125 l 406 688 l 511 688 l 439 172 q 412 69 431 110 q 357 10 393 29 q 257 -10 321 -10 q 178 12 214 -10 q 132 76 143 33 l 86 -179 l -3 -179 z "},"−":{"ha":665,"x_min":75,"x_max":542,"o":"m 75 315 l 86 393 l 542 393 l 531 315 l 75 315 z "},"×":{"ha":513,"x_min":44,"x_max":469,"o":"m 372 165 l 249 308 l 92 172 l 44 228 l 200 364 l 78 507 l 142 563 l 263 419 l 421 558 l 469 501 l 313 364 l 433 219 l 372 165 z "},"n":{"ha":519,"x_min":21,"x_max":490,"o":"m 21 0 l 117 688 l 204 688 l 204 611 q 267 677 226 656 q 351 699 307 699 q 435 684 404 699 q 477 644 465 669 q 490 587 489 619 q 486 517 490 554 l 414 0 l 308 0 l 379 506 q 383 547 382 526 q 379 585 385 568 q 357 611 374 601 q 306 621 340 621 q 254 610 275 621 q 222 584 233 599 q 204 557 210 569 l 126 0 l 21 0 z "},"ń":{"ha":519,"x_min":21,"x_max":490,"o":"m 21 0 l 117 688 l 204 688 l 204 611 q 267 677 226 656 q 351 699 307 699 q 435 684 404 699 q 477 644 465 669 q 490 587 489 619 q 486 517 490 554 l 414 0 l 308 0 l 379 506 q 383 547 382 526 q 379 585 385 568 q 357 611 374 601 q 306 621 340 621 q 254 610 275 621 q 222 584 233 599 q 204 557 210 569 l 126 0 l 21 0 m 265 758 l 354 890 l 461 890 l 332 758 l 265 758 z "},"ň":{"ha":519,"x_min":21,"x_max":508,"o":"m 21 0 l 117 688 l 204 688 l 204 611 q 267 677 226 656 q 351 699 307 699 q 435 684 404 699 q 477 644 465 669 q 490 587 489 619 q 486 517 490 554 l 414 0 l 308 0 l 379 506 q 383 547 382 526 q 379 585 385 568 q 357 611 374 601 q 306 621 340 621 q 254 610 275 621 q 222 584 233 599 q 204 557 210 569 l 126 0 l 21 0 m 297 758 l 190 892 l 258 892 l 338 810 l 442 892 l 508 892 l 363 758 l 297 758 z "},"ņ":{"ha":519,"x_min":21,"x_max":490,"o":"m 21 0 l 117 688 l 204 688 l 204 611 q 267 677 226 656 q 351 699 307 699 q 435 684 404 699 q 477 644 465 669 q 490 587 489 619 q 486 517 490 554 l 414 0 l 308 0 l 379 506 q 383 547 382 526 q 379 585 385 568 q 357 611 374 601 q 306 621 340 621 q 254 610 275 621 q 222 584 233 599 q 204 557 210 569 l 126 0 l 21 0 m 126 -229 q 164 -174 150 -197 q 178 -137 178 -150 q 172 -124 178 -129 q 160 -110 165 -118 q 154 -87 154 -101 q 171 -59 156 -72 q 208 -46 186 -46 q 244 -58 231 -46 q 256 -92 257 -71 q 241 -132 254 -107 q 209 -183 228 -157 q 171 -229 190 -208 l 126 -229 z "},"њ":{"ha":801,"x_min":7,"x_max":758,"o":"m 7 0 l 104 688 l 210 688 l 168 400 l 361 400 l 403 688 l 507 688 l 476 471 l 610 471 q 701 453 668 471 q 747 397 735 435 q 749 300 758 360 l 739 226 q 715 122 731 165 q 676 52 700 79 q 616 13 651 25 q 531 0 581 0 l 306 0 l 350 319 l 157 319 l 113 0 l 7 0 m 417 58 l 517 58 q 579 74 557 58 q 612 117 601 89 q 626 179 622 144 l 640 282 q 645 343 647 315 q 626 388 643 371 q 565 404 608 404 l 467 404 l 417 58 z "},"↗":{"ha":814,"x_min":33,"x_max":769,"o":"m 94 100 l 33 161 l 613 736 l 314 735 l 314 807 l 769 835 l 742 378 l 668 378 l 674 678 l 94 100 z "},"↖":{"ha":838,"x_min":64,"x_max":799,"o":"m 739 85 l 163 663 l 167 365 l 92 365 l 64 821 l 522 793 l 522 719 l 222 725 l 799 144 l 739 85 z "},"≠":{"ha":568,"x_min":11,"x_max":560,"o":"m 11 -14 l 163 211 l 61 211 l 72 286 l 214 286 l 357 501 l 101 501 l 114 576 l 408 576 l 504 724 l 560 724 l 463 576 l 539 576 l 529 501 l 411 501 l 267 286 l 499 286 l 488 211 l 215 211 l 65 -14 l 11 -14 z "},"ñ":{"ha":519,"x_min":21,"x_max":490,"o":"m 21 0 l 117 688 l 204 688 l 204 611 q 267 677 226 656 q 351 699 307 699 q 435 684 404 699 q 477 644 465 669 q 490 587 489 619 q 486 517 490 554 l 414 0 l 308 0 l 379 506 q 383 547 382 526 q 379 585 385 568 q 357 611 374 601 q 306 621 340 621 q 254 610 275 621 q 222 584 233 599 q 204 557 210 569 l 126 0 l 21 0 m 388 768 q 355 775 368 768 q 324 793 342 782 q 299 810 313 801 q 268 818 285 818 q 238 806 251 818 q 219 769 225 793 l 182 769 q 215 842 190 814 q 276 871 240 871 q 313 863 297 871 q 344 844 329 856 q 370 830 358 836 q 396 824 382 824 q 427 835 415 824 q 446 868 439 846 l 488 868 q 449 795 478 822 q 388 768 421 768 z "},"#":{"ha":972,"x_min":56,"x_max":917,"o":"m 178 0 l 260 256 l 56 256 l 75 322 l 279 322 l 346 531 l 140 532 l 161 597 l 367 597 l 429 796 l 496 796 l 433 597 l 650 597 l 713 796 l 781 796 l 717 597 l 917 597 l 896 531 l 696 531 l 631 322 l 832 322 l 811 256 l 610 256 l 529 0 l 461 0 l 542 256 l 326 256 l 246 0 l 178 0 m 347 322 l 563 322 l 628 531 l 413 531 l 347 322 z "},"o":{"ha":497,"x_min":25,"x_max":474,"o":"m 200 -10 q 106 3 142 -10 q 51 41 69 15 q 28 106 32 67 q 32 199 25 146 l 75 511 q 106 610 83 568 q 175 676 129 653 q 300 699 221 699 q 394 685 358 699 q 449 647 431 672 q 470 588 467 622 q 468 511 474 554 l 425 199 q 391 81 415 128 q 321 13 367 35 q 200 -10 275 -10 m 208 56 q 272 72 250 56 q 303 115 293 88 q 315 171 313 142 l 364 518 q 367 574 369 549 q 349 616 365 600 q 290 632 332 632 q 227 616 249 632 q 197 574 206 600 q 182 518 188 549 l 133 171 q 132 115 131 142 q 150 72 133 88 q 208 56 167 56 z "},"о":{"ha":497,"x_min":25,"x_max":474,"o":"m 200 -10 q 106 3 142 -10 q 51 41 69 15 q 28 106 32 67 q 32 199 25 146 l 75 511 q 106 610 83 568 q 175 676 129 653 q 300 699 221 699 q 394 685 358 699 q 449 647 431 672 q 470 588 467 622 q 468 511 474 554 l 425 199 q 391 81 415 128 q 321 13 367 35 q 200 -10 275 -10 m 208 56 q 272 72 250 56 q 303 115 293 88 q 315 171 313 142 l 364 518 q 367 574 369 549 q 349 616 365 600 q 290 632 332 632 q 227 616 249 632 q 197 574 206 600 q 182 518 188 549 l 133 171 q 132 115 131 142 q 150 72 133 88 q 208 56 167 56 z "},"ó":{"ha":497,"x_min":25,"x_max":474,"o":"m 200 -10 q 106 3 142 -10 q 51 41 69 15 q 28 106 32 67 q 32 199 25 146 l 75 511 q 106 610 83 568 q 175 676 129 653 q 300 699 221 699 q 394 685 358 699 q 449 647 431 672 q 470 588 467 622 q 468 511 474 554 l 425 199 q 391 81 415 128 q 321 13 367 35 q 200 -10 275 -10 m 208 56 q 272 72 250 56 q 303 115 293 88 q 315 171 313 142 l 364 518 q 367 574 369 549 q 349 616 365 600 q 290 632 332 632 q 227 616 249 632 q 197 574 206 600 q 182 518 188 549 l 133 171 q 132 115 131 142 q 150 72 133 88 q 208 56 167 56 m 247 758 l 336 890 l 443 890 l 314 758 l 247 758 z "},"ǒ":{"ha":497,"x_min":25,"x_max":490,"o":"m 200 -10 q 106 3 142 -10 q 51 41 69 15 q 28 106 32 67 q 32 199 25 146 l 75 511 q 106 610 83 568 q 175 676 129 653 q 300 699 221 699 q 394 685 358 699 q 449 647 431 672 q 470 588 467 622 q 468 511 474 554 l 425 199 q 391 81 415 128 q 321 13 367 35 q 200 -10 275 -10 m 208 56 q 272 72 250 56 q 303 115 293 88 q 315 171 313 142 l 364 518 q 367 574 369 549 q 349 616 365 600 q 290 632 332 632 q 227 616 249 632 q 197 574 206 600 q 182 518 188 549 l 133 171 q 132 115 131 142 q 150 72 133 88 q 208 56 167 56 m 279 758 l 172 892 l 240 892 l 319 810 l 424 892 l 490 892 l 344 758 l 279 758 z "},"ô":{"ha":497,"x_min":25,"x_max":474,"o":"m 200 -10 q 106 3 142 -10 q 51 41 69 15 q 28 106 32 67 q 32 199 25 146 l 75 511 q 106 610 83 568 q 175 676 129 653 q 300 699 221 699 q 394 685 358 699 q 449 647 431 672 q 470 588 467 622 q 468 511 474 554 l 425 199 q 391 81 415 128 q 321 13 367 35 q 200 -10 275 -10 m 208 56 q 272 72 250 56 q 303 115 293 88 q 315 171 313 142 l 364 518 q 367 574 369 549 q 349 616 365 600 q 290 632 332 632 q 227 616 249 632 q 197 574 206 600 q 182 518 188 549 l 133 171 q 132 115 131 142 q 150 72 133 88 q 208 56 167 56 m 149 758 l 293 892 l 360 892 l 467 758 l 400 758 l 319 842 l 218 758 l 149 758 z "},"ố":{"ha":497,"x_min":25,"x_max":660,"o":"m 200 -10 q 106 3 142 -10 q 51 41 69 15 q 28 106 32 67 q 32 199 25 146 l 75 511 q 106 610 83 568 q 175 676 129 653 q 300 699 221 699 q 394 685 358 699 q 449 647 431 672 q 470 588 467 622 q 468 511 474 554 l 425 199 q 391 81 415 128 q 321 13 367 35 q 200 -10 275 -10 m 208 56 q 272 72 250 56 q 303 115 293 88 q 315 171 313 142 l 364 518 q 367 574 369 549 q 349 616 365 600 q 290 632 332 632 q 227 616 249 632 q 197 574 206 600 q 182 518 188 549 l 133 171 q 132 115 131 142 q 150 72 133 88 q 208 56 167 56 m 149 758 l 293 892 l 360 892 l 467 758 l 400 758 l 319 842 l 218 758 l 149 758 m 464 838 l 553 969 l 660 969 l 531 838 l 464 838 z "},"ộ":{"ha":497,"x_min":25,"x_max":474,"o":"m 200 -10 q 106 3 142 -10 q 51 41 69 15 q 28 106 32 67 q 32 199 25 146 l 75 511 q 106 610 83 568 q 175 676 129 653 q 300 699 221 699 q 394 685 358 699 q 449 647 431 672 q 470 588 467 622 q 468 511 474 554 l 425 199 q 391 81 415 128 q 321 13 367 35 q 200 -10 275 -10 m 208 56 q 272 72 250 56 q 303 115 293 88 q 315 171 313 142 l 364 518 q 367 574 369 549 q 349 616 365 600 q 290 632 332 632 q 227 616 249 632 q 197 574 206 600 q 182 518 188 549 l 133 171 q 132 115 131 142 q 150 72 133 88 q 208 56 167 56 m 185 -157 q 148 -142 163 -157 q 133 -107 133 -128 q 148 -74 133 -87 q 185 -60 163 -60 q 220 -74 206 -60 q 235 -107 235 -87 q 220 -142 235 -128 q 185 -157 206 -157 m 149 758 l 293 892 l 360 892 l 467 758 l 400 758 l 319 842 l 218 758 l 149 758 z "},"ồ":{"ha":497,"x_min":25,"x_max":576,"o":"m 200 -10 q 106 3 142 -10 q 51 41 69 15 q 28 106 32 67 q 32 199 25 146 l 75 511 q 106 610 83 568 q 175 676 129 653 q 300 699 221 699 q 394 685 358 699 q 449 647 431 672 q 470 588 467 622 q 468 511 474 554 l 425 199 q 391 81 415 128 q 321 13 367 35 q 200 -10 275 -10 m 208 56 q 272 72 250 56 q 303 115 293 88 q 315 171 313 142 l 364 518 q 367 574 369 549 q 349 616 365 600 q 290 632 332 632 q 227 616 249 632 q 197 574 206 600 q 182 518 188 549 l 133 171 q 132 115 131 142 q 150 72 133 88 q 208 56 167 56 m 149 758 l 293 892 l 360 892 l 467 758 l 400 758 l 319 842 l 218 758 l 149 758 m 510 838 l 408 969 l 515 969 l 576 838 l 510 838 z "},"ổ":{"ha":497,"x_min":25,"x_max":625,"o":"m 200 -10 q 106 3 142 -10 q 51 41 69 15 q 28 106 32 67 q 32 199 25 146 l 75 511 q 106 610 83 568 q 175 676 129 653 q 300 699 221 699 q 394 685 358 699 q 449 647 431 672 q 470 588 467 622 q 468 511 474 554 l 425 199 q 391 81 415 128 q 321 13 367 35 q 200 -10 275 -10 m 208 56 q 272 72 250 56 q 303 115 293 88 q 315 171 313 142 l 364 518 q 367 574 369 549 q 349 616 365 600 q 290 632 332 632 q 227 616 249 632 q 197 574 206 600 q 182 518 188 549 l 133 171 q 132 115 131 142 q 150 72 133 88 q 208 56 167 56 m 149 758 l 293 892 l 360 892 l 467 758 l 400 758 l 319 842 l 218 758 l 149 758 m 489 828 l 492 857 q 510 884 494 876 q 540 899 525 892 q 557 926 556 907 l 557 936 q 553 963 558 950 q 529 975 549 975 q 493 943 501 975 l 442 951 q 475 1000 451 983 q 540 1017 499 1017 q 605 994 586 1017 q 619 932 624 972 l 619 928 q 606 890 617 901 q 583 874 596 878 q 560 865 569 869 q 549 847 550 860 l 547 828 l 489 828 z "},"ỗ":{"ha":497,"x_min":25,"x_max":486,"o":"m 200 -10 q 106 3 142 -10 q 51 41 69 15 q 28 106 32 67 q 32 199 25 146 l 75 511 q 106 610 83 568 q 175 676 129 653 q 300 699 221 699 q 394 685 358 699 q 449 647 431 672 q 470 588 467 622 q 468 511 474 554 l 425 199 q 391 81 415 128 q 321 13 367 35 q 200 -10 275 -10 m 208 56 q 272 72 250 56 q 303 115 293 88 q 315 171 313 142 l 364 518 q 367 574 369 549 q 349 616 365 600 q 290 632 332 632 q 227 616 249 632 q 197 574 206 600 q 182 518 188 549 l 133 171 q 132 115 131 142 q 150 72 133 88 q 208 56 167 56 m 149 758 l 293 892 l 360 892 l 467 758 l 400 758 l 319 842 l 218 758 l 149 758 m 386 922 q 353 929 367 922 q 322 947 340 936 q 297 964 311 956 q 267 972 283 972 q 237 960 250 972 q 218 924 224 947 l 181 924 q 214 997 189 968 q 275 1025 239 1025 q 312 1017 296 1025 q 343 999 328 1010 q 369 984 357 990 q 394 978 381 978 q 426 989 414 978 q 444 1022 438 1000 l 486 1022 q 448 949 476 976 q 386 922 419 922 z "}}}
